SplineFontDB: 1.0
FontName: ScidbSymbolT1Bold
FullName: Scidb Symbol T1
FamilyName: Scidb Symbol T1
Weight: Bold
Copyright: 
Version: 1.0
ItalicAngle: 0
UnderlinePosition: 0
UnderlineWidth: 0
Ascent: 3276
Descent: 820
Order2: 1
XUID: [1021 973 2061925148 6891506]
FSType: 0
OS2Version: 0
OS2_WeightWidthSlopeOnly: 0
OS2_UseTypoMetrics: 0
CreationTime: 1236613800
ModificationTime: 1250956804
PfmFamily: 17
TTFWeight: 700
TTFWidth: 5
LineGap: -98
VLineGap: 0
Panose: 2 11 8 3 5 3 2 2 2 4
OS2TypoAscent: 3362
OS2TypoAOffset: 1
OS2TypoDescent: -832
OS2TypoDOffset: 1
OS2TypoLinegap: 0
OS2WinAscent: 0
OS2WinAOffset: 1
OS2WinDescent: 0
OS2WinDOffset: 1
HheadAscent: 0
HheadAOffset: 1
HheadDescent: 0
HheadDOffset: 1
OS2SubXSize: 0
OS2SubYSize: 0
OS2SubXOff: 0
OS2SubYOff: 0
OS2SupXSize: 0
OS2SupYSize: 0
OS2SupXOff: 0
OS2SupYOff: 0
OS2StrikeYSize: 0
OS2StrikeYPos: 0
OS2Vendor: 'PfEd'
ScriptLang: 1
 1 latn 1 dflt 
TableOrder: GSUB 1
	'liga'
TtfTable: prep 4
\,ZLZ
EndTtf
TtfTable: fpgm 354
\,ZL[9=Os-:fst'!KL<m!WRk`!(7j<!!iQ,?X>=o!!+Vn+@U!4YQ8,`\,ZR]\,ZOZ+YC2(""YQa
YQH1@;HP/H+Gq;!8S!]$7NcAQA?Z1_7NcAQA5ZMSAVsVD+KtiE=D8n^!*!&DYWu>1BcsV[<*1<J
5\4)$3\@iA"=tZbYQQ7A;HP0$=Wg0VC11YW"=6M[C11XN=<i]+0E!K4!!OoH+Ktqp:fpRsY^f+\
YWtTZ)^-@I7BjR(=KoS/)^/?e/[tcb/0H'(Bgf0+?m$R\I;'NdYQ8,`\,Zab\,Z^_/[tcd/5%+i
""$rKY^d[s5Zru%+Ktqp;ck7fYeZ-R)i>kC+Ktqp;ck7f\,cSeMAqEt=WjpN-<""k+h.P<MM`@1
,?Z/!!!=QH=KhlR7CWAK:fnqc\,h+)+WIWf,t0%%,9^2/+^%2b\,Zgd92eq]6lR9m=Y0UR
EndTtf
TtfTable: cvt  4
!/Lt+
EndTtf
TtfTable: maxp 32
!!*'"!2fnm!$M=B!!!!"!!!!1z!!!!Oz
EndTtf
LangName: 1033 "" "" "" "Scidb Symbol T1" 
Encoding: UnicodeBmp
UnicodeInterp: none
NameList: Adobe Glyph List
DisplaySize: -24
AntiAlias: 1
FitToEm: 1
WinInfo: 64 16 4
BeginChars: 65536 165
StartChar: .notdef
Encoding: 0 -1 0
AltUni: 0
Width: 1773
GlyphClass: 2
Flags: W
Fore
136 0 m 1,0,-1
 136 2730 l 1,1,-1
 1501 2730 l 1,2,-1
 1501 0 l 1,3,-1
 136 0 l 1,0,-1
272 136 m 1,4,-1
 1365 136 l 1,5,-1
 1365 2594 l 1,6,-1
 272 2594 l 1,7,-1
 272 136 l 1,4,-1
EndSplineSet
EndChar
StartChar: exclam
Encoding: 33 33 2
Width: 1360
GlyphClass: 2
Flags: W
Fore
680 607 m 0,0,1
 825 607 825 607 925 509 c 0,2,3
 1024 411 1024 411 1024 271 c 0,4,5
 1024 129 1024 129 925 33 c 0,6,7
 825 -64 825 -64 680 -64 c 128,-1,8
 535 -64 535 -64 432 33 c 0,9,10
 328 131 328 131 328 271 c 0,11,12
 328 340 328 340 354.5 399.5 c 128,-1,13
 381 459 381 459 431 507 c 0,14,15
 535 607 535 607 680 607 c 0,0,1
615 926 m 1,16,17
 609 1011 609 1011 599 1099.5 c 128,-1,18
 589 1188 589 1188 574 1280 c 0,19,20
 559 1371 559 1371 542 1459.5 c 128,-1,21
 525 1548 525 1548 507 1633 c 0,22,23
 488 1719 488 1719 471.5 1792 c 128,-1,24
 455 1865 455 1865 440 1925 c 0,25,26
 426 1984 426 1984 395.5 2104.5 c 128,-1,27
 365 2225 365 2225 320 2406 c 1,28,29
 326 2618 326 2618 425 2716 c 0,30,31
 475 2765 475 2765 541 2790 c 128,-1,32
 607 2815 607 2815 688 2815 c 0,33,34
 1016 2815 1016 2815 1016 2347 c 1,35,36
 1013 2299 1013 2299 1003.5 2247 c 128,-1,37
 994 2195 994 2195 978 2140 c 0,38,39
 962 2084 962 2084 941.5 2014.5 c 128,-1,40
 921 1945 921 1945 897 1862 c 0,41,42
 873 1780 873 1780 852.5 1695.5 c 128,-1,43
 832 1611 832 1611 815 1525 c 0,44,45
 800 1446 800 1446 780.5 1296 c 128,-1,46
 761 1146 761 1146 737 926 c 1,47,-1
 615 926 l 1,16,17
EndSplineSet
EndChar
StartChar: quotedbl
Encoding: 34 34 3
Width: 2273
GlyphClass: 2
Flags: W
Fore
530 1654 m 1,0,-1
 375 2374 l 1,1,2
 374 2386 374 2386 371.5 2397.5 c 128,-1,3
 369 2409 369 2409 367 2421 c 0,4,5
 366 2433 366 2433 364 2444.5 c 128,-1,6
 362 2456 362 2456 360 2467 c 0,7,8
 359 2479 359 2479 356.5 2491 c 128,-1,9
 354 2503 354 2503 352 2515 c 1,10,11
 358 2655 358 2655 422 2734 c 1,12,13
 485 2815 485 2815 602 2815 c 0,14,15
 725 2815 725 2815 794 2741 c 0,16,17
 829 2703 829 2703 846.5 2646 c 128,-1,18
 864 2589 864 2589 864 2515 c 0,19,20
 864 2438 864 2438 856 2397 c 1,21,-1
 693 1654 l 1,22,-1
 530 1654 l 1,0,-1
1586 1654 m 1,23,-1
 1431 2374 l 1,24,25
 1430 2386 1430 2386 1427.5 2397.5 c 128,-1,26
 1425 2409 1425 2409 1423 2421 c 0,27,28
 1422 2433 1422 2433 1420 2444.5 c 128,-1,29
 1418 2456 1418 2456 1416 2467 c 0,30,31
 1415 2479 1415 2479 1412.5 2491 c 128,-1,32
 1410 2503 1410 2503 1408 2515 c 1,33,34
 1420 2815 1420 2815 1662 2815 c 0,35,36
 1780 2815 1780 2815 1849 2739 c 1,37,38
 1920 2664 1920 2664 1920 2515 c 0,39,40
 1920 2438 1920 2438 1912 2397 c 1,41,-1
 1749 1654 l 1,42,-1
 1586 1654 l 1,23,-1
EndSplineSet
EndChar
StartChar: numbersign
Encoding: 35 35 4
Width: 2048
GlyphClass: 2
Flags: W
Fore
754 2734 m 1,0,-1
 754 1977 l 1,1,-1
 1294 1977 l 1,2,-1
 1294 2734 l 1,3,-1
 1636 2734 l 1,4,-1
 1636 1977 l 1,5,-1
 1977 1977 l 1,6,-1
 1977 1641 l 1,7,-1
 1636 1641 l 1,8,-1
 1636 1091 l 1,9,-1
 1977 1091 l 1,10,-1
 1977 748 l 1,11,-1
 1636 748 l 1,12,-1
 1636 0 l 1,13,-1
 1294 0 l 1,14,-1
 1294 748 l 1,15,-1
 754 748 l 1,16,-1
 754 0 l 1,17,-1
 406 0 l 1,18,-1
 406 748 l 1,19,-1
 64 748 l 1,20,-1
 64 1091 l 1,21,-1
 406 1091 l 1,22,-1
 406 1641 l 1,23,-1
 64 1641 l 1,24,-1
 64 1977 l 1,25,-1
 406 1977 l 1,26,-1
 406 2734 l 1,27,-1
 754 2734 l 1,0,-1
754 1641 m 1,28,-1
 754 1091 l 1,29,-1
 1294 1091 l 1,30,-1
 1294 1641 l 1,31,-1
 754 1641 l 1,28,-1
EndSplineSet
EndChar
StartChar: dollar
Encoding: 36 36 5
Width: 2048
GlyphClass: 2
Flags: W
Fore
119 2063 m 1,0,1
 131 2265 131 2265 227 2413 c 128,-1,2
 323 2561 323 2561 489 2648 c 128,-1,3
 655 2735 655 2735 872 2759 c 1,4,-1
 872 3071 l 1,5,-1
 1088 3071 l 1,6,-1
 1088 2759 l 1,7,8
 1521 2700 1521 2700 1753 2551 c 1,9,-1
 1753 1964 l 1,10,-1
 1660 1964 l 1,11,12
 1627 2098 1627 2098 1574 2212.5 c 128,-1,13
 1521 2327 1521 2327 1450 2420 c 0,14,15
 1380 2513 1380 2513 1289 2568.5 c 128,-1,16
 1198 2624 1198 2624 1088 2641 c 1,17,-1
 1088 1744 l 1,18,19
 1261 1665 1261 1665 1393.5 1586.5 c 128,-1,20
 1526 1508 1526 1508 1617 1432 c 0,21,22
 1709 1355 1709 1355 1771 1276.5 c 128,-1,23
 1833 1198 1833 1198 1864 1119 c 0,24,25
 1929 958 1929 958 1929 752 c 1,26,27
 1923 648 1923 648 1899.5 558.5 c 128,-1,28
 1876 469 1876 469 1838 396 c 0,29,30
 1799 322 1799 322 1734.5 259.5 c 128,-1,31
 1670 197 1670 197 1580 147 c 0,32,33
 1490 98 1490 98 1367 60.5 c 128,-1,34
 1244 23 1244 23 1088 0 c 1,35,-1
 1088 -410 l 1,36,-1
 872 -410 l 1,37,-1
 872 0 l 1,38,39
 768 3 768 3 693 13 c 128,-1,40
 618 23 618 23 570 36 c 1,41,42
 522 51 522 51 427.5 85.5 c 128,-1,43
 333 120 333 120 193 174 c 1,44,-1
 193 813 l 1,45,-1
 269 806 l 1,46,47
 280 752 280 752 303.5 686.5 c 128,-1,48
 327 621 327 621 363 543 c 128,-1,49
 399 465 399 465 449 394 c 128,-1,50
 499 323 499 323 563 260 c 128,-1,51
 627 197 627 197 702.5 161 c 128,-1,52
 778 125 778 125 864 118 c 1,53,-1
 864 1150 l 1,54,55
 833 1164 833 1164 788 1187.5 c 128,-1,56
 743 1211 743 1211 685 1241 c 0,57,58
 628 1271 628 1271 566.5 1312.5 c 128,-1,59
 505 1354 505 1354 440 1407 c 0,60,61
 376 1459 376 1459 319.5 1528 c 128,-1,62
 263 1597 263 1597 215 1680 c 0,63,64
 119 1846 119 1846 119 2063 c 1,0,1
504 2272 m 0,65,66
 504 2200 504 2200 528.5 2135 c 128,-1,67
 553 2070 553 2070 601 2014 c 0,68,69
 649 1957 649 1957 717 1915 c 128,-1,70
 785 1873 785 1873 872 1846 c 1,71,-1
 872 2641 l 1,72,73
 504 2571 504 2571 504 2272 c 0,65,66
1088 1023 m 1,74,-1
 1088 118 l 1,75,76
 1279 152 1279 152 1374 269.5 c 128,-1,77
 1469 387 1469 387 1469 584 c 1,78,79
 1465 741 1465 741 1371 833 c 0,80,81
 1278 926 1278 926 1088 1023 c 1,74,-1
EndSplineSet
EndChar
StartChar: percent
Encoding: 37 37 6
Width: 4096
GlyphClass: 2
Flags: W
Fore
1516 2772 m 1,0,1
 1702 2744 1702 2744 1803 2611 c 0,2,3
 1905 2478 1905 2478 1905 2287 c 0,4,5
 1905 2197 1905 2197 1889.5 2104.5 c 128,-1,6
 1874 2012 1874 2012 1843 1917 c 0,7,8
 1781 1726 1781 1726 1661 1563 c 0,9,10
 1541 1402 1541 1402 1369 1303 c 0,11,12
 1197 1205 1197 1205 986 1205 c 1,13,14
 897 1212 897 1212 813 1249.5 c 128,-1,15
 729 1287 729 1287 651 1352 c 0,16,17
 573 1418 573 1418 534 1521 c 128,-1,18
 495 1624 495 1624 495 1763 c 0,19,20
 495 1997 495 1997 623 2233 c 0,21,22
 752 2471 752 2471 969 2621 c 0,23,24
 1187 2772 1187 2772 1437 2772 c 2,25,-1
 1516 2772 l 1,0,1
1131 1396 m 1,26,27
 1317 1396 1317 1396 1455 1525 c 0,28,29
 1524 1590 1524 1590 1586 1688.5 c 128,-1,30
 1648 1787 1648 1787 1702 1919 c 1,31,32
 1777 2113 1777 2113 1777 2266 c 0,33,34
 1777 2326 1777 2326 1762 2380.5 c 128,-1,35
 1747 2435 1747 2435 1719 2483 c 0,36,37
 1661 2580 1661 2580 1549 2580 c 0,38,39
 1447 2580 1447 2580 1339 2473 c 0,40,41
 1285 2420 1285 2420 1233.5 2338 c 128,-1,42
 1182 2256 1182 2256 1135 2147 c 0,43,44
 1066 1987 1066 1987 1027.5 1851.5 c 128,-1,45
 989 1716 989 1716 983 1606 c 1,46,47
 995 1419 995 1419 1131 1396 c 1,26,27
2748 2845 m 1,48,-1
 2980 2845 l 1,49,-1
 1367 -32 l 1,50,-1
 1143 -32 l 1,51,-1
 2748 2845 l 1,48,-1
3195 1502 m 1,52,53
 3381 1474 3381 1474 3482 1341 c 0,54,55
 3584 1209 3584 1209 3584 1017 c 0,56,57
 3584 927 3584 927 3568.5 834.5 c 128,-1,58
 3553 742 3553 742 3522 647 c 0,59,60
 3460 456 3460 456 3340 294 c 128,-1,61
 3220 132 3220 132 3048 34 c 0,62,63
 2877 -64 2877 -64 2665 -64 c 1,64,65
 2576 -56 2576 -56 2492 -19.5 c 128,-1,66
 2408 17 2408 17 2330 83 c 128,-1,67
 2252 149 2252 149 2213 252 c 128,-1,68
 2174 355 2174 355 2174 493 c 0,69,70
 2174 727 2174 727 2302 963 c 0,71,72
 2432 1201 2432 1201 2648 1352 c 1,73,74
 2867 1502 2867 1502 3116 1502 c 2,75,-1
 3195 1502 l 1,52,53
2810 127 m 1,76,77
 2996 127 2996 127 3134 256 c 0,78,79
 3203 320 3203 320 3265 419 c 128,-1,80
 3327 518 3327 518 3381 650 c 1,81,82
 3456 843 3456 843 3456 997 c 0,83,84
 3456 1056 3456 1056 3441.5 1111 c 128,-1,85
 3427 1166 3427 1166 3398 1214 c 0,86,87
 3341 1311 3341 1311 3228 1311 c 0,88,89
 3126 1311 3126 1311 3018 1203 c 0,90,91
 2964 1150 2964 1150 2912.5 1068 c 128,-1,92
 2861 986 2861 986 2814 877 c 0,93,94
 2745 717 2745 717 2706.5 581.5 c 128,-1,95
 2668 446 2668 446 2662 337 c 1,96,97
 2674 150 2674 150 2810 127 c 1,76,77
EndSplineSet
EndChar
StartChar: ampersand
Encoding: 38 38 7
Width: 72
GlyphClass: 2
Flags: W
Fore
39 72 m 0,0,1
 54 72 54 72 65.5 61.5 c 128,-1,2
 77 51 77 51 77 36 c 0,3,4
 77 20 77 20 65.5 10 c 128,-1,5
 54 0 54 0 39 0 c 0,6,7
 23 0 23 0 11.5 10 c 128,-1,8
 0 20 0 20 0 36 c 0,9,10
 0 51 0 51 11.5 61.5 c 128,-1,11
 23 72 23 72 39 72 c 0,0,1
EndSplineSet
EndChar
StartChar: quotesingle
Encoding: 39 39 8
Width: 1360
GlyphClass: 2
Flags: W
Fore
571 1654 m 1,0,-1
 416 2374 l 1,1,2
 415 2386 415 2386 412.5 2397.5 c 128,-1,3
 410 2409 410 2409 408 2421 c 0,4,5
 407 2433 407 2433 405 2444.5 c 128,-1,6
 403 2456 403 2456 401 2467 c 0,7,8
 400 2479 400 2479 397.5 2491 c 128,-1,9
 395 2503 395 2503 393 2515 c 1,10,11
 399 2655 399 2655 463 2734 c 1,12,13
 526 2815 526 2815 643 2815 c 0,14,15
 766 2815 766 2815 835 2741 c 0,16,17
 870 2703 870 2703 887.5 2646 c 128,-1,18
 905 2589 905 2589 905 2515 c 0,19,20
 905 2438 905 2438 897 2397 c 1,21,-1
 734 1654 l 1,22,-1
 571 1654 l 1,0,-1
EndSplineSet
EndChar
StartChar: parenleft
Encoding: 40 40 9
Width: 1360
GlyphClass: 2
Flags: W
Fore
192 1096 m 1,0,1
 197 1365 197 1365 269 1624 c 0,2,3
 305 1753 305 1753 358.5 1876.5 c 128,-1,4
 412 2000 412 2000 482 2118 c 0,5,6
 552 2235 552 2235 636.5 2341 c 128,-1,7
 721 2447 721 2447 820 2540 c 0,8,9
 1019 2726 1019 2726 1272 2845 c 1,10,-1
 1272 2727 l 1,11,12
 999 2578 999 2578 864 2354 c 0,13,14
 796 2242 796 2242 750.5 2109.5 c 128,-1,15
 705 1977 705 1977 684 1826 c 0,16,17
 663 1673 663 1673 651.5 1474 c 128,-1,18
 640 1275 640 1275 640 1031 c 0,19,20
 640 859 640 859 647.5 711.5 c 128,-1,21
 655 564 655 564 669 441 c 0,22,23
 684 316 684 316 709.5 205.5 c 128,-1,24
 735 95 735 95 770 0 c 128,-1,25
 805 -95 805 -95 854 -178.5 c 128,-1,26
 903 -262 903 -262 963 -333 c 0,27,28
 1024 -403 1024 -403 1101.5 -465 c 128,-1,29
 1179 -527 1179 -527 1272 -578 c 1,30,-1
 1272 -688 l 1,31,32
 1094 -594 1094 -594 914.5 -442 c 128,-1,33
 735 -290 735 -290 554 -81 c 0,34,35
 192 337 192 337 192 1096 c 1,0,1
EndSplineSet
EndChar
StartChar: parenright
Encoding: 41 41 10
Width: 1360
GlyphClass: 2
Flags: W
Fore
1184 1064 m 0,0,1
 1184 885 1184 885 1152 710 c 128,-1,2
 1120 535 1120 535 1057 364 c 0,3,4
 994 192 994 192 901.5 37 c 128,-1,5
 809 -118 809 -118 687 -256 c 0,6,7
 566 -394 566 -394 422 -502.5 c 128,-1,8
 278 -611 278 -611 112 -688 c 1,9,-1
 112 -569 l 1,10,11
 319 -454 319 -454 444 -299 c 0,12,13
 570 -144 570 -144 632 57 c 1,14,15
 696 258 696 258 715 503 c 0,16,17
 736 750 736 750 736 1125 c 0,18,19
 736 1353 736 1353 722.5 1543.5 c 128,-1,20
 709 1734 709 1734 683 1885 c 0,21,22
 631 2187 631 2187 495 2394 c 0,23,24
 360 2601 360 2601 112 2734 c 1,25,-1
 112 2845 l 1,26,27
 171 2818 171 2818 242 2774 c 128,-1,28
 313 2730 313 2730 395 2671 c 0,29,30
 561 2553 561 2553 744 2340 c 0,31,32
 836 2234 836 2234 914 2100 c 128,-1,33
 992 1966 992 1966 1055 1803 c 1,34,35
 1184 1480 1184 1480 1184 1064 c 0,0,1
EndSplineSet
EndChar
StartChar: asterisk
Encoding: 42 42 11
Width: 2048
GlyphClass: 2
Flags: W
Fore
1084 1862 m 1,0,-1
 1058 1837 l 1,1,2
 1058 1778 1058 1778 1065.5 1726 c 128,-1,3
 1073 1674 1073 1674 1086 1631 c 0,4,5
 1114 1547 1114 1547 1159 1470 c 0,6,7
 1182 1431 1182 1431 1195.5 1407.5 c 128,-1,8
 1209 1384 1209 1384 1212 1375 c 0,9,10
 1224 1345 1224 1345 1230 1314.5 c 128,-1,11
 1236 1284 1236 1284 1236 1255 c 0,12,13
 1236 1163 1236 1163 1176 1106 c 0,14,15
 1115 1048 1115 1048 1026 1048 c 0,16,17
 952 1048 952 1048 887 1101 c 1,18,19
 820 1153 820 1153 816 1255 c 1,20,21
 822 1289 822 1289 838 1336 c 128,-1,22
 854 1383 854 1383 878 1443 c 0,23,24
 903 1505 903 1505 921.5 1556.5 c 128,-1,25
 940 1608 940 1608 952 1649 c 0,26,27
 976 1733 976 1733 976 1837 c 1,28,-1
 951 1862 l 1,29,30
 899 1833 899 1833 858 1801 c 128,-1,31
 817 1769 817 1769 789 1737 c 0,32,33
 761 1704 761 1704 735.5 1667.5 c 128,-1,34
 710 1631 710 1631 688 1592 c 0,35,36
 666 1552 666 1552 650.5 1527.5 c 128,-1,37
 635 1503 635 1503 627 1493 c 0,38,39
 544 1382 544 1382 428 1382 c 0,40,41
 350 1382 350 1382 299 1432.5 c 128,-1,42
 248 1483 248 1483 225 1584 c 1,43,44
 237 1698 237 1698 319 1756 c 0,45,46
 360 1784 360 1784 410 1799 c 128,-1,47
 460 1814 460 1814 517 1814 c 1,48,49
 588 1818 588 1818 642 1825.5 c 128,-1,50
 696 1833 696 1833 733 1841 c 0,51,52
 771 1850 771 1850 817 1873.5 c 128,-1,53
 863 1897 863 1897 915 1936 c 1,54,-1
 923 1961 l 1,55,56
 760 2047 760 2047 582 2047 c 1,57,58
 543 2051 543 2051 509 2056 c 128,-1,59
 475 2061 475 2061 448 2064 c 0,60,61
 392 2073 392 2073 344 2091 c 0,62,63
 295 2109 295 2109 264 2149 c 0,64,65
 249 2169 249 2169 239 2198 c 128,-1,66
 229 2227 229 2227 225 2263 c 1,67,68
 242 2370 242 2370 290 2423 c 128,-1,69
 338 2476 338 2476 416 2476 c 0,70,71
 532 2476 532 2476 610 2390 c 1,72,73
 644 2361 644 2361 686 2279 c 1,74,75
 708 2239 708 2239 733 2203 c 128,-1,76
 758 2167 758 2167 785 2136 c 0,77,78
 841 2075 841 2075 960 2021 c 1,79,-1
 992 2038 l 1,80,81
 992 2128 992 2128 965 2206 c 0,82,83
 952 2245 952 2245 931 2296 c 128,-1,84
 910 2347 910 2347 882 2410 c 0,85,86
 854 2474 854 2474 835 2522.5 c 128,-1,87
 816 2571 816 2571 808 2605 c 1,88,89
 814 2701 814 2701 868 2757 c 0,90,91
 922 2815 922 2815 1018 2815 c 0,92,93
 1094 2815 1094 2815 1157 2764 c 0,94,95
 1189 2738 1189 2738 1204.5 2698 c 128,-1,96
 1220 2658 1220 2658 1220 2605 c 0,97,98
 1220 2549 1220 2549 1212 2517 c 0,99,100
 1203 2483 1203 2483 1161 2408 c 0,101,102
 1140 2369 1140 2369 1122.5 2329 c 128,-1,103
 1105 2289 1105 2289 1092 2249 c 0,104,105
 1066 2166 1066 2166 1066 2038 c 1,106,-1
 1100 2021 l 1,107,108
 1153 2051 1153 2051 1193.5 2082 c 128,-1,109
 1234 2113 1234 2113 1262 2145 c 0,110,111
 1291 2176 1291 2176 1316 2211.5 c 128,-1,112
 1341 2247 1341 2247 1362 2286 c 0,113,114
 1384 2325 1384 2325 1399.5 2349.5 c 128,-1,115
 1415 2374 1415 2374 1422 2383 c 0,116,117
 1504 2492 1504 2492 1617 2492 c 0,118,119
 1702 2492 1702 2492 1762 2431 c 0,120,121
 1824 2366 1824 2366 1824 2288 c 0,122,123
 1824 2174 1824 2174 1745 2129 c 0,124,125
 1706 2106 1706 2106 1651 2087 c 128,-1,126
 1596 2068 1596 2068 1526 2055 c 1,127,-1
 1451 2055 l 2,128,129
 1296 2055 1296 2055 1129 1953 c 1,130,-1
 1129 1919 l 1,131,132
 1206 1875 1206 1875 1289 1848 c 128,-1,133
 1372 1821 1372 1821 1459 1814 c 1,134,135
 1492 1817 1492 1817 1532 1819 c 128,-1,136
 1572 1821 1572 1821 1617 1821 c 1,137,138
 1832 1783 1832 1783 1832 1608 c 0,139,140
 1832 1516 1832 1516 1775 1458 c 0,141,142
 1747 1428 1747 1428 1710 1411.5 c 128,-1,143
 1673 1395 1673 1395 1629 1391 c 1,144,145
 1516 1409 1516 1409 1443 1492 c 0,146,147
 1407 1533 1407 1533 1365.5 1584.5 c 128,-1,148
 1324 1636 1324 1636 1276 1697 c 0,149,150
 1179 1819 1179 1819 1084 1862 c 1,0,-1
EndSplineSet
EndChar
StartChar: plus
Encoding: 43 43 12
Width: 2335
GlyphClass: 2
Flags: W
Fore
992 1214 m 1,0,-1
 992 2072 l 1,1,-1
 1344 2072 l 1,2,-1
 1344 1214 l 1,3,-1
 2201 1214 l 1,4,-1
 2201 863 l 1,5,-1
 1344 863 l 1,6,-1
 1344 0 l 1,7,-1
 992 0 l 1,8,-1
 992 863 l 1,9,-1
 135 863 l 1,10,-1
 135 1214 l 1,11,-1
 992 1214 l 1,0,-1
EndSplineSet
EndChar
StartChar: comma
Encoding: 44 44 13
Width: 1024
GlyphClass: 2
Flags: W
Fore
164 365 m 0,0,1
 171 431 171 431 200 481 c 128,-1,2
 229 531 229 531 278 564 c 0,3,4
 377 630 377 630 533 630 c 1,5,6
 609 627 609 627 675.5 598.5 c 128,-1,7
 742 570 742 570 797 518 c 0,8,9
 910 412 910 412 928 224 c 1,10,11
 928 132 928 132 912.5 46 c 128,-1,12
 897 -40 897 -40 866 -123 c 0,13,14
 836 -205 836 -205 781.5 -286 c 128,-1,15
 727 -367 727 -367 650 -445 c 0,16,17
 495 -602 495 -602 231 -737 c 1,18,-1
 180 -645 l 1,19,20
 286 -570 286 -570 370 -501 c 128,-1,21
 454 -432 454 -432 515 -369 c 0,22,23
 577 -306 577 -306 608 -235.5 c 128,-1,24
 639 -165 639 -165 639 -88 c 0,25,26
 639 -51 639 -51 628 -39 c 0,27,28
 615 -24 615 -24 586 -16 c 0,29,30
 571 -12 571 -12 560 -7.5 c 128,-1,31
 549 -3 549 -3 542 0 c 1,32,33
 526 -32 526 -32 466 -32 c 1,34,35
 160 -13 160 -13 160 281 c 0,36,37
 160 308 160 308 161.5 329.5 c 128,-1,38
 163 351 163 351 164 365 c 0,0,1
EndSplineSet
EndChar
StartChar: hyphen
Encoding: 45 45 14
Width: 2310
GlyphClass: 2
Flags: W
Fore
136 1213 m 1,0,-1
 2183 1213 l 1,1,-1
 2183 863 l 1,2,-1
 136 863 l 1,3,-1
 136 1213 l 1,0,-1
EndSplineSet
EndChar
StartChar: period
Encoding: 46 46 15
Width: 1024
GlyphClass: 2
Flags: W
Fore
508 -64 m 0,0,1
 362 -64 362 -64 261 36 c 128,-1,2
 160 136 160 136 160 283 c 0,3,4
 160 428 160 428 261 534 c 0,5,6
 363 639 363 639 508 639 c 0,7,8
 656 639 656 639 759 534 c 0,9,10
 812 481 812 481 838 418 c 128,-1,11
 864 355 864 355 864 283 c 0,12,13
 864 138 864 138 760 36 c 1,14,15
 655 -64 655 -64 508 -64 c 0,0,1
EndSplineSet
EndChar
StartChar: slash
Encoding: 47 47 16
Width: 1135
GlyphClass: 2
Flags: W
Fore
1248 2815 m 1,0,-1
 547 722 l 1,1,-1
 270 -96 l 1,2,-1
 -94 -96 l 1,3,-1
 596 2000 l 1,4,-1
 876 2815 l 1,5,-1
 1248 2815 l 1,0,-1
EndSplineSet
EndChar
StartChar: zero
Encoding: 48 48 17
Width: 2048
GlyphClass: 2
Flags: W
Fore
104 1518 m 1,0,1
 115 1701 115 1701 151 1867 c 128,-1,2
 187 2033 187 2033 248 2179 c 0,3,4
 372 2476 372 2476 578 2644 c 1,5,6
 784 2815 784 2815 1040 2815 c 0,7,8
 1121 2814 1121 2814 1198.5 2792.5 c 128,-1,9
 1276 2771 1276 2771 1349 2730 c 0,10,11
 1423 2690 1423 2690 1491.5 2629 c 128,-1,12
 1560 2568 1560 2568 1622 2489 c 0,13,14
 1747 2330 1747 2330 1831 2096 c 0,15,16
 1873 1980 1873 1980 1901.5 1849.5 c 128,-1,17
 1930 1719 1930 1719 1944 1577 c 1,18,19
 1948 1516 1948 1516 1950 1467.5 c 128,-1,20
 1952 1419 1952 1419 1952 1384 c 0,21,22
 1952 1213 1952 1213 1927 1044.5 c 128,-1,23
 1902 876 1902 876 1852 711 c 128,-1,24
 1802 546 1802 546 1725 409 c 128,-1,25
 1648 272 1648 272 1546 163 c 1,26,27
 1340 -52 1340 -52 1054 -64 c 1,28,29
 852 -64 852 -64 677 36 c 1,30,31
 503 139 503 139 373 330 c 0,32,33
 309 425 309 425 258 538.5 c 128,-1,34
 207 652 207 652 171 783 c 0,35,36
 135 913 135 913 116.5 1055 c 128,-1,37
 98 1197 98 1197 96 1350 c 1,38,39
 100 1382 100 1382 102 1424.5 c 128,-1,40
 104 1467 104 1467 104 1518 c 1,0,1
768 2027 m 2,41,-1
 768 698 l 1,42,43
 775 543 775 543 792.5 424.5 c 128,-1,44
 810 306 810 306 837 226 c 0,45,46
 893 63 893 63 1031 63 c 0,47,48
 1115 63 1115 63 1165 136 c 0,49,50
 1191 173 1191 173 1209.5 221 c 128,-1,51
 1228 269 1228 269 1238 328 c 0,52,53
 1249 386 1249 386 1256 437.5 c 128,-1,54
 1263 489 1263 489 1264 532 c 0,55,56
 1266 575 1266 575 1270.5 660.5 c 128,-1,57
 1275 746 1275 746 1280 874 c 1,58,-1
 1280 1948 l 2,59,60
 1280 2687 1280 2687 1016 2687 c 1,61,62
 862 2682 862 2682 815 2465 c 0,63,64
 792 2358 792 2358 780 2248 c 128,-1,65
 768 2138 768 2138 768 2027 c 2,41,-1
EndSplineSet
EndChar
StartChar: one
Encoding: 49 49 18
Width: 2048
GlyphClass: 2
Flags: W
Fore
768 419 m 2,0,-1
 768 2132 l 2,1,2
 768 2261 768 2261 732 2313 c 0,3,4
 714 2339 714 2339 683 2352 c 128,-1,5
 652 2365 652 2365 610 2365 c 0,6,7
 532 2365 532 2365 262 2263 c 1,8,-1
 262 2374 l 1,9,-1
 1302 2815 l 1,10,-1
 1376 2815 l 1,11,-1
 1376 403 l 2,12,13
 1376 258 1376 258 1439 190 c 0,14,15
 1502 121 1502 121 1580 108 c 0,16,17
 1619 101 1619 101 1676 95.5 c 128,-1,18
 1733 90 1733 90 1806 86 c 1,19,-1
 1806 0 l 1,20,-1
 270 0 l 1,21,-1
 270 95 l 1,22,23
 392 95 392 95 485 109.5 c 128,-1,24
 578 124 578 124 641 152 c 0,25,26
 768 210 768 210 768 419 c 2,0,-1
EndSplineSet
EndChar
StartChar: two
Encoding: 50 50 19
Width: 2048
GlyphClass: 2
Flags: W
Fore
752 858 m 0,0,1
 1216 1416 1216 1416 1216 1792 c 0,2,3
 1216 1931 1216 1931 1156 2055 c 0,4,5
 1096 2181 1096 2181 986 2258 c 0,6,7
 874 2335 874 2335 735 2335 c 0,8,9
 580 2335 580 2335 443 2240 c 0,10,11
 307 2145 307 2145 240 1966 c 1,12,-1
 127 1966 l 1,13,14
 410 2815 410 2815 1015 2815 c 0,15,16
 1219 2815 1219 2815 1399 2716 c 0,17,18
 1489 2666 1489 2666 1561.5 2597.5 c 128,-1,19
 1634 2529 1634 2529 1686 2442 c 0,20,21
 1739 2356 1739 2356 1765.5 2260.5 c 128,-1,22
 1792 2165 1792 2165 1792 2061 c 0,23,24
 1792 1903 1792 1903 1748 1764.5 c 128,-1,25
 1704 1626 1704 1626 1616 1508 c 0,26,27
 1571 1447 1571 1447 1524.5 1390.5 c 128,-1,28
 1478 1334 1478 1334 1431 1282 c 0,29,30
 1384 1232 1384 1232 1339 1186 c 128,-1,31
 1294 1140 1294 1140 1252 1101 c 128,-1,32
 1210 1062 1210 1062 1138 995 c 128,-1,33
 1066 928 1066 928 965 835 c 0,34,35
 865 742 865 742 787 668.5 c 128,-1,36
 709 595 709 595 655 543 c 1,37,-1
 1392 543 l 2,38,39
 1528 543 1528 543 1610 566 c 0,40,41
 1651 578 1651 578 1681.5 594 c 128,-1,42
 1712 610 1712 610 1733 630 c 0,43,44
 1776 670 1776 670 1803 732 c 0,45,46
 1817 762 1817 762 1832 795 c 128,-1,47
 1862 861 l 1,48,-1
 1960 861 l 1,49,-1
 1775 0 l 1,50,-1
 74 0 l 1,51,-1
 74 93 l 1,52,53
 116 142 116 142 168.5 201.5 c 128,-1,54
 221 261 221 261 284 331 c 0,55,56
 347 400 347 400 410 469.5 c 128,-1,57
 473 539 473 539 534 607 c 0,58,59
 596 677 596 677 651 739.5 c 128,-1,60
 706 802 706 802 752 858 c 0,0,1
EndSplineSet
EndChar
StartChar: three
Encoding: 51 51 20
Width: 2048
GlyphClass: 2
Flags: W
Fore
1472 582 m 0,0,1
 1472 668 1472 668 1458.5 747.5 c 128,-1,2
 1445 827 1445 827 1419 899 c 0,3,4
 1366 1044 1366 1044 1178 1187 c 1,5,6
 1084 1260 1084 1260 945 1322.5 c 128,-1,7
 806 1385 806 1385 623 1438 c 1,8,-1
 623 1511 l 1,9,10
 1181 1651 1181 1651 1181 2041 c 0,11,12
 1181 2055 1181 2055 1179 2081 c 128,-1,13
 1177 2107 1177 2107 1173 2143 c 0,14,15
 1151 2310 1151 2310 1026 2386 c 0,16,17
 965 2424 965 2424 891 2443.5 c 128,-1,18
 817 2463 817 2463 733 2463 c 0,19,20
 652 2463 652 2463 583.5 2441.5 c 128,-1,21
 515 2420 515 2420 461 2378 c 0,22,23
 351 2291 351 2291 244 2127 c 1,24,-1
 152 2175 l 1,25,26
 197 2265 197 2265 255 2347.5 c 128,-1,27
 313 2430 313 2430 384 2501 c 0,28,29
 528 2648 528 2648 708 2730 c 1,30,31
 890 2815 890 2815 1088 2815 c 0,32,33
 1366 2815 1366 2815 1569 2659 c 0,34,35
 1671 2581 1671 2581 1722 2475 c 128,-1,36
 1773 2369 1773 2369 1773 2236 c 0,37,38
 1773 1887 1773 1887 1439 1721 c 1,39,40
 1642 1639 1642 1639 1780 1454 c 0,41,42
 1920 1266 1920 1266 1920 995 c 0,43,44
 1920 754 1920 754 1816 557 c 0,45,46
 1764 459 1764 459 1693.5 374.5 c 128,-1,47
 1623 290 1623 290 1534 220 c 0,48,49
 1356 80 1356 80 1134 7 c 1,50,51
 1023 -27 1023 -27 910 -45.5 c 128,-1,52
 797 -64 797 -64 682 -64 c 0,53,54
 568 -64 568 -64 463 -43 c 128,-1,55
 358 -22 358 -22 263 18 c 0,56,57
 74 100 74 100 57 290 c 1,58,59
 57 386 57 386 134 457 c 0,60,61
 172 493 172 493 219.5 510.5 c 128,-1,62
 267 528 267 528 323 528 c 0,63,64
 431 528 431 528 516 482 c 0,65,66
 558 458 558 458 608 421 c 128,-1,67
 658 384 658 384 714 335 c 0,68,69
 771 285 771 285 817.5 248.5 c 128,-1,70
 864 212 864 212 898 188 c 0,71,72
 970 140 970 140 1064 127 c 1,73,74
 1227 134 1227 134 1349 251 c 0,75,76
 1472 369 1472 369 1472 582 c 0,0,1
EndSplineSet
EndChar
StartChar: four
Encoding: 52 52 21
Width: 2048
GlyphClass: 2
Flags: W
Fore
1358 2815 m 1,0,-1
 1696 2815 l 1,1,-1
 1696 1055 l 1,2,-1
 1954 1055 l 1,3,-1
 1954 607 l 1,4,-1
 1696 607 l 1,5,-1
 1696 0 l 1,6,-1
 1088 0 l 1,7,-1
 1088 607 l 1,8,-1
 82 607 l 1,9,-1
 82 1055 l 1,10,11
 159 1176 159 1176 240.5 1298.5 c 128,-1,12
 322 1421 322 1421 408 1545 c 0,13,14
 495 1670 495 1670 582 1790.5 c 128,-1,15
 669 1911 669 1911 754 2027 c 0,16,17
 840 2142 840 2142 923.5 2252 c 128,-1,18
 1007 2362 1007 2362 1087 2465 c 0,19,20
 1168 2569 1168 2569 1236 2656.5 c 128,-1,21
 1304 2744 1304 2744 1358 2815 c 1,0,-1
1096 2263 m 1,22,-1
 250 1055 l 1,23,-1
 1096 1055 l 1,24,-1
 1096 2263 l 1,22,-1
EndSplineSet
EndChar
StartChar: five
Encoding: 53 53 22
Width: 2048
GlyphClass: 2
Flags: W
Fore
1536 656 m 0,0,1
 1536 839 1536 839 1390 996 c 1,2,3
 1242 1152 1242 1152 1029 1230 c 0,4,5
 865 1291 865 1291 660 1325 c 128,-1,6
 455 1359 455 1359 209 1366 c 1,7,-1
 602 2782 l 1,8,-1
 1906 2782 l 1,9,-1
 1744 2270 l 1,10,-1
 605 2270 l 1,11,-1
 520 1919 l 1,12,13
 844 1912 844 1912 1087 1847.5 c 128,-1,14
 1330 1783 1330 1783 1492 1661 c 0,15,16
 1824 1411 1824 1411 1824 949 c 0,17,18
 1824 646 1824 646 1666 424 c 0,19,20
 1588 313 1588 313 1483 227.5 c 128,-1,21
 1378 142 1378 142 1247 84 c 0,22,23
 986 -32 986 -32 691 -32 c 0,24,25
 582 -32 582 -32 479.5 -11.5 c 128,-1,26
 377 9 377 9 283 50 c 128,-1,27
 189 91 189 91 138.5 159 c 128,-1,28
 88 227 88 227 82 322 c 1,29,30
 86 432 86 432 157 503 c 0,31,32
 229 575 229 575 337 575 c 0,33,34
 441 575 441 575 526 530 c 0,35,36
 570 507 570 507 621.5 473.5 c 128,-1,37
 673 440 673 440 733 396 c 0,38,39
 793 353 793 353 844 320 c 128,-1,40
 895 287 895 287 935 265 c 1,41,42
 976 245 976 245 1021.5 233.5 c 128,-1,43
 1067 222 1067 222 1115 222 c 0,44,45
 1168 222 1168 222 1218 234 c 128,-1,46
 1268 246 1268 246 1316 269 c 128,-1,47
 1364 292 1364 292 1403.5 328.5 c 128,-1,48
 1443 365 1443 365 1474 414 c 0,49,50
 1536 512 1536 512 1536 656 c 0,0,1
EndSplineSet
EndChar
StartChar: six
Encoding: 54 54 23
Width: 2048
GlyphClass: 2
Flags: W
Fore
119 1015 m 0,0,1
 119 1024 119 1024 118.5 1036.5 c 128,-1,2
 118 1049 118 1049 117 1065 c 0,3,4
 117 1082 117 1082 116 1094 c 128,-1,5
 115 1106 115 1106 115 1114 c 0,6,7
 115 1309 115 1309 161.5 1497.5 c 128,-1,8
 208 1686 208 1686 299 1866 c 0,9,10
 482 2226 482 2226 891 2485 c 0,11,12
 1095 2614 1095 2614 1354.5 2697 c 128,-1,13
 1614 2780 1614 2780 1927 2815 c 1,14,-1
 1927 2705 l 1,15,16
 1582 2647 1582 2647 1351 2472 c 0,17,18
 1118 2294 1118 2294 999 2077 c 0,19,20
 879 1861 879 1861 840 1653 c 1,21,22
 1019 1726 1019 1726 1199 1726 c 0,23,24
 1413 1726 1413 1726 1585 1626 c 1,25,26
 1756 1524 1756 1524 1854 1337 c 128,-1,27
 1952 1150 1952 1150 1952 908 c 0,28,29
 1952 788 1952 788 1928.5 672.5 c 128,-1,30
 1905 557 1905 557 1858 448 c 0,31,32
 1811 338 1811 338 1737 247 c 128,-1,33
 1663 156 1663 156 1564 84 c 1,34,35
 1464 14 1464 14 1341 -23.5 c 128,-1,36
 1218 -61 1218 -61 1072 -64 c 1,37,38
 825 -64 825 -64 614 57 c 1,39,40
 404 180 404 180 271 424 c 0,41,42
 139 668 139 668 119 1015 c 0,0,1
770 698 m 0,43,44
 772 527 772 527 787 392 c 0,45,46
 795 324 795 324 815.5 261 c 128,-1,47
 836 198 836 198 869 143 c 0,48,49
 936 31 936 31 1077 31 c 1,50,51
 1233 43 1233 43 1272 178 c 0,52,53
 1291 245 1291 245 1301.5 332.5 c 128,-1,54
 1312 420 1312 420 1312 527 c 2,55,-1
 1312 843 l 1,56,57
 1303 1144 1303 1144 1237 1339 c 0,58,59
 1171 1535 1171 1535 947 1535 c 0,60,61
 827 1535 827 1535 798 1484 c 1,62,63
 770 1335 770 1335 754 1022 c 1,64,65
 762 911 762 911 766 829.5 c 128,-1,66
 770 748 770 748 770 698 c 0,43,44
EndSplineSet
EndChar
StartChar: seven
Encoding: 55 55 24
Width: 2048
GlyphClass: 2
Flags: W
Fore
596 0 m 1,0,-1
 1415 2238 l 1,1,-1
 527 2238 l 2,2,3
 425 2238 425 2238 355 2197 c 1,4,5
 321 2175 321 2175 293.5 2150 c 128,-1,6
 266 2125 266 2125 248 2097 c 0,7,8
 230 2068 230 2068 216 2038.5 c 128,-1,9
 202 2009 202 2009 192 1980 c 0,10,11
 183 1951 183 1951 176.5 1929.5 c 128,-1,12
 170 1908 170 1908 166 1894 c 1,13,-1
 64 1894 l 1,14,-1
 240 2782 l 1,15,-1
 1952 2782 l 1,16,-1
 989 0 l 1,17,-1
 596 0 l 1,0,-1
EndSplineSet
EndChar
StartChar: eight
Encoding: 56 56 25
Width: 2048
GlyphClass: 2
Flags: W
Fore
740 2131 m 1,0,1
 783 2034 783 2034 924 1914 c 0,2,3
 995 1853 995 1853 1072 1803.5 c 128,-1,4
 1149 1754 1149 1754 1230 1717 c 1,5,6
 1392 1887 1392 1887 1392 2190 c 0,7,8
 1392 2284 1392 2284 1373 2366.5 c 128,-1,9
 1354 2449 1354 2449 1316 2517 c 0,10,11
 1278 2587 1278 2587 1224 2630 c 128,-1,12
 1170 2673 1170 2673 1101 2687 c 1,13,14
 915 2687 915 2687 802 2600 c 0,15,16
 688 2512 688 2512 682 2349 c 1,17,18
 689 2295 689 2295 703.5 2240.5 c 128,-1,19
 718 2186 718 2186 740 2131 c 1,0,1
608 561 m 1,20,21
 622 340 622 340 723 203 c 0,22,23
 773 134 773 134 839 99 c 128,-1,24
 905 64 905 64 984 63 c 0,25,26
 1353 63 1353 63 1376 469 c 1,27,28
 1376 638 1376 638 1328 754 c 1,29,30
 1305 814 1305 814 1263 871 c 128,-1,31
 1221 928 1221 928 1163 981 c 1,32,33
 1047 1090 1047 1090 821 1235 c 1,34,35
 764 1160 764 1160 723 1085 c 128,-1,36
 682 1010 682 1010 658 936 c 0,37,38
 608 786 608 786 608 561 c 1,20,21
121 453 m 1,39,40
 118 471 118 471 114.5 493 c 128,-1,41
 111 515 111 515 108 539 c 128,-1,42
 105 563 105 563 101.5 582 c 128,-1,43
 98 601 98 601 96 614 c 1,44,45
 104 866 104 866 275 1060 c 0,46,47
 361 1157 361 1157 475 1220.5 c 128,-1,48
 589 1284 589 1284 731 1313 c 1,49,50
 171 1624 171 1624 154 2093 c 1,51,52
 156 2120 156 2120 165 2176.5 c 128,-1,53
 174 2233 174 2233 187 2317 c 1,54,55
 204 2376 204 2376 234 2429 c 128,-1,56
 264 2482 264 2482 306 2526 c 0,57,58
 348 2572 348 2572 401 2611.5 c 128,-1,59
 454 2651 454 2651 516 2682 c 1,60,61
 578 2715 578 2715 646 2739.5 c 128,-1,62
 714 2764 714 2764 787 2780 c 0,63,64
 861 2797 861 2797 934.5 2806 c 128,-1,65
 1008 2815 1008 2815 1081 2815 c 0,66,67
 1181 2815 1181 2815 1276 2800 c 128,-1,68
 1371 2785 1371 2785 1461 2757 c 0,69,70
 1551 2728 1551 2728 1625 2684 c 128,-1,71
 1699 2640 1699 2640 1757 2583 c 0,72,73
 1874 2466 1874 2466 1893 2299 c 0,74,75
 1897 2271 1897 2271 1899 2249 c 128,-1,76
 1901 2227 1901 2227 1901 2213 c 0,77,78
 1901 1984 1901 1984 1741 1855 c 0,79,80
 1661 1791 1661 1791 1559.5 1737 c 128,-1,81
 1458 1683 1458 1683 1335 1642 c 1,82,83
 1606 1493 1606 1493 1778 1257 c 0,84,85
 1865 1138 1865 1138 1908.5 1008 c 128,-1,86
 1952 878 1952 878 1952 739 c 0,87,88
 1952 487 1952 487 1814 305 c 0,89,90
 1676 121 1676 121 1455 27 c 1,91,92
 1232 -64 1232 -64 983 -64 c 0,93,94
 791 -64 791 -64 610 -10 c 0,95,96
 520 16 520 16 442 59 c 128,-1,97
 364 102 364 102 299 161 c 0,98,99
 235 219 235 219 190 292.5 c 128,-1,100
 145 366 145 366 121 453 c 1,39,40
EndSplineSet
EndChar
StartChar: nine
Encoding: 57 57 26
Width: 2048
GlyphClass: 2
Flags: W
Fore
1920 1733 m 1,0,1
 1920 1573 1920 1573 1895.5 1418.5 c 128,-1,2
 1871 1264 1871 1264 1822 1117 c 0,3,4
 1774 968 1774 968 1695.5 831.5 c 128,-1,5
 1617 695 1617 695 1509 571 c 0,6,7
 1402 446 1402 446 1261.5 342 c 128,-1,8
 1121 238 1121 238 948 156 c 0,9,10
 601 -10 601 -10 121 -64 c 1,11,-1
 121 41 l 1,12,13
 292 73 292 73 435 134 c 128,-1,14
 578 195 578 195 693 285 c 0,15,16
 809 374 809 374 897 473.5 c 128,-1,17
 985 573 985 573 1044 682 c 0,18,19
 1164 900 1164 900 1203 1108 c 1,20,21
 1116 1081 1116 1081 1026 1063.5 c 128,-1,22
 936 1046 936 1046 844 1039 c 1,23,24
 736 1041 736 1041 639.5 1067.5 c 128,-1,25
 543 1094 543 1094 458 1144 c 128,-1,26
 373 1194 373 1194 306.5 1265.5 c 128,-1,27
 240 1337 240 1337 192 1430 c 0,28,29
 96 1616 96 1616 96 1860 c 0,30,31
 96 1977 96 1977 120 2090.5 c 128,-1,32
 144 2204 144 2204 190 2311 c 0,33,34
 285 2528 285 2528 481 2669 c 1,35,36
 679 2809 679 2809 968 2815 c 1,37,38
 1093 2815 1093 2815 1208 2784 c 128,-1,39
 1323 2753 1323 2753 1428 2693 c 0,40,41
 1640 2569 1640 2569 1769 2327 c 0,42,43
 1901 2083 1901 2083 1920 1733 c 1,0,1
1272 2059 m 0,44,45
 1270 2191 1270 2191 1254.5 2307 c 128,-1,46
 1239 2423 1239 2423 1211 2521 c 0,47,48
 1154 2719 1154 2719 960 2719 c 1,49,50
 866 2712 866 2712 818 2662 c 0,51,52
 769 2610 769 2610 751 2531 c 0,53,54
 742 2492 742 2492 737 2448.5 c 128,-1,55
 732 2405 732 2405 731 2358 c 0,56,57
 731 2312 731 2312 729.5 2268.5 c 128,-1,58
 728 2225 728 2225 728 2186 c 1,59,60
 732 2139 732 2139 734 2071 c 128,-1,61
 736 2003 736 2003 736 1914 c 1,62,63
 739 1817 739 1817 745.5 1733 c 128,-1,64
 752 1649 752 1649 762 1579 c 0,65,66
 784 1439 784 1439 846 1341 c 0,67,68
 909 1242 909 1242 1032 1232 c 1,69,70
 1048 1232 1048 1232 1060.5 1229.5 c 128,-1,71
 1073 1227 1073 1227 1081 1223 c 1,72,73
 1208 1240 1208 1240 1244 1285 c 1,74,75
 1262 1394 1262 1394 1271 1503.5 c 128,-1,76
 1280 1613 1280 1613 1280 1721 c 0,77,78
 1280 1752 1280 1752 1279 1796 c 128,-1,79
 1278 1840 1278 1840 1276 1896 c 0,80,81
 1275 1954 1275 1954 1273.5 1994.5 c 128,-1,82
 1272 2035 1272 2035 1272 2059 c 0,44,45
EndSplineSet
EndChar
StartChar: colon
Encoding: 58 58 27
Width: 1360
GlyphClass: 2
Flags: W
Fore
668 1951 m 0,0,1
 812 1951 812 1951 918 1848 c 1,2,3
 1024 1743 1024 1743 1024 1603 c 0,4,5
 1024 1457 1024 1457 919 1352 c 0,6,7
 814 1246 814 1246 668 1246 c 0,8,9
 523 1246 523 1246 422 1350 c 0,10,11
 320 1456 320 1456 320 1603 c 0,12,13
 320 1745 320 1745 421 1848 c 1,14,15
 524 1951 524 1951 668 1951 c 0,0,1
668 639 m 0,16,17
 812 639 812 639 914 535 c 128,-1,18
 1016 431 1016 431 1016 290 c 0,19,20
 1016 143 1016 143 914 40 c 0,21,22
 812 -64 812 -64 668 -64 c 0,23,24
 523 -64 523 -64 422 39 c 0,25,26
 320 144 320 144 320 290 c 0,27,28
 320 430 320 430 421 535 c 0,29,30
 523 639 523 639 668 639 c 0,16,17
EndSplineSet
EndChar
StartChar: semicolon
Encoding: 59 59 28
Width: 1360
GlyphClass: 2
Flags: W
Fore
670 1951 m 0,0,1
 817 1951 817 1951 922 1848 c 0,2,3
 1029 1744 1029 1744 1029 1603 c 0,4,5
 1029 1458 1029 1458 923 1352 c 0,6,7
 818 1246 818 1246 670 1246 c 0,8,9
 526 1246 526 1246 423 1350 c 1,10,11
 320 1457 320 1457 320 1603 c 0,12,13
 320 1673 320 1673 346 1735 c 128,-1,14
 372 1797 372 1797 422 1848 c 0,15,16
 525 1951 525 1951 670 1951 c 0,0,1
320 365 m 1,17,18
 334 496 334 496 437 564 c 0,19,20
 539 630 539 630 696 630 c 1,21,22
 770 627 770 627 836 598.5 c 128,-1,23
 902 570 902 570 957 518 c 0,24,25
 1070 411 1070 411 1088 224 c 1,26,27
 1088 -53 1088 -53 935 -296 c 0,28,29
 859 -418 859 -418 723.5 -528 c 128,-1,30
 588 -638 588 -638 395 -737 c 1,31,-1
 344 -645 l 1,32,33
 555 -495 555 -495 676 -369 c 1,34,35
 799 -243 799 -243 799 -88 c 0,36,37
 799 -51 799 -51 788 -39 c 0,38,39
 777 -25 777 -25 747 -16 c 0,40,41
 732 -12 732 -12 721 -7.5 c 128,-1,42
 710 -3 710 -3 704 0 c 1,43,44
 678 -32 678 -32 628 -32 c 1,45,46
 320 -13 320 -13 320 365 c 1,17,18
EndSplineSet
EndChar
StartChar: less
Encoding: 60 60 29
Width: 2335
GlyphClass: 2
Flags: W
Fore
2208 328 m 1,0,-1
 2208 -32 l 1,1,-1
 128 879 l 1,2,-1
 128 1191 l 1,3,-1
 2208 2104 l 1,4,-1
 2208 1744 l 1,5,-1
 595 1039 l 1,6,-1
 2208 328 l 1,0,-1
EndSplineSet
EndChar
StartChar: equal
Encoding: 61 61 30
Width: 2335
GlyphClass: 2
Flags: W
Fore
2208 1631 m 1,0,-1
 2208 1279 l 1,1,-1
 128 1279 l 1,2,-1
 128 1631 l 1,3,-1
 2208 1631 l 1,0,-1
2208 799 m 1,4,-1
 2208 446 l 1,5,-1
 128 446 l 1,6,-1
 128 799 l 1,7,-1
 2208 799 l 1,4,-1
EndSplineSet
EndChar
StartChar: greater
Encoding: 62 62 31
Width: 2335
GlyphClass: 2
Flags: W
Fore
128 328 m 1,0,-1
 1745 1039 l 1,1,-1
 128 1744 l 1,2,-1
 128 2104 l 1,3,-1
 2208 1191 l 1,4,-1
 2208 879 l 1,5,-1
 128 -32 l 1,6,-1
 128 328 l 1,0,-1
EndSplineSet
EndChar
StartChar: question
Encoding: 63 63 32
Width: 2048
GlyphClass: 2
Flags: W
Fore
896 942 m 1,0,1
 896 1044 896 1044 888 1094 c 1,2,3
 892 1157 892 1157 903.5 1214.5 c 128,-1,4
 915 1272 915 1272 934 1323 c 128,-1,5
 953 1374 953 1374 983.5 1443 c 128,-1,6
 1014 1512 1014 1512 1055 1599 c 0,7,8
 1097 1685 1097 1685 1127.5 1756 c 128,-1,9
 1158 1827 1158 1827 1177 1883 c 0,10,11
 1216 1993 1216 1993 1216 2122 c 0,12,13
 1216 2335 1216 2335 1126 2494 c 0,14,15
 1081 2574 1081 2574 1007 2614.5 c 128,-1,16
 933 2655 933 2655 833 2655 c 0,17,18
 739 2655 739 2655 677.5 2615 c 128,-1,19
 616 2575 616 2575 591 2496 c 1,20,21
 596 2470 596 2470 617.5 2432.5 c 128,-1,22
 639 2395 639 2395 676 2345 c 0,23,24
 750 2246 750 2246 750 2172 c 0,25,26
 750 2057 750 2057 682 2003 c 0,27,28
 649 1976 649 1976 600.5 1955 c 128,-1,29
 552 1934 552 1934 490 1919 c 1,30,31
 219 1933 219 1933 219 2310 c 1,32,33
 229 2401 229 2401 302 2517 c 0,34,35
 338 2574 338 2574 400 2626.5 c 128,-1,36
 462 2679 462 2679 550 2723 c 0,37,38
 638 2768 638 2768 756 2791.5 c 128,-1,39
 874 2815 874 2815 1021 2815 c 0,40,41
 1126 2815 1126 2815 1224.5 2795.5 c 128,-1,42
 1323 2776 1323 2776 1414 2738 c 0,43,44
 1505 2699 1505 2699 1579 2642.5 c 128,-1,45
 1653 2586 1653 2586 1708 2512 c 0,46,47
 1764 2439 1764 2439 1793.5 2352.5 c 128,-1,48
 1823 2266 1823 2266 1824 2168 c 0,49,50
 1824 2001 1824 2001 1770 1880 c 0,51,52
 1743 1821 1743 1821 1708.5 1770.5 c 128,-1,53
 1674 1720 1674 1720 1633 1681 c 0,54,55
 1593 1642 1593 1642 1546 1605.5 c 128,-1,56
 1499 1569 1499 1569 1447 1536 c 0,57,58
 1396 1504 1396 1504 1342 1470 c 128,-1,59
 1288 1436 1288 1436 1232 1402 c 0,60,61
 1188 1374 1188 1374 1155.5 1347 c 128,-1,62
 1123 1320 1123 1320 1102 1296 c 0,63,64
 1060 1245 1060 1245 1043 1164 c 0,65,66
 1035 1124 1035 1124 1030.5 1068 c 128,-1,67
 1026 1012 1026 1012 1026 942 c 1,68,-1
 896 942 l 1,0,1
960 639 m 0,69,70
 1107 639 1107 639 1209 535 c 0,71,72
 1260 483 1260 483 1286 421.5 c 128,-1,73
 1312 360 1312 360 1312 290 c 0,74,75
 1312 217 1312 217 1286 154 c 128,-1,76
 1260 91 1260 91 1209 40 c 0,77,78
 1107 -64 1107 -64 960 -64 c 0,79,80
 814 -64 814 -64 711 39 c 1,81,82
 608 145 608 145 608 290 c 0,83,84
 608 431 608 431 710 535 c 128,-1,85
 812 639 812 639 960 639 c 0,69,70
EndSplineSet
EndChar
StartChar: at
Encoding: 64 64 33
Width: 3408
GlyphClass: 2
Flags: W
Fore
1702 1249 m 0,0,1
 1803 1249 1803 1249 1899.5 1242 c 128,-1,2
 1996 1235 1996 1235 2089 1220 c 1,3,4
 2140 1238 2140 1238 2186 1263 c 128,-1,5
 2232 1288 2232 1288 2270.5 1317.5 c 128,-1,6
 2309 1347 2309 1347 2338 1378 c 128,-1,7
 2367 1409 2367 1409 2386 1439 c 0,8,9
 2430 1511 2430 1511 2446.5 1582 c 128,-1,10
 2463 1653 2463 1653 2463 1720 c 0,11,12
 2463 1767 2463 1767 2451.5 1819 c 128,-1,13
 2440 1871 2440 1871 2415.5 1924.5 c 128,-1,14
 2391 1978 2391 1978 2352.5 2029 c 128,-1,15
 2314 2080 2314 2080 2260 2124 c 0,16,17
 2199 2173 2199 2173 2131.5 2226.5 c 128,-1,18
 2064 2280 2064 2280 1992.5 2340 c 128,-1,19
 1921 2400 1921 2400 1847.5 2467.5 c 128,-1,20
 1774 2535 1774 2535 1702 2612 c 1,21,22
 1630 2535 1630 2535 1557 2467.5 c 128,-1,23
 1484 2400 1484 2400 1412.5 2340 c 128,-1,24
 1341 2280 1341 2280 1273.5 2226.5 c 128,-1,25
 1206 2173 1206 2173 1145 2124 c 0,26,27
 1091 2080 1091 2080 1052.5 2029 c 128,-1,28
 1014 1978 1014 1978 989.5 1924.5 c 128,-1,29
 965 1871 965 1871 953.5 1819 c 128,-1,30
 942 1767 942 1767 942 1720 c 0,31,32
 942 1653 942 1653 958.5 1582 c 128,-1,33
 975 1511 975 1511 1019 1439 c 0,34,35
 1037 1409 1037 1409 1066.5 1378 c 128,-1,36
 1096 1347 1096 1347 1134 1317.5 c 128,-1,37
 1172 1288 1172 1288 1218 1263 c 128,-1,38
 1264 1238 1264 1238 1316 1220 c 1,39,40
 1408 1235 1408 1235 1505 1242 c 128,-1,41
 1602 1249 1602 1249 1702 1249 c 0,0,1
2234 683 m 1,42,-1
 2072 1085 l 1,43,44
 1894 1114 1894 1114 1702 1114 c 0,45,46
 1606 1114 1606 1114 1513 1106.5 c 128,-1,47
 1420 1099 1420 1099 1334 1086 c 1,48,-1
 1167 683 l 1,49,50
 1291 652 1291 652 1425.5 629 c 128,-1,51
 1560 606 1560 606 1702 606 c 0,52,53
 1845 606 1845 606 1979 629 c 128,-1,54
 2113 652 2113 652 2234 683 c 1,42,-1
1702 2784 m 0,55,56
 1731 2784 1731 2784 1757 2794.5 c 128,-1,57
 1783 2805 1783 2805 1802 2823.5 c 128,-1,58
 1821 2842 1821 2842 1832.5 2867 c 128,-1,59
 1844 2892 1844 2892 1844 2920 c 128,-1,60
 1844 2948 1844 2948 1832.5 2973 c 128,-1,61
 1821 2998 1821 2998 1802 3016.5 c 128,-1,62
 1783 3035 1783 3035 1757 3045.5 c 128,-1,63
 1731 3056 1731 3056 1702 3056 c 128,-1,64
 1673 3056 1673 3056 1647.5 3045.5 c 128,-1,65
 1622 3035 1622 3035 1602.5 3016.5 c 128,-1,66
 1583 2998 1583 2998 1572 2973 c 128,-1,67
 1561 2948 1561 2948 1561 2920 c 128,-1,68
 1561 2892 1561 2892 1572 2867 c 128,-1,69
 1583 2842 1583 2842 1602.5 2823.5 c 128,-1,70
 1622 2805 1622 2805 1647.5 2794.5 c 128,-1,71
 1673 2784 1673 2784 1702 2784 c 0,55,56
1621 1751 m 1,72,-1
 1427 1753 l 2,73,74
 1396 1753 1396 1753 1373 1776 c 128,-1,75
 1350 1799 1350 1799 1350 1831 c 2,76,-1
 1350 1832 l 2,77,78
 1350 1864 1350 1864 1373 1887 c 128,-1,79
 1396 1910 1396 1910 1427 1910 c 2,80,-1
 1621 1909 l 1,81,-1
 1620 2107 l 1,82,83
 1620 2140 1620 2140 1644.5 2164 c 128,-1,84
 1669 2188 1669 2188 1702 2188 c 2,85,-1
 1703 2188 l 2,86,87
 1737 2188 1737 2188 1761 2164.5 c 128,-1,88
 1785 2141 1785 2141 1785 2107 c 2,89,-1
 1785 1909 l 1,90,-1
 1981 1910 l 2,91,92
 2012 1910 2012 1910 2035.5 1887 c 128,-1,93
 2059 1864 2059 1864 2059 1832 c 2,94,-1
 2059 1831 l 2,95,96
 2059 1799 2059 1799 2035.5 1776 c 128,-1,97
 2012 1753 2012 1753 1981 1753 c 2,98,-1
 1785 1751 l 1,99,-1
 1785 1562 l 2,100,101
 1785 1529 1785 1529 1761 1505 c 128,-1,102
 1737 1481 1737 1481 1703 1481 c 2,103,-1
 1702 1481 l 2,104,105
 1669 1481 1669 1481 1644.5 1505 c 128,-1,106
 1620 1529 1620 1529 1620 1562 c 1,107,-1
 1621 1751 l 1,72,-1
1602 495 m 1,108,-1
 1545 495 l 1,109,110
 1500 415 1500 415 1449 354.5 c 128,-1,111
 1398 294 1398 294 1351 270 c 0,112,113
 1309 248 1309 248 1256.5 227 c 128,-1,114
 1204 206 1204 206 1135 206 c 0,115,116
 1125 206 1125 206 1076.5 214.5 c 128,-1,117
 1028 223 1028 223 943 238 c 128,-1,118
 858 253 858 253 807.5 268.5 c 128,-1,119
 757 284 757 284 728 288 c 0,120,121
 673 295 673 295 612 291.5 c 128,-1,122
 551 288 551 288 488 276 c 0,123,124
 464 271 464 271 446 266.5 c 128,-1,125
 428 262 428 262 411 256 c 128,-1,126
 394 250 394 250 375.5 241 c 128,-1,127
 357 232 357 232 333 218 c 1,128,-1
 419 61 l 1,129,130
 430 73 430 73 445 80.5 c 128,-1,131
 460 88 460 88 476 92.5 c 128,-1,132
 492 97 492 97 509 100.5 c 128,-1,133
 526 104 526 104 540 107 c 0,134,135
 576 115 576 115 612.5 116.5 c 128,-1,136
 649 118 649 118 684 111 c 0,137,138
 708 106 708 106 776.5 97.5 c 128,-1,139
 845 89 845 89 957 68 c 1,140,141
 1022 58 1022 58 1068 52 c 128,-1,142
 1114 46 1114 46 1141 46 c 0,143,144
 1237 46 1237 46 1309.5 66.5 c 128,-1,145
 1382 87 1382 87 1431 126 c 0,146,147
 1462 152 1462 152 1492.5 188.5 c 128,-1,148
 1523 225 1523 225 1547.5 271.5 c 128,-1,149
 1572 318 1572 318 1587 374 c 128,-1,150
 1602 430 1602 430 1602 495 c 1,108,-1
1987 492 m 1,151,152
 2003 461 2003 461 2025 438.5 c 128,-1,153
 2047 416 2047 416 2069.5 400 c 128,-1,154
 2092 384 2092 384 2111.5 374 c 128,-1,155
 2131 364 2131 364 2142 358 c 0,156,157
 2164 346 2164 346 2205 340 c 128,-1,158
 2246 334 2246 334 2304 334 c 1,159,160
 2522 366 l 128,-1,161
 2740 398 l 1,162,163
 2797 393 2797 393 2851.5 395 c 128,-1,164
 2906 397 2906 397 2962 392 c 0,165,166
 2998 389 2998 389 3027 385 c 128,-1,167
 3056 381 3056 381 3084 374 c 128,-1,168
 3112 367 3112 367 3142 355.5 c 128,-1,169
 3172 344 3172 344 3211 326 c 0,170,171
 3229 317 3229 317 3245 309.5 c 128,-1,172
 3261 302 3261 302 3276.5 292.5 c 128,-1,173
 3292 283 3292 283 3307.5 269.5 c 128,-1,174
 3323 256 3323 256 3341 236 c 1,175,-1
 3146 -81 l 1,176,177
 3128 -63 3128 -63 3100.5 -49.5 c 128,-1,178
 3073 -36 3073 -36 3044 -26.5 c 128,-1,179
 3015 -17 3015 -17 2987 -12 c 128,-1,180
 2959 -7 2959 -7 2939 -7 c 0,181,182
 2914 -7 2914 -7 2887 -3 c 128,-1,183
 2860 1 2860 1 2826 -3 c 2,184,-1
 2264 -81 l 2,185,186
 2205 -89 2205 -89 2148.5 -84 c 128,-1,187
 2092 -79 2092 -79 2042 -64 c 128,-1,188
 1992 -49 1992 -49 1949 -26 c 128,-1,189
 1906 -3 1906 -3 1874 24 c 0,190,191
 1841 51 1841 51 1815.5 72 c 128,-1,192
 1790 93 1790 93 1769.5 118 c 128,-1,193
 1749 143 1749 143 1732.5 178.5 c 128,-1,194
 1716 214 1716 214 1703 270 c 1,195,196
 1689 214 1689 214 1672.5 177 c 128,-1,197
 1656 140 1656 140 1635.5 113 c 128,-1,198
 1615 86 1615 86 1588.5 65.5 c 128,-1,199
 1562 45 1562 45 1529 20 c 1,200,201
 1494 -4 1494 -4 1451.5 -26 c 128,-1,202
 1409 -48 1409 -48 1360.5 -63 c 128,-1,203
 1312 -78 1312 -78 1256.5 -83.5 c 128,-1,204
 1201 -89 1201 -89 1141 -81 c 2,205,-1
 580 -3 l 2,206,207
 546 1 546 1 519 -3 c 128,-1,208
 492 -7 492 -7 467 -7 c 0,209,210
 446 -7 446 -7 418 -12 c 128,-1,211
 390 -17 390 -17 361 -26.5 c 128,-1,212
 332 -36 332 -36 305 -49.5 c 128,-1,213
 278 -63 278 -63 260 -81 c 1,214,-1
 64 236 l 1,215,216
 83 256 83 256 98.5 269.5 c 128,-1,217
 114 283 114 283 129 292.5 c 128,-1,218
 144 302 144 302 160 309.5 c 128,-1,219
 176 317 176 317 195 326 c 0,220,221
 233 344 233 344 263.5 355.5 c 128,-1,222
 294 367 294 367 322 374 c 128,-1,223
 350 381 350 381 379 385 c 128,-1,224
 408 389 408 389 443 392 c 0,225,226
 500 397 500 397 554.5 395 c 128,-1,227
 609 393 609 393 665 398 c 1,228,229
 883 366 l 128,-1,230
 1101 334 l 1,231,232
 1160 334 1160 334 1201 340 c 128,-1,233
 1242 346 1242 346 1263 358 c 0,234,235
 1274 364 1274 364 1294 374 c 128,-1,236
 1314 384 1314 384 1336.5 400 c 128,-1,237
 1359 416 1359 416 1380.5 438.5 c 128,-1,238
 1402 461 1402 461 1418 492 c 1,239,240
 1350 498 1350 498 1281 509.5 c 128,-1,241
 1212 521 1212 521 1147 535.5 c 128,-1,242
 1082 550 1082 550 1022.5 566 c 128,-1,243
 963 582 963 582 913 598 c 1,244,-1
 1153 1114 l 1,245,246
 1064 1159 1064 1159 1004 1194 c 128,-1,247
 944 1229 944 1229 903 1259.5 c 128,-1,248
 862 1290 862 1290 835.5 1319.5 c 128,-1,249
 809 1349 809 1349 787 1385 c 0,250,251
 758 1432 758 1432 740 1477 c 128,-1,252
 722 1522 722 1522 712 1564 c 128,-1,253
 702 1606 702 1606 699 1644.5 c 128,-1,254
 696 1683 696 1683 697 1717 c 0,255,256
 699 1777 699 1777 713.5 1845 c 128,-1,257
 728 1913 728 1913 762.5 1982 c 128,-1,258
 797 2051 797 2051 855 2117.5 c 128,-1,259
 913 2184 913 2184 1001 2241 c 0,260,261
 1075 2290 1075 2290 1146 2339 c 128,-1,262
 1217 2388 1217 2388 1286.5 2441 c 128,-1,263
 1356 2494 1356 2494 1424 2552.5 c 128,-1,264
 1492 2611 1492 2611 1559 2678 c 1,265,266
 1522 2695 1522 2695 1490.5 2720.5 c 128,-1,267
 1459 2746 1459 2746 1436.5 2777 c 128,-1,268
 1414 2808 1414 2808 1401.5 2844.5 c 128,-1,269
 1389 2881 1389 2881 1389 2920 c 0,270,271
 1389 2976 1389 2976 1413.5 3025.5 c 128,-1,272
 1438 3075 1438 3075 1480.5 3112 c 128,-1,273
 1523 3149 1523 3149 1580.5 3170.5 c 128,-1,274
 1638 3192 1638 3192 1702 3192 c 0,275,276
 1767 3192 1767 3192 1824 3170.5 c 128,-1,277
 1881 3149 1881 3149 1923.5 3112 c 128,-1,278
 1966 3075 1966 3075 1991 3025.5 c 128,-1,279
 2016 2976 2016 2976 2016 2920 c 0,280,281
 2016 2881 2016 2881 2003.5 2844.5 c 128,-1,282
 1991 2808 1991 2808 1968.5 2777 c 128,-1,283
 1946 2746 1946 2746 1914.5 2720.5 c 128,-1,284
 1883 2695 1883 2695 1845 2678 c 1,285,286
 1913 2611 1913 2611 1981 2552.5 c 128,-1,287
 2049 2494 2049 2494 2118.5 2441 c 128,-1,288
 2188 2388 2188 2388 2259 2339 c 128,-1,289
 2330 2290 2330 2290 2404 2241 c 0,290,291
 2492 2184 2492 2184 2550 2117.5 c 128,-1,292
 2608 2051 2608 2051 2642.5 1982 c 128,-1,293
 2677 1913 2677 1913 2691.5 1845 c 128,-1,294
 2706 1777 2706 1777 2708 1717 c 0,295,296
 2709 1683 2709 1683 2706 1644.5 c 128,-1,297
 2703 1606 2703 1606 2693 1564 c 128,-1,298
 2683 1522 2683 1522 2665 1477 c 128,-1,299
 2647 1432 2647 1432 2618 1385 c 0,300,301
 2596 1349 2596 1349 2569.5 1319.5 c 128,-1,302
 2543 1290 2543 1290 2502 1259.5 c 128,-1,303
 2461 1229 2461 1229 2401 1194 c 128,-1,304
 2341 1159 2341 1159 2252 1114 c 1,305,-1
 2492 598 l 1,306,307
 2442 582 2442 582 2383 566 c 128,-1,308
 2324 550 2324 550 2258.5 535.5 c 128,-1,309
 2193 521 2193 521 2124.5 509.5 c 128,-1,310
 2056 498 2056 498 1987 492 c 1,151,152
1804 495 m 1,311,312
 1804 430 1804 430 1819.5 374 c 128,-1,313
 1835 318 1835 318 1859 271.5 c 128,-1,314
 1883 225 1883 225 1913.5 188.5 c 128,-1,315
 1944 152 1944 152 1975 126 c 0,316,317
 2024 87 2024 87 2096.5 66.5 c 128,-1,318
 2169 46 2169 46 2265 46 c 0,319,320
 2292 46 2292 46 2338 52 c 128,-1,321
 2384 58 2384 58 2449 68 c 1,322,323
 2560 89 2560 89 2629 97.5 c 128,-1,324
 2698 106 2698 106 2721 111 c 0,325,326
 2757 118 2757 118 2793 116.5 c 128,-1,327
 2829 115 2829 115 2865 107 c 0,328,329
 2880 104 2880 104 2896.5 100.5 c 128,-1,330
 2913 97 2913 97 2929.5 92.5 c 128,-1,331
 2946 88 2946 88 2961 80.5 c 128,-1,332
 2976 73 2976 73 2987 61 c 1,333,-1
 3073 218 l 1,334,335
 3049 232 3049 232 3030.5 241 c 128,-1,336
 3012 250 3012 250 2995 256 c 128,-1,337
 2978 262 2978 262 2959.5 266.5 c 128,-1,338
 2941 271 2941 271 2918 276 c 0,339,340
 2855 288 2855 288 2794 291.5 c 128,-1,341
 2733 295 2733 295 2678 288 c 0,342,343
 2648 284 2648 284 2598 268.5 c 128,-1,344
 2548 253 2548 253 2463 238 c 128,-1,345
 2378 223 2378 223 2329.5 214.5 c 128,-1,346
 2281 206 2281 206 2270 206 c 0,347,348
 2202 206 2202 206 2149.5 227 c 128,-1,349
 2097 248 2097 248 2054 270 c 0,350,351
 2008 294 2008 294 1957 354.5 c 128,-1,352
 1906 415 1906 415 1862 495 c 1,353,-1
 1804 495 l 1,311,312
EndSplineSet
EndChar
StartChar: C
Encoding: 67 67 34
Width: 3863
GlyphClass: 2
Flags: W
Fore
3492 2454 m 0,0,1
 3435 2454 3435 2454 3385.5 2475.5 c 128,-1,2
 3336 2497 3336 2497 3299 2534 c 128,-1,3
 3262 2571 3262 2571 3240.5 2620.5 c 128,-1,4
 3219 2670 3219 2670 3219 2726 c 128,-1,5
 3219 2782 3219 2782 3240.5 2832 c 128,-1,6
 3262 2882 3262 2882 3299 2919 c 128,-1,7
 3336 2956 3336 2956 3385.5 2977.5 c 128,-1,8
 3435 2999 3435 2999 3492 2999 c 0,9,10
 3548 2999 3548 2999 3597.5 2977.5 c 128,-1,11
 3647 2956 3647 2956 3684.5 2919 c 128,-1,12
 3722 2882 3722 2882 3743.5 2832 c 128,-1,13
 3765 2782 3765 2782 3765 2726 c 128,-1,14
 3765 2670 3765 2670 3743.5 2620.5 c 128,-1,15
 3722 2571 3722 2571 3684.5 2534 c 128,-1,16
 3647 2497 3647 2497 3597.5 2475.5 c 128,-1,17
 3548 2454 3548 2454 3492 2454 c 0,0,1
3492 2594 m 0,18,19
 3519 2594 3519 2594 3543.5 2604 c 128,-1,20
 3568 2614 3568 2614 3586 2632.5 c 128,-1,21
 3604 2651 3604 2651 3614.5 2675 c 128,-1,22
 3625 2699 3625 2699 3625 2726 c 0,23,24
 3625 2754 3625 2754 3614.5 2778 c 128,-1,25
 3604 2802 3604 2802 3586 2820 c 128,-1,26
 3568 2838 3568 2838 3543.5 2848.5 c 128,-1,27
 3519 2859 3519 2859 3492 2859 c 0,28,29
 3464 2859 3464 2859 3440 2848.5 c 128,-1,30
 3416 2838 3416 2838 3398 2820 c 128,-1,31
 3380 2802 3380 2802 3369.5 2778 c 128,-1,32
 3359 2754 3359 2754 3359 2726 c 0,33,34
 3359 2699 3359 2699 3369.5 2675 c 128,-1,35
 3380 2651 3380 2651 3398 2632.5 c 128,-1,36
 3416 2614 3416 2614 3440 2604 c 128,-1,37
 3464 2594 3464 2594 3492 2594 c 0,18,19
338 2594 m 0,38,39
 365 2594 365 2594 389 2604 c 128,-1,40
 413 2614 413 2614 431 2632.5 c 128,-1,41
 449 2651 449 2651 459.5 2675 c 128,-1,42
 470 2699 470 2699 470 2726 c 0,43,44
 470 2754 470 2754 459.5 2778 c 128,-1,45
 449 2802 449 2802 431 2820 c 128,-1,46
 413 2838 413 2838 389 2848.5 c 128,-1,47
 365 2859 365 2859 338 2859 c 0,48,49
 310 2859 310 2859 285.5 2848.5 c 128,-1,50
 261 2838 261 2838 243 2820 c 128,-1,51
 225 2802 225 2802 214.5 2778 c 128,-1,52
 204 2754 204 2754 204 2726 c 0,53,54
 204 2699 204 2699 214.5 2675 c 128,-1,55
 225 2651 225 2651 243 2632.5 c 128,-1,56
 261 2614 261 2614 285.5 2604 c 128,-1,57
 310 2594 310 2594 338 2594 c 0,38,39
338 2454 m 0,58,59
 281 2454 281 2454 231 2475.5 c 128,-1,60
 181 2497 181 2497 144 2534 c 128,-1,61
 107 2571 107 2571 85.5 2620.5 c 128,-1,62
 64 2670 64 2670 64 2726 c 128,-1,63
 64 2782 64 2782 85.5 2832 c 128,-1,64
 107 2882 107 2882 144 2919 c 128,-1,65
 181 2956 181 2956 231 2977.5 c 128,-1,66
 281 2999 281 2999 338 2999 c 0,67,68
 394 2999 394 2999 443.5 2977.5 c 128,-1,69
 493 2956 493 2956 530 2919 c 128,-1,70
 567 2882 567 2882 588.5 2832 c 128,-1,71
 610 2782 610 2782 610 2726 c 128,-1,72
 610 2670 610 2670 588.5 2620.5 c 128,-1,73
 567 2571 567 2571 530 2534 c 128,-1,74
 493 2497 493 2497 443.5 2475.5 c 128,-1,75
 394 2454 394 2454 338 2454 c 0,58,59
2754 2673 m 0,76,77
 2697 2673 2697 2673 2647.5 2694.5 c 128,-1,78
 2598 2716 2598 2716 2561 2753 c 128,-1,79
 2524 2790 2524 2790 2502.5 2839.5 c 128,-1,80
 2481 2889 2481 2889 2481 2946 c 0,81,82
 2481 3002 2481 3002 2502.5 3051.5 c 128,-1,83
 2524 3101 2524 3101 2561 3138.5 c 128,-1,84
 2598 3176 2598 3176 2647.5 3197.5 c 128,-1,85
 2697 3219 2697 3219 2754 3219 c 0,86,87
 2810 3219 2810 3219 2860 3197.5 c 128,-1,88
 2910 3176 2910 3176 2947 3138.5 c 128,-1,89
 2984 3101 2984 3101 3005.5 3051.5 c 128,-1,90
 3027 3002 3027 3002 3027 2946 c 0,91,92
 3027 2889 3027 2889 3005.5 2839.5 c 128,-1,93
 2984 2790 2984 2790 2947 2753 c 128,-1,94
 2910 2716 2910 2716 2860 2694.5 c 128,-1,95
 2810 2673 2810 2673 2754 2673 c 0,76,77
2754 2813 m 0,96,97
 2782 2813 2782 2813 2806 2823.5 c 128,-1,98
 2830 2834 2830 2834 2848 2852 c 128,-1,99
 2866 2870 2866 2870 2876.5 2894 c 128,-1,100
 2887 2918 2887 2918 2887 2946 c 0,101,102
 2887 2973 2887 2973 2876.5 2997.5 c 128,-1,103
 2866 3022 2866 3022 2848 3040 c 128,-1,104
 2830 3058 2830 3058 2806 3068.5 c 128,-1,105
 2782 3079 2782 3079 2754 3079 c 128,-1,106
 2726 3079 2726 3079 2702 3068.5 c 128,-1,107
 2678 3058 2678 3058 2660 3040 c 128,-1,108
 2642 3022 2642 3022 2631.5 2997.5 c 128,-1,109
 2621 2973 2621 2973 2621 2946 c 0,110,111
 2621 2918 2621 2918 2631.5 2894 c 128,-1,112
 2642 2870 2642 2870 2660 2852 c 128,-1,113
 2678 2834 2678 2834 2702 2823.5 c 128,-1,114
 2726 2813 2726 2813 2754 2813 c 0,96,97
1072 2813 m 0,115,116
 1100 2813 1100 2813 1124 2823.5 c 128,-1,117
 1148 2834 1148 2834 1166 2852 c 128,-1,118
 1184 2870 1184 2870 1194.5 2894 c 128,-1,119
 1205 2918 1205 2918 1205 2946 c 0,120,121
 1205 2973 1205 2973 1194.5 2997.5 c 128,-1,122
 1184 3022 1184 3022 1166 3040 c 128,-1,123
 1148 3058 1148 3058 1124 3068.5 c 128,-1,124
 1100 3079 1100 3079 1072 3079 c 0,125,126
 1045 3079 1045 3079 1021 3068.5 c 128,-1,127
 997 3058 997 3058 979 3040 c 128,-1,128
 961 3022 961 3022 950.5 2997.5 c 128,-1,129
 940 2973 940 2973 940 2946 c 0,130,131
 940 2918 940 2918 950.5 2894 c 128,-1,132
 961 2870 961 2870 979 2852 c 128,-1,133
 997 2834 997 2834 1021 2823.5 c 128,-1,134
 1045 2813 1045 2813 1072 2813 c 0,115,116
1072 2673 m 0,135,136
 1016 2673 1016 2673 966.5 2694.5 c 128,-1,137
 917 2716 917 2716 880 2753 c 128,-1,138
 843 2790 843 2790 821.5 2839.5 c 128,-1,139
 800 2889 800 2889 800 2946 c 0,140,141
 800 3002 800 3002 821.5 3051.5 c 128,-1,142
 843 3101 843 3101 880 3138.5 c 128,-1,143
 917 3176 917 3176 966.5 3197.5 c 128,-1,144
 1016 3219 1016 3219 1072 3219 c 0,145,146
 1129 3219 1129 3219 1178.5 3197.5 c 128,-1,147
 1228 3176 1228 3176 1265 3138.5 c 128,-1,148
 1302 3101 1302 3101 1323.5 3051.5 c 128,-1,149
 1345 3002 1345 3002 1345 2946 c 0,150,151
 1345 2889 1345 2889 1323.5 2839.5 c 128,-1,152
 1302 2790 1302 2790 1265 2753 c 128,-1,153
 1228 2716 1228 2716 1178.5 2694.5 c 128,-1,154
 1129 2673 1129 2673 1072 2673 c 0,135,136
2875 170 m 1,155,156
 2799 205 2799 205 2696.5 233 c 128,-1,157
 2594 261 2594 261 2471.5 281 c 128,-1,158
 2349 301 2349 301 2210 312 c 128,-1,159
 2071 323 2071 323 1921 323 c 0,160,161
 1767 323 1767 323 1624.5 311.5 c 128,-1,162
 1482 300 1482 300 1358 279.5 c 128,-1,163
 1234 259 1234 259 1131 230.5 c 128,-1,164
 1028 202 1028 202 954 166 c 1,165,166
 1024 135 1024 135 1124.5 110 c 128,-1,167
 1225 85 1225 85 1349 66.5 c 128,-1,168
 1473 48 1473 48 1616.5 38 c 128,-1,169
 1760 28 1760 28 1916 28 c 0,170,171
 2071 28 2071 28 2214.5 38 c 128,-1,172
 2358 48 2358 48 2481.5 67 c 128,-1,173
 2605 86 2605 86 2705.5 112 c 128,-1,174
 2806 138 2806 138 2875 170 c 1,155,156
3144 97 m 1,175,176
 3095 54 3095 54 2981 18 c 128,-1,177
 2867 -18 2867 -18 2705 -45 c 128,-1,178
 2543 -72 2543 -72 2342 -87.5 c 128,-1,179
 2141 -103 2141 -103 1917 -103 c 0,180,181
 1690 -103 1690 -103 1486 -87 c 128,-1,182
 1282 -71 1282 -71 1119 -43 c 128,-1,183
 956 -15 956 -15 842.5 23 c 128,-1,184
 729 61 729 61 685 106 c 1,185,-1
 811 586 l 1,186,-1
 755 901 l 1,187,-1
 580 1206 l 1,188,-1
 409 2449 l 1,189,-1
 507 2489 l 1,190,-1
 1055 1564 l 1,191,-1
 1066 2663 l 1,192,-1
 1204 2688 l 1,193,-1
 1621 1582 l 1,194,-1
 1844 2771 l 1,195,-1
 1984 2771 l 1,196,-1
 2206 1586 l 1,197,-1
 2621 2688 l 1,198,-1
 2759 2663 l 1,199,-1
 2771 1563 l 1,200,-1
 3321 2491 l 1,201,-1
 3416 2445 l 1,202,-1
 3250 1208 l 1,203,-1
 3072 903 l 1,204,-1
 3015 584 l 1,205,-1
 3144 97 l 1,175,176
2823 1366 m 1,206,207
 2870 1351 2870 1351 2921 1351 c 0,208,209
 2984 1351 2984 1351 3037 1372 c 128,-1,210
 3090 1393 3090 1393 3137 1428 c 1,211,-1
 3242 2120 l 1,212,-1
 2823 1366 l 1,206,207
997 1376 m 1,213,-1
 587 2117 l 1,214,-1
 691 1442 l 1,215,216
 739 1407 739 1407 790.5 1384.5 c 128,-1,217
 842 1362 842 1362 904 1362 c 0,218,219
 952 1362 952 1362 997 1376 c 1,213,-1
1507 1488 m 1,220,-1
 1194 2386 l 1,221,-1
 1195 1473 l 1,222,223
 1199 1478 1199 1478 1203.5 1483 c 128,-1,224
 1208 1488 1208 1488 1212 1492 c 1,225,226
 1230 1529 1230 1529 1263.5 1552 c 128,-1,227
 1297 1575 1297 1575 1338 1575 c 0,228,229
 1374 1575 1374 1575 1404.5 1557.5 c 128,-1,230
 1435 1540 1435 1540 1456 1512 c 1,231,232
 1469 1506 1469 1506 1481.5 1499.5 c 128,-1,233
 1494 1493 1494 1493 1507 1488 c 1,220,-1
2630 1459 m 1,234,-1
 2630 2386 l 1,235,-1
 2317 1479 l 1,236,237
 2334 1486 2334 1486 2350 1494.5 c 128,-1,238
 2366 1503 2366 1503 2379 1514 c 1,239,240
 2396 1537 2396 1537 2423 1551 c 128,-1,241
 2450 1565 2450 1565 2481 1565 c 0,242,243
 2519 1565 2519 1565 2551 1545 c 128,-1,244
 2583 1525 2583 1525 2602 1495 c 0,245,246
 2608 1486 2608 1486 2615.5 1477.5 c 128,-1,247
 2623 1469 2623 1469 2630 1459 c 1,234,-1
2077 1497 m 1,248,-1
 1914 2476 l 1,249,-1
 1753 1510 l 1,250,251
 1767 1519 1767 1519 1781 1530 c 1,252,253
 1800 1570 1800 1570 1835 1595.5 c 128,-1,254
 1870 1621 1870 1621 1913 1621 c 128,-1,255
 1956 1621 1956 1621 1990.5 1595.5 c 128,-1,256
 2025 1570 2025 1570 2038 1530 c 1,257,258
 2046 1522 2046 1522 2056 1513.5 c 128,-1,259
 2066 1505 2066 1505 2077 1497 c 1,248,-1
1913 2914 m 0,260,261
 1941 2914 1941 2914 1965 2924.5 c 128,-1,262
 1989 2935 1989 2935 2007 2953 c 128,-1,263
 2025 2971 2025 2971 2035.5 2995.5 c 128,-1,264
 2046 3020 2046 3020 2046 3047 c 128,-1,265
 2046 3074 2046 3074 2035.5 3098.5 c 128,-1,266
 2025 3123 2025 3123 2007 3141 c 128,-1,267
 1989 3159 1989 3159 1965 3169.5 c 128,-1,268
 1941 3180 1941 3180 1913 3180 c 128,-1,269
 1885 3180 1885 3180 1861 3169.5 c 128,-1,270
 1837 3159 1837 3159 1819 3141 c 128,-1,271
 1801 3123 1801 3123 1790.5 3098.5 c 128,-1,272
 1780 3074 1780 3074 1780 3047 c 128,-1,273
 1780 3020 1780 3020 1790.5 2995.5 c 128,-1,274
 1801 2971 1801 2971 1819 2953 c 128,-1,275
 1837 2935 1837 2935 1861 2924.5 c 128,-1,276
 1885 2914 1885 2914 1913 2914 c 0,260,261
1913 2774 m 0,277,278
 1856 2774 1856 2774 1806.5 2795.5 c 128,-1,279
 1757 2817 1757 2817 1720 2854 c 128,-1,280
 1683 2891 1683 2891 1661.5 2940.5 c 128,-1,281
 1640 2990 1640 2990 1640 3047 c 0,282,283
 1640 3103 1640 3103 1661.5 3153 c 128,-1,284
 1683 3203 1683 3203 1720 3240 c 128,-1,285
 1757 3277 1757 3277 1806.5 3298.5 c 128,-1,286
 1856 3320 1856 3320 1913 3320 c 0,287,288
 1969 3320 1969 3320 2019 3298.5 c 128,-1,289
 2069 3277 2069 3277 2106 3240 c 128,-1,290
 2143 3203 2143 3203 2164.5 3153 c 128,-1,291
 2186 3103 2186 3103 2186 3047 c 0,292,293
 2186 2990 2186 2990 2164.5 2940.5 c 128,-1,294
 2143 2891 2143 2891 2106 2854 c 128,-1,295
 2069 2817 2069 2817 2019 2795.5 c 128,-1,296
 1969 2774 1969 2774 1913 2774 c 0,277,278
1025 745 m 1,297,-1
 1047 577 l 1,298,-1
 991 353 l 1,299,300
 1068 378 1068 378 1168.5 398 c 128,-1,301
 1269 418 1269 418 1387.5 432.5 c 128,-1,302
 1506 447 1506 447 1639 455 c 128,-1,303
 1772 463 1772 463 1915 463 c 0,304,305
 2056 463 2056 463 2187.5 455.5 c 128,-1,306
 2319 448 2319 448 2436.5 433.5 c 128,-1,307
 2554 419 2554 419 2654.5 399 c 128,-1,308
 2755 379 2755 379 2832 354 c 1,309,-1
 2780 575 l 1,310,-1
 2801 747 l 1,311,312
 2721 768 2721 768 2623 785.5 c 128,-1,313
 2525 803 2525 803 2412.5 815 c 128,-1,314
 2300 827 2300 827 2175.5 833 c 128,-1,315
 2051 839 2051 839 1920 839 c 0,316,317
 1785 839 1785 839 1659 832.5 c 128,-1,318
 1533 826 1533 826 1419 814 c 128,-1,319
 1305 802 1305 802 1205.5 784.5 c 128,-1,320
 1106 767 1106 767 1025 745 c 1,297,-1
2879 912 m 1,321,-1
 3055 1247 l 1,322,323
 3009 1229 3009 1229 2961.5 1220 c 128,-1,324
 2914 1211 2914 1211 2865 1211 c 0,325,326
 2802 1211 2802 1211 2744 1225.5 c 128,-1,327
 2686 1240 2686 1240 2633.5 1267 c 128,-1,328
 2581 1294 2581 1294 2536.5 1332.5 c 128,-1,329
 2492 1371 2492 1371 2457 1418 c 1,330,331
 2406 1375 2406 1375 2341 1349 c 128,-1,332
 2276 1323 2276 1323 2203 1323 c 0,333,334
 2115 1323 2115 1323 2039.5 1361 c 128,-1,335
 1964 1399 1964 1399 1912 1466 c 1,336,337
 1860 1407 1860 1407 1784.5 1370 c 128,-1,338
 1709 1333 1709 1333 1621 1333 c 0,339,340
 1551 1333 1551 1333 1487.5 1357.5 c 128,-1,341
 1424 1382 1424 1382 1372 1426 c 1,342,343
 1336 1380 1336 1380 1290 1342 c 128,-1,344
 1244 1304 1244 1304 1192 1277.5 c 128,-1,345
 1140 1251 1140 1251 1081 1236 c 128,-1,346
 1022 1221 1022 1221 960 1221 c 0,347,348
 909 1221 909 1221 861 1230.5 c 128,-1,349
 813 1240 813 1240 768 1257 c 1,350,-1
 950 911 l 1,351,352
 1035 933 1035 933 1141.5 951 c 128,-1,353
 1248 969 1248 969 1372 981.5 c 128,-1,354
 1496 994 1496 994 1634.5 1000.5 c 128,-1,355
 1773 1007 1773 1007 1920 1007 c 0,356,357
 2065 1007 2065 1007 2201.5 1000.5 c 128,-1,358
 2338 994 2338 994 2460.5 982 c 128,-1,359
 2583 970 2583 970 2689 952 c 128,-1,360
 2795 934 2795 934 2879 912 c 1,321,-1
EndSplineSet
EndChar
StartChar: E
Encoding: 69 69 35
Width: 3641
GlyphClass: 2
Flags: W
Fore
684 598 m 1,0,-1
 619 971 l 1,1,2
 618 972 618 972 616 974 c 128,-1,3
 614 976 614 976 612 979 c 0,4,5
 607 987 607 987 592.5 996 c 128,-1,6
 578 1005 578 1005 556 1018 c 128,-1,7
 534 1031 534 1031 506 1050 c 128,-1,8
 478 1069 478 1069 446 1096 c 0,9,10
 403 1133 403 1133 370 1162 c 128,-1,11
 337 1191 337 1191 310.5 1216.5 c 128,-1,12
 284 1242 284 1242 262.5 1265.5 c 128,-1,13
 241 1289 241 1289 221 1316 c 0,14,15
 192 1357 192 1357 168.5 1400.5 c 128,-1,16
 145 1444 145 1444 127.5 1493.5 c 128,-1,17
 110 1543 110 1543 99 1599.5 c 128,-1,18
 88 1656 88 1656 84 1723 c 0,19,20
 79 1789 79 1789 90.5 1849.5 c 128,-1,21
 102 1910 102 1910 126.5 1966 c 128,-1,22
 151 2022 151 2022 187.5 2075 c 128,-1,23
 224 2128 224 2128 271 2180 c 0,24,25
 321 2236 321 2236 384 2278 c 128,-1,26
 447 2320 447 2320 519 2347 c 128,-1,27
 591 2374 591 2374 670.5 2386 c 128,-1,28
 750 2398 750 2398 832 2395 c 0,29,30
 897 2392 897 2392 971.5 2376.5 c 128,-1,31
 1046 2361 1046 2361 1142 2329 c 0,32,33
 1201 2308 1201 2308 1263 2284 c 128,-1,34
 1325 2260 1325 2260 1383 2235 c 0,35,36
 1395 2230 1395 2230 1410 2221.5 c 128,-1,37
 1425 2213 1425 2213 1439 2204 c 1,38,39
 1434 2224 1434 2224 1431.5 2245 c 128,-1,40
 1429 2266 1429 2266 1429 2288 c 0,41,42
 1429 2365 1429 2365 1458.5 2434 c 128,-1,43
 1488 2503 1488 2503 1539.5 2554 c 128,-1,44
 1591 2605 1591 2605 1659.5 2635 c 128,-1,45
 1728 2665 1728 2665 1806 2665 c 0,46,47
 1884 2666 1884 2666 1952.5 2636.5 c 128,-1,48
 2021 2607 2021 2607 2072 2555.5 c 128,-1,49
 2123 2504 2123 2504 2153 2435.5 c 128,-1,50
 2183 2367 2183 2367 2183 2289 c 0,51,52
 2183 2268 2183 2268 2180.5 2246.5 c 128,-1,53
 2178 2225 2178 2225 2173 2205 c 1,54,55
 2188 2215 2188 2215 2202.5 2223.5 c 128,-1,56
 2217 2232 2217 2232 2229 2237 c 0,57,58
 2287 2261 2287 2261 2349 2285 c 128,-1,59
 2411 2309 2411 2309 2469 2331 c 1,60,61
 2566 2363 2566 2363 2640.5 2378 c 128,-1,62
 2715 2393 2715 2393 2780 2396 c 0,63,64
 2863 2400 2863 2400 2942 2388 c 128,-1,65
 3021 2376 3021 2376 3093 2349 c 128,-1,66
 3165 2322 3165 2322 3228 2280 c 128,-1,67
 3291 2238 3291 2238 3341 2182 c 0,68,69
 3388 2130 3388 2130 3424.5 2076.5 c 128,-1,70
 3461 2023 3461 2023 3485.5 1967 c 128,-1,71
 3510 1911 3510 1911 3521.5 1850.5 c 128,-1,72
 3533 1790 3533 1790 3528 1724 c 0,73,74
 3524 1658 3524 1658 3513 1601.5 c 128,-1,75
 3502 1545 3502 1545 3484.5 1495.5 c 128,-1,76
 3467 1446 3467 1446 3443.5 1402.5 c 128,-1,77
 3420 1359 3420 1359 3391 1318 c 0,78,79
 3371 1291 3371 1291 3349.5 1267.5 c 128,-1,80
 3328 1244 3328 1244 3301.5 1218.5 c 128,-1,81
 3275 1193 3275 1193 3242 1164 c 128,-1,82
 3209 1135 3209 1135 3166 1098 c 0,83,84
 3134 1070 3134 1070 3106 1051.5 c 128,-1,85
 3078 1033 3078 1033 3055.5 1019.5 c 128,-1,86
 3033 1006 3033 1006 3018.5 997.5 c 128,-1,87
 3004 989 3004 989 3000 981 c 0,88,89
 2999 979 2999 979 2997 977 c 128,-1,90
 2995 975 2995 975 2995 973 c 1,91,-1
 2929 597 l 1,92,-1
 3062 102 l 1,93,94
 3013 58 3013 58 2896.5 21 c 128,-1,95
 2780 -16 2780 -16 2614.5 -43.5 c 128,-1,96
 2449 -71 2449 -71 2243.5 -87 c 128,-1,97
 2038 -103 2038 -103 1810 -103 c 0,98,99
 1579 -103 1579 -103 1370.5 -87 c 128,-1,100
 1162 -71 1162 -71 995.5 -42 c 128,-1,101
 829 -13 829 -13 713.5 25.5 c 128,-1,102
 598 64 598 64 553 110 c 1,103,-1
 684 598 l 1,0,-1
2788 175 m 1,104,105
 2710 211 2710 211 2605.5 240 c 128,-1,106
 2501 269 2501 269 2376 289 c 128,-1,107
 2251 309 2251 309 2108.5 320 c 128,-1,108
 1966 331 1966 331 1814 331 c 0,109,110
 1658 331 1658 331 1512.5 319.5 c 128,-1,111
 1367 308 1367 308 1240 287.5 c 128,-1,112
 1113 267 1113 267 1008 237.5 c 128,-1,113
 903 208 903 208 827 172 c 1,114,115
 898 140 898 140 1001 114 c 128,-1,116
 1104 88 1104 88 1231 70 c 128,-1,117
 1358 52 1358 52 1504.5 41.5 c 128,-1,118
 1651 31 1651 31 1809 31 c 128,-1,119
 1967 31 1967 31 2113.5 41.5 c 128,-1,120
 2260 52 2260 52 2386 70.5 c 128,-1,121
 2512 89 2512 89 2615 116 c 128,-1,122
 2718 143 2718 143 2788 175 c 1,104,105
1807 1591 m 1,123,124
 1812 1608 1812 1608 1817 1627.5 c 128,-1,125
 1822 1647 1822 1647 1831 1670 c 1,126,127
 1840 1704 1840 1704 1851 1736.5 c 128,-1,128
 1862 1769 1862 1769 1876 1802 c 128,-1,129
 1890 1835 1890 1835 1912.5 1880.5 c 128,-1,130
 1935 1926 1935 1926 1961 1982 c 0,131,132
 1977 2017 1977 2017 1995 2067 c 128,-1,133
 2013 2117 2013 2117 2030 2164 c 0,134,135
 2037 2182 2037 2182 2041.5 2204 c 128,-1,136
 2046 2226 2046 2226 2046 2249 c 0,137,138
 2046 2298 2046 2298 2027.5 2341.5 c 128,-1,139
 2009 2385 2009 2385 1976.5 2417 c 128,-1,140
 1944 2449 1944 2449 1900.5 2467.5 c 128,-1,141
 1857 2486 1857 2486 1807 2486 c 0,142,143
 1758 2485 1758 2485 1714 2466 c 128,-1,144
 1670 2447 1670 2447 1637.5 2415 c 128,-1,145
 1605 2383 1605 2383 1586.5 2339.5 c 128,-1,146
 1568 2296 1568 2296 1568 2247 c 0,147,148
 1568 2224 1568 2224 1572.5 2202 c 128,-1,149
 1577 2180 1577 2180 1584 2162 c 0,150,151
 1601 2115 1601 2115 1619 2065 c 128,-1,152
 1637 2015 1637 2015 1653 1980 c 0,153,154
 1679 1924 1679 1924 1701.5 1878.5 c 128,-1,155
 1724 1833 1724 1833 1738 1800 c 0,156,157
 1753 1767 1753 1767 1763.5 1734.5 c 128,-1,158
 1774 1702 1774 1702 1783 1668 c 1,159,160
 1792 1645 1792 1645 1797 1625.5 c 128,-1,161
 1802 1606 1802 1606 1807 1591 c 1,123,124
1884 2669 m 1,162,-1
 1728 2669 l 1,163,-1
 1728 2920 l 1,164,-1
 1544 2920 l 2,165,166
 1513 2920 1513 2920 1491.5 2940.5 c 128,-1,167
 1470 2961 1470 2961 1470 2990 c 2,168,-1
 1470 2991 l 2,169,170
 1470 3020 1470 3020 1491.5 3041 c 128,-1,171
 1513 3062 1513 3062 1544 3062 c 2,172,-1
 1728 3062 l 1,173,-1
 1728 3240 l 2,174,175
 1728 3271 1728 3271 1750.5 3292.5 c 128,-1,176
 1773 3314 1773 3314 1806 3314 c 1,177,-1
 1806 3314 l 1,178,179
 1839 3314 1839 3314 1861.5 3292 c 128,-1,180
 1884 3270 1884 3270 1884 3240 c 2,181,-1
 1884 3062 l 1,182,-1
 2071 3062 l 2,183,184
 2101 3062 2101 3062 2123 3041 c 128,-1,185
 2145 3020 2145 3020 2145 2991 c 2,186,-1
 2145 2990 l 2,187,188
 2145 2961 2145 2961 2123.5 2940.5 c 128,-1,189
 2102 2920 2102 2920 2071 2920 c 2,190,-1
 1886 2918 l 1,191,-1
 1884 2669 l 1,162,-1
925 596 m 1,192,-1
 868 378 l 1,193,194
 947 402 947 402 1049 421.5 c 128,-1,195
 1151 441 1151 441 1271.5 455 c 128,-1,196
 1392 469 1392 469 1527.5 476.5 c 128,-1,197
 1663 484 1663 484 1808 484 c 0,198,199
 1952 484 1952 484 2086 476.5 c 128,-1,200
 2220 469 2220 469 2339.5 455.5 c 128,-1,201
 2459 442 2459 442 2561 422.5 c 128,-1,202
 2663 403 2663 403 2742 379 c 1,203,-1
 2689 598 l 1,204,-1
 2739 874 l 1,205,206
 2657 897 2657 897 2554.5 915 c 128,-1,207
 2452 933 2452 933 2334 946 c 128,-1,208
 2216 959 2216 959 2083 965.5 c 128,-1,209
 1950 972 1950 972 1806 972 c 0,210,211
 1663 972 1663 972 1530.5 965.5 c 128,-1,212
 1398 959 1398 959 1279.5 947 c 128,-1,213
 1161 935 1161 935 1058.5 916.5 c 128,-1,214
 956 898 956 898 872 874 c 1,215,-1
 925 596 l 1,192,-1
1661 1131 m 1,216,217
 1661 1171 1661 1171 1660.5 1229.5 c 128,-1,218
 1660 1288 1660 1288 1657 1352 c 128,-1,219
 1654 1416 1654 1416 1647.5 1478 c 128,-1,220
 1641 1540 1641 1540 1629 1586 c 0,221,222
 1593 1719 1593 1719 1536.5 1827.5 c 128,-1,223
 1480 1936 1480 1936 1406 2018 c 0,224,225
 1367 2061 1367 2061 1307 2100.5 c 128,-1,226
 1247 2140 1247 2140 1168 2173 c 1,227,228
 991 2253 991 2253 822 2253 c 0,229,230
 538 2253 538 2253 399 2028 c 1,231,232
 322 1908 322 1908 322 1729 c 0,233,234
 322 1631 322 1631 344 1549.5 c 128,-1,235
 366 1468 366 1468 409 1405 c 0,236,237
 432 1371 432 1371 479.5 1325 c 128,-1,238
 527 1279 527 1279 583 1229 c 128,-1,239
 639 1179 639 1179 696.5 1127.5 c 128,-1,240
 754 1076 754 1076 797 1031 c 1,241,242
 877 1051 877 1051 963.5 1068.5 c 128,-1,243
 1050 1086 1050 1086 1153 1099 c 128,-1,244
 1256 1112 1256 1112 1381 1120.5 c 128,-1,245
 1506 1129 1506 1129 1661 1131 c 1,216,217
1953 1127 m 1,246,247
 2108 1125 2108 1125 2232.5 1117 c 128,-1,248
 2357 1109 2357 1109 2460.5 1095.5 c 128,-1,249
 2564 1082 2564 1082 2650.5 1064.5 c 128,-1,250
 2737 1047 2737 1047 2816 1027 c 1,251,252
 2866 1082 2866 1082 2924.5 1134.5 c 128,-1,253
 2983 1187 2983 1187 3037.5 1234.5 c 128,-1,254
 3092 1282 3092 1282 3136.5 1324.5 c 128,-1,255
 3181 1367 3181 1367 3205 1402 c 0,256,257
 3247 1465 3247 1465 3269.5 1546 c 128,-1,258
 3292 1627 3292 1627 3292 1725 c 0,259,260
 3292 1905 3292 1905 3214 2024 c 1,261,262
 3075 2250 3075 2250 2792 2250 c 0,263,264
 2622 2250 2622 2250 2445 2170 c 0,265,266
 2367 2136 2367 2136 2307 2096.5 c 128,-1,267
 2247 2057 2247 2057 2208 2014 c 0,268,269
 2133 1932 2133 1932 2077 1823.5 c 128,-1,270
 2021 1715 2021 1715 1985 1582 c 0,271,272
 1973 1536 1973 1536 1966.5 1474 c 128,-1,273
 1960 1412 1960 1412 1957 1348.5 c 128,-1,274
 1954 1285 1954 1285 1954 1226 c 128,-1,275
 1954 1167 1954 1167 1953 1127 c 1,246,247
EndSplineSet
EndChar
StartChar: L
Encoding: 76 76 36
Width: 3408
GlyphClass: 2
Flags: W
Fore
1702 1249 m 0,0,1
 1803 1249 1803 1249 1899.5 1242 c 128,-1,2
 1996 1235 1996 1235 2089 1220 c 1,3,4
 2140 1238 2140 1238 2186 1263 c 128,-1,5
 2232 1288 2232 1288 2270.5 1317.5 c 128,-1,6
 2309 1347 2309 1347 2338 1378 c 128,-1,7
 2367 1409 2367 1409 2386 1439 c 0,8,9
 2430 1511 2430 1511 2446.5 1582 c 128,-1,10
 2463 1653 2463 1653 2463 1720 c 0,11,12
 2463 1767 2463 1767 2451.5 1819 c 128,-1,13
 2440 1871 2440 1871 2415.5 1924.5 c 128,-1,14
 2391 1978 2391 1978 2352.5 2029 c 128,-1,15
 2314 2080 2314 2080 2260 2124 c 0,16,17
 2199 2173 2199 2173 2131.5 2226.5 c 128,-1,18
 2064 2280 2064 2280 1992.5 2340 c 128,-1,19
 1921 2400 1921 2400 1847.5 2467.5 c 128,-1,20
 1774 2535 1774 2535 1702 2612 c 1,21,22
 1630 2535 1630 2535 1557 2467.5 c 128,-1,23
 1484 2400 1484 2400 1412.5 2340 c 128,-1,24
 1341 2280 1341 2280 1273.5 2226.5 c 128,-1,25
 1206 2173 1206 2173 1145 2124 c 0,26,27
 1091 2080 1091 2080 1052.5 2029 c 128,-1,28
 1014 1978 1014 1978 989.5 1924.5 c 128,-1,29
 965 1871 965 1871 953.5 1819 c 128,-1,30
 942 1767 942 1767 942 1720 c 0,31,32
 942 1653 942 1653 958.5 1582 c 128,-1,33
 975 1511 975 1511 1019 1439 c 0,34,35
 1037 1409 1037 1409 1066.5 1378 c 128,-1,36
 1096 1347 1096 1347 1134 1317.5 c 128,-1,37
 1172 1288 1172 1288 1218 1263 c 128,-1,38
 1264 1238 1264 1238 1316 1220 c 1,39,40
 1408 1235 1408 1235 1505 1242 c 128,-1,41
 1602 1249 1602 1249 1702 1249 c 0,0,1
2234 683 m 1,42,-1
 2072 1085 l 1,43,44
 1894 1114 1894 1114 1702 1114 c 0,45,46
 1606 1114 1606 1114 1513 1106.5 c 128,-1,47
 1420 1099 1420 1099 1334 1086 c 1,48,-1
 1167 683 l 1,49,50
 1291 652 1291 652 1425.5 629 c 128,-1,51
 1560 606 1560 606 1702 606 c 0,52,53
 1845 606 1845 606 1979 629 c 128,-1,54
 2113 652 2113 652 2234 683 c 1,42,-1
1702 2784 m 0,55,56
 1731 2784 1731 2784 1757 2794.5 c 128,-1,57
 1783 2805 1783 2805 1802 2823.5 c 128,-1,58
 1821 2842 1821 2842 1832.5 2867 c 128,-1,59
 1844 2892 1844 2892 1844 2920 c 128,-1,60
 1844 2948 1844 2948 1832.5 2973 c 128,-1,61
 1821 2998 1821 2998 1802 3016.5 c 128,-1,62
 1783 3035 1783 3035 1757 3045.5 c 128,-1,63
 1731 3056 1731 3056 1702 3056 c 128,-1,64
 1673 3056 1673 3056 1647.5 3045.5 c 128,-1,65
 1622 3035 1622 3035 1602.5 3016.5 c 128,-1,66
 1583 2998 1583 2998 1572 2973 c 128,-1,67
 1561 2948 1561 2948 1561 2920 c 128,-1,68
 1561 2892 1561 2892 1572 2867 c 128,-1,69
 1583 2842 1583 2842 1602.5 2823.5 c 128,-1,70
 1622 2805 1622 2805 1647.5 2794.5 c 128,-1,71
 1673 2784 1673 2784 1702 2784 c 0,55,56
1621 1751 m 1,72,-1
 1427 1753 l 2,73,74
 1396 1753 1396 1753 1373 1776 c 128,-1,75
 1350 1799 1350 1799 1350 1831 c 2,76,-1
 1350 1832 l 2,77,78
 1350 1864 1350 1864 1373 1887 c 128,-1,79
 1396 1910 1396 1910 1427 1910 c 2,80,-1
 1621 1909 l 1,81,-1
 1620 2107 l 1,82,83
 1620 2140 1620 2140 1644.5 2164 c 128,-1,84
 1669 2188 1669 2188 1702 2188 c 2,85,-1
 1703 2188 l 2,86,87
 1737 2188 1737 2188 1761 2164.5 c 128,-1,88
 1785 2141 1785 2141 1785 2107 c 2,89,-1
 1785 1909 l 1,90,-1
 1981 1910 l 2,91,92
 2012 1910 2012 1910 2035.5 1887 c 128,-1,93
 2059 1864 2059 1864 2059 1832 c 2,94,-1
 2059 1831 l 2,95,96
 2059 1799 2059 1799 2035.5 1776 c 128,-1,97
 2012 1753 2012 1753 1981 1753 c 2,98,-1
 1785 1751 l 1,99,-1
 1785 1562 l 2,100,101
 1785 1529 1785 1529 1761 1505 c 128,-1,102
 1737 1481 1737 1481 1703 1481 c 2,103,-1
 1702 1481 l 2,104,105
 1669 1481 1669 1481 1644.5 1505 c 128,-1,106
 1620 1529 1620 1529 1620 1562 c 1,107,-1
 1621 1751 l 1,72,-1
1602 495 m 1,108,-1
 1545 495 l 1,109,110
 1500 415 1500 415 1449 354.5 c 128,-1,111
 1398 294 1398 294 1351 270 c 0,112,113
 1309 248 1309 248 1256.5 227 c 128,-1,114
 1204 206 1204 206 1135 206 c 0,115,116
 1125 206 1125 206 1076.5 214.5 c 128,-1,117
 1028 223 1028 223 943 238 c 128,-1,118
 858 253 858 253 807.5 268.5 c 128,-1,119
 757 284 757 284 728 288 c 0,120,121
 673 295 673 295 612 291.5 c 128,-1,122
 551 288 551 288 488 276 c 0,123,124
 464 271 464 271 446 266.5 c 128,-1,125
 428 262 428 262 411 256 c 128,-1,126
 394 250 394 250 375.5 241 c 128,-1,127
 357 232 357 232 333 218 c 1,128,-1
 419 61 l 1,129,130
 430 73 430 73 445 80.5 c 128,-1,131
 460 88 460 88 476 92.5 c 128,-1,132
 492 97 492 97 509 100.5 c 128,-1,133
 526 104 526 104 540 107 c 0,134,135
 576 115 576 115 612.5 116.5 c 128,-1,136
 649 118 649 118 684 111 c 0,137,138
 708 106 708 106 776.5 97.5 c 128,-1,139
 845 89 845 89 957 68 c 1,140,141
 1022 58 1022 58 1068 52 c 128,-1,142
 1114 46 1114 46 1141 46 c 0,143,144
 1237 46 1237 46 1309.5 66.5 c 128,-1,145
 1382 87 1382 87 1431 126 c 0,146,147
 1462 152 1462 152 1492.5 188.5 c 128,-1,148
 1523 225 1523 225 1547.5 271.5 c 128,-1,149
 1572 318 1572 318 1587 374 c 128,-1,150
 1602 430 1602 430 1602 495 c 1,108,-1
1987 492 m 1,151,152
 2003 461 2003 461 2025 438.5 c 128,-1,153
 2047 416 2047 416 2069.5 400 c 128,-1,154
 2092 384 2092 384 2111.5 374 c 128,-1,155
 2131 364 2131 364 2142 358 c 0,156,157
 2164 346 2164 346 2205 340 c 128,-1,158
 2246 334 2246 334 2304 334 c 1,159,160
 2522 366 l 128,-1,161
 2740 398 l 1,162,163
 2797 393 2797 393 2851.5 395 c 128,-1,164
 2906 397 2906 397 2962 392 c 0,165,166
 2998 389 2998 389 3027 385 c 128,-1,167
 3056 381 3056 381 3084 374 c 128,-1,168
 3112 367 3112 367 3142 355.5 c 128,-1,169
 3172 344 3172 344 3211 326 c 0,170,171
 3229 317 3229 317 3245 309.5 c 128,-1,172
 3261 302 3261 302 3276.5 292.5 c 128,-1,173
 3292 283 3292 283 3307.5 269.5 c 128,-1,174
 3323 256 3323 256 3341 236 c 1,175,-1
 3146 -81 l 1,176,177
 3128 -63 3128 -63 3100.5 -49.5 c 128,-1,178
 3073 -36 3073 -36 3044 -26.5 c 128,-1,179
 3015 -17 3015 -17 2987 -12 c 128,-1,180
 2959 -7 2959 -7 2939 -7 c 0,181,182
 2914 -7 2914 -7 2887 -3 c 128,-1,183
 2860 1 2860 1 2826 -3 c 2,184,-1
 2264 -81 l 2,185,186
 2205 -89 2205 -89 2148.5 -84 c 128,-1,187
 2092 -79 2092 -79 2042 -64 c 128,-1,188
 1992 -49 1992 -49 1949 -26 c 128,-1,189
 1906 -3 1906 -3 1874 24 c 0,190,191
 1841 51 1841 51 1815.5 72 c 128,-1,192
 1790 93 1790 93 1769.5 118 c 128,-1,193
 1749 143 1749 143 1732.5 178.5 c 128,-1,194
 1716 214 1716 214 1703 270 c 1,195,196
 1689 214 1689 214 1672.5 177 c 128,-1,197
 1656 140 1656 140 1635.5 113 c 128,-1,198
 1615 86 1615 86 1588.5 65.5 c 128,-1,199
 1562 45 1562 45 1529 20 c 1,200,201
 1494 -4 1494 -4 1451.5 -26 c 128,-1,202
 1409 -48 1409 -48 1360.5 -63 c 128,-1,203
 1312 -78 1312 -78 1256.5 -83.5 c 128,-1,204
 1201 -89 1201 -89 1141 -81 c 2,205,-1
 580 -3 l 2,206,207
 546 1 546 1 519 -3 c 128,-1,208
 492 -7 492 -7 467 -7 c 0,209,210
 446 -7 446 -7 418 -12 c 128,-1,211
 390 -17 390 -17 361 -26.5 c 128,-1,212
 332 -36 332 -36 305 -49.5 c 128,-1,213
 278 -63 278 -63 260 -81 c 1,214,-1
 64 236 l 1,215,216
 83 256 83 256 98.5 269.5 c 128,-1,217
 114 283 114 283 129 292.5 c 128,-1,218
 144 302 144 302 160 309.5 c 128,-1,219
 176 317 176 317 195 326 c 0,220,221
 233 344 233 344 263.5 355.5 c 128,-1,222
 294 367 294 367 322 374 c 128,-1,223
 350 381 350 381 379 385 c 128,-1,224
 408 389 408 389 443 392 c 0,225,226
 500 397 500 397 554.5 395 c 128,-1,227
 609 393 609 393 665 398 c 1,228,229
 883 366 l 128,-1,230
 1101 334 l 1,231,232
 1160 334 1160 334 1201 340 c 128,-1,233
 1242 346 1242 346 1263 358 c 0,234,235
 1274 364 1274 364 1294 374 c 128,-1,236
 1314 384 1314 384 1336.5 400 c 128,-1,237
 1359 416 1359 416 1380.5 438.5 c 128,-1,238
 1402 461 1402 461 1418 492 c 1,239,240
 1350 498 1350 498 1281 509.5 c 128,-1,241
 1212 521 1212 521 1147 535.5 c 128,-1,242
 1082 550 1082 550 1022.5 566 c 128,-1,243
 963 582 963 582 913 598 c 1,244,-1
 1153 1114 l 1,245,246
 1064 1159 1064 1159 1004 1194 c 128,-1,247
 944 1229 944 1229 903 1259.5 c 128,-1,248
 862 1290 862 1290 835.5 1319.5 c 128,-1,249
 809 1349 809 1349 787 1385 c 0,250,251
 758 1432 758 1432 740 1477 c 128,-1,252
 722 1522 722 1522 712 1564 c 128,-1,253
 702 1606 702 1606 699 1644.5 c 128,-1,254
 696 1683 696 1683 697 1717 c 0,255,256
 699 1777 699 1777 713.5 1845 c 128,-1,257
 728 1913 728 1913 762.5 1982 c 128,-1,258
 797 2051 797 2051 855 2117.5 c 128,-1,259
 913 2184 913 2184 1001 2241 c 0,260,261
 1075 2290 1075 2290 1146 2339 c 128,-1,262
 1217 2388 1217 2388 1286.5 2441 c 128,-1,263
 1356 2494 1356 2494 1424 2552.5 c 128,-1,264
 1492 2611 1492 2611 1559 2678 c 1,265,266
 1522 2695 1522 2695 1490.5 2720.5 c 128,-1,267
 1459 2746 1459 2746 1436.5 2777 c 128,-1,268
 1414 2808 1414 2808 1401.5 2844.5 c 128,-1,269
 1389 2881 1389 2881 1389 2920 c 0,270,271
 1389 2976 1389 2976 1413.5 3025.5 c 128,-1,272
 1438 3075 1438 3075 1480.5 3112 c 128,-1,273
 1523 3149 1523 3149 1580.5 3170.5 c 128,-1,274
 1638 3192 1638 3192 1702 3192 c 0,275,276
 1767 3192 1767 3192 1824 3170.5 c 128,-1,277
 1881 3149 1881 3149 1923.5 3112 c 128,-1,278
 1966 3075 1966 3075 1991 3025.5 c 128,-1,279
 2016 2976 2016 2976 2016 2920 c 0,280,281
 2016 2881 2016 2881 2003.5 2844.5 c 128,-1,282
 1991 2808 1991 2808 1968.5 2777 c 128,-1,283
 1946 2746 1946 2746 1914.5 2720.5 c 128,-1,284
 1883 2695 1883 2695 1845 2678 c 1,285,286
 1913 2611 1913 2611 1981 2552.5 c 128,-1,287
 2049 2494 2049 2494 2118.5 2441 c 128,-1,288
 2188 2388 2188 2388 2259 2339 c 128,-1,289
 2330 2290 2330 2290 2404 2241 c 0,290,291
 2492 2184 2492 2184 2550 2117.5 c 128,-1,292
 2608 2051 2608 2051 2642.5 1982 c 128,-1,293
 2677 1913 2677 1913 2691.5 1845 c 128,-1,294
 2706 1777 2706 1777 2708 1717 c 0,295,296
 2709 1683 2709 1683 2706 1644.5 c 128,-1,297
 2703 1606 2703 1606 2693 1564 c 128,-1,298
 2683 1522 2683 1522 2665 1477 c 128,-1,299
 2647 1432 2647 1432 2618 1385 c 0,300,301
 2596 1349 2596 1349 2569.5 1319.5 c 128,-1,302
 2543 1290 2543 1290 2502 1259.5 c 128,-1,303
 2461 1229 2461 1229 2401 1194 c 128,-1,304
 2341 1159 2341 1159 2252 1114 c 1,305,-1
 2492 598 l 1,306,307
 2442 582 2442 582 2383 566 c 128,-1,308
 2324 550 2324 550 2258.5 535.5 c 128,-1,309
 2193 521 2193 521 2124.5 509.5 c 128,-1,310
 2056 498 2056 498 1987 492 c 1,151,152
1804 495 m 1,311,312
 1804 430 1804 430 1819.5 374 c 128,-1,313
 1835 318 1835 318 1859 271.5 c 128,-1,314
 1883 225 1883 225 1913.5 188.5 c 128,-1,315
 1944 152 1944 152 1975 126 c 0,316,317
 2024 87 2024 87 2096.5 66.5 c 128,-1,318
 2169 46 2169 46 2265 46 c 0,319,320
 2292 46 2292 46 2338 52 c 128,-1,321
 2384 58 2384 58 2449 68 c 1,322,323
 2560 89 2560 89 2629 97.5 c 128,-1,324
 2698 106 2698 106 2721 111 c 0,325,326
 2757 118 2757 118 2793 116.5 c 128,-1,327
 2829 115 2829 115 2865 107 c 0,328,329
 2880 104 2880 104 2896.5 100.5 c 128,-1,330
 2913 97 2913 97 2929.5 92.5 c 128,-1,331
 2946 88 2946 88 2961 80.5 c 128,-1,332
 2976 73 2976 73 2987 61 c 1,333,-1
 3073 218 l 1,334,335
 3049 232 3049 232 3030.5 241 c 128,-1,336
 3012 250 3012 250 2995 256 c 128,-1,337
 2978 262 2978 262 2959.5 266.5 c 128,-1,338
 2941 271 2941 271 2918 276 c 0,339,340
 2855 288 2855 288 2794 291.5 c 128,-1,341
 2733 295 2733 295 2678 288 c 0,342,343
 2648 284 2648 284 2598 268.5 c 128,-1,344
 2548 253 2548 253 2463 238 c 128,-1,345
 2378 223 2378 223 2329.5 214.5 c 128,-1,346
 2281 206 2281 206 2270 206 c 0,347,348
 2202 206 2202 206 2149.5 227 c 128,-1,349
 2097 248 2097 248 2054 270 c 0,350,351
 2008 294 2008 294 1957 354.5 c 128,-1,352
 1906 415 1906 415 1862 495 c 1,353,-1
 1804 495 l 1,311,312
EndSplineSet
EndChar
StartChar: M
Encoding: 77 77 37
Width: 3696
GlyphClass: 2
Flags: W
Fore
905 2603 m 0,0,1
 897 2595 897 2595 892 2590 c 128,-1,2
 887 2585 887 2585 883.5 2580.5 c 128,-1,3
 880 2576 880 2576 876.5 2571 c 128,-1,4
 873 2566 873 2566 868 2558 c 0,5,6
 862 2550 862 2550 849 2528 c 128,-1,7
 836 2506 836 2506 822 2479.5 c 128,-1,8
 808 2453 808 2453 795 2425 c 128,-1,9
 782 2397 782 2397 774 2376 c 0,10,11
 765 2352 765 2352 762 2333.5 c 128,-1,12
 759 2315 759 2315 759.5 2297.5 c 128,-1,13
 760 2280 760 2280 761.5 2263.5 c 128,-1,14
 763 2247 763 2247 764 2227 c 1,15,16
 757 2168 757 2168 737.5 2114.5 c 128,-1,17
 718 2061 718 2061 689 2005.5 c 128,-1,18
 660 1950 660 1950 621 1888 c 128,-1,19
 582 1826 582 1826 536 1752 c 0,20,21
 492 1681 492 1681 458.5 1630.5 c 128,-1,22
 425 1580 425 1580 400 1537 c 128,-1,23
 375 1494 375 1494 357.5 1451 c 128,-1,24
 340 1408 340 1408 327 1352 c 0,25,26
 320 1319 320 1319 320 1275.5 c 128,-1,27
 320 1232 320 1232 329 1188 c 128,-1,28
 338 1144 338 1144 356 1103.5 c 128,-1,29
 374 1063 374 1063 401 1035 c 0,30,31
 440 995 440 995 478.5 970 c 128,-1,32
 517 945 517 945 569 949 c 0,33,34
 577 950 577 950 587.5 952 c 128,-1,35
 598 954 598 954 607 957 c 1,36,37
 624 969 624 969 642.5 972 c 128,-1,38
 661 975 661 975 678 968 c 0,39,40
 700 960 700 960 715 936.5 c 128,-1,41
 730 913 730 913 735 881 c 1,42,43
 740 867 740 867 751.5 855 c 128,-1,44
 763 843 763 843 778 837.5 c 128,-1,45
 793 832 793 832 808 833.5 c 128,-1,46
 823 835 823 835 834 845 c 0,47,48
 846 856 846 856 857 876.5 c 128,-1,49
 868 897 868 897 883 927 c 128,-1,50
 898 957 898 957 917.5 997.5 c 128,-1,51
 937 1038 937 1038 965 1088 c 0,52,53
 998 1148 998 1148 1034 1196 c 128,-1,54
 1070 1244 1070 1244 1106.5 1282 c 128,-1,55
 1143 1320 1143 1320 1177.5 1349.5 c 128,-1,56
 1212 1379 1212 1379 1241 1402 c 0,57,58
 1275 1429 1275 1429 1324 1462 c 128,-1,59
 1373 1495 1373 1495 1456 1531 c 0,60,61
 1490 1545 1490 1545 1527.5 1562.5 c 128,-1,62
 1565 1580 1565 1580 1603 1601 c 128,-1,63
 1641 1622 1641 1622 1678 1647 c 128,-1,64
 1715 1672 1715 1672 1746 1701 c 1,65,66
 1784 1727 1784 1727 1819 1735 c 128,-1,67
 1854 1743 1854 1743 1880 1727 c 0,68,69
 1899 1716 1899 1716 1909.5 1692 c 128,-1,70
 1920 1668 1920 1668 1923 1638 c 1,71,72
 1933 1591 1933 1591 1935.5 1533.5 c 128,-1,73
 1938 1476 1938 1476 1931 1420 c 0,74,75
 1923 1359 1923 1359 1905.5 1294 c 128,-1,76
 1888 1229 1888 1229 1851 1159 c 128,-1,77
 1814 1089 1814 1089 1752 1012 c 128,-1,78
 1690 935 1690 935 1593 849 c 0,79,80
 1501 768 1501 768 1430 680 c 128,-1,81
 1359 592 1359 592 1311.5 501.5 c 128,-1,82
 1264 411 1264 411 1241.5 320 c 128,-1,83
 1219 229 1219 229 1224 142 c 1,84,-1
 1248 142 l 2,85,86
 1273 142 1273 142 1316 142 c 128,-1,87
 1359 142 1359 142 1418 142 c 128,-1,88
 1477 142 1477 142 1546 142 c 128,-1,89
 1615 142 1615 142 1692 142 c 128,-1,90
 1769 142 1769 142 1847.5 142 c 128,-1,91
 1926 142 1926 142 2003 142 c 128,-1,92
 2080 142 2080 142 2151 142 c 2,93,-1
 3185 142 l 2,94,95
 3184 142 3184 142 3185.5 172 c 128,-1,96
 3187 202 3187 202 3189 250.5 c 128,-1,97
 3191 299 3191 299 3192.5 361 c 128,-1,98
 3194 423 3194 423 3195 486 c 0,99,100
 3196 611 3196 611 3197.5 740.5 c 128,-1,101
 3199 870 3199 870 3194.5 1002.5 c 128,-1,102
 3190 1135 3190 1135 3175 1269 c 128,-1,103
 3160 1403 3160 1403 3126 1536 c 0,104,105
 3095 1664 3095 1664 3059.5 1772 c 128,-1,106
 3024 1880 3024 1880 2985.5 1972 c 128,-1,107
 2947 2064 2947 2064 2904.5 2141.5 c 128,-1,108
 2862 2219 2862 2219 2816 2285 c 1,109,110
 2749 2393 2749 2393 2654 2485.5 c 128,-1,111
 2559 2578 2559 2578 2446 2651 c 128,-1,112
 2333 2724 2333 2724 2208 2774.5 c 128,-1,113
 2083 2825 2083 2825 1956 2848 c 1,114,115
 1964 2803 1964 2803 1968.5 2751 c 128,-1,116
 1973 2699 1973 2699 1972 2655 c 0,117,118
 1971 2624 1971 2624 1952 2604 c 128,-1,119
 1933 2584 1933 2584 1907 2584 c 0,120,121
 1880 2584 1880 2584 1861.5 2604 c 128,-1,122
 1843 2624 1843 2624 1845 2655 c 1,123,124
 1848 2784 1848 2784 1801.5 2901.5 c 128,-1,125
 1755 3019 1755 3019 1668 3107 c 1,126,127
 1600 3032 1600 3032 1559 2936.5 c 128,-1,128
 1518 2841 1518 2841 1512 2735 c 0,129,130
 1511 2707 1511 2707 1491 2689 c 128,-1,131
 1471 2671 1471 2671 1444 2673 c 0,132,133
 1418 2675 1418 2675 1401 2697 c 128,-1,134
 1384 2719 1384 2719 1385 2748 c 0,135,136
 1385 2751 1385 2751 1385.5 2754 c 128,-1,137
 1386 2757 1386 2757 1389 2763 c 1,138,139
 1348 2750 1348 2750 1307 2731 c 128,-1,140
 1266 2712 1266 2712 1226 2689 c 1,141,142
 1202 2671 1202 2671 1176.5 2678 c 128,-1,143
 1151 2685 1151 2685 1137 2709 c 0,144,145
 1124 2733 1124 2733 1132 2760 c 128,-1,146
 1140 2787 1140 2787 1167 2802 c 1,147,148
 1197 2821 1197 2821 1228.5 2837.5 c 128,-1,149
 1260 2854 1260 2854 1289 2869 c 1,150,151
 1207 2959 1207 2959 1114 3030 c 128,-1,152
 1021 3101 1021 3101 919 3154 c 1,153,154
 927 3060 927 3060 946.5 2967 c 128,-1,155
 966 2874 966 2874 997 2784 c 1,156,157
 1005 2746 1005 2746 980 2697.5 c 128,-1,158
 955 2649 955 2649 905 2603 c 0,0,1
1955 2988 m 1,159,160
 2113 2978 2113 2978 2259.5 2936.5 c 128,-1,161
 2406 2895 2406 2895 2538 2826.5 c 128,-1,162
 2670 2758 2670 2758 2785 2665.5 c 128,-1,163
 2900 2573 2900 2573 2994 2462 c 0,164,165
 3060 2384 3060 2384 3123.5 2289 c 128,-1,166
 3187 2194 3187 2194 3243.5 2086 c 128,-1,167
 3300 1978 3300 1978 3348 1860.5 c 128,-1,168
 3396 1743 3396 1743 3430 1620 c 0,169,170
 3470 1477 3470 1477 3494 1324.5 c 128,-1,171
 3518 1172 3518 1172 3530.5 1019 c 128,-1,172
 3543 866 3543 866 3547 717.5 c 128,-1,173
 3551 569 3551 569 3551 435 c 2,174,-1
 3551 0 l 1,175,-1
 3470 0 l 2,176,177
 3388 0 3388 0 3240.5 0 c 128,-1,178
 3093 0 3093 0 2887.5 0 c 128,-1,179
 2682 0 2682 0 2433 0 c 2,180,-1
 1092 0 l 2,181,182
 1082 0 1082 0 1078.5 28.5 c 128,-1,183
 1075 57 1075 57 1075 98 c 128,-1,184
 1075 139 1075 139 1078.5 182.5 c 128,-1,185
 1082 226 1082 226 1087 255 c 0,186,187
 1096 304 1096 304 1126.5 391.5 c 128,-1,188
 1157 479 1157 479 1224 605 c 0,189,190
 1241 637 1241 637 1281 684.5 c 128,-1,191
 1321 732 1321 732 1377.5 792 c 128,-1,192
 1434 852 1434 852 1504.5 924 c 128,-1,193
 1575 996 1575 996 1653 1077 c 0,194,195
 1699 1124 1699 1124 1735 1184.5 c 128,-1,196
 1771 1245 1771 1245 1795 1310.5 c 128,-1,197
 1819 1376 1819 1376 1830.5 1441.5 c 128,-1,198
 1842 1507 1842 1507 1837 1563 c 1,199,200
 1801 1535 1801 1535 1760 1509.5 c 128,-1,201
 1719 1484 1719 1484 1675 1465 c 1,202,203
 1466 1389 1466 1389 1311 1278 c 128,-1,204
 1156 1167 1156 1167 1060 1025 c 1,205,206
 1053 1013 1053 1013 1030 971.5 c 128,-1,207
 1007 930 1007 930 970 863 c 0,208,209
 940 809 l 128,-1,210
 925 782 925 782 903 760 c 0,211,212
 893 749 893 749 882.5 741.5 c 128,-1,213
 872 734 872 734 859.5 729 c 128,-1,214
 847 724 847 724 831.5 721 c 128,-1,215
 816 718 816 718 793 717 c 0,216,217
 737 714 737 714 695 738.5 c 128,-1,218
 653 763 653 763 619 826 c 1,219,220
 586 817 586 817 549 810.5 c 128,-1,221
 512 804 512 804 469 806 c 1,222,223
 415 827 415 827 376 846.5 c 128,-1,224
 337 866 337 866 307 896 c 0,225,226
 256 946 256 946 224 996.5 c 128,-1,227
 192 1047 192 1047 174 1099.5 c 128,-1,228
 156 1152 156 1152 149.5 1206.5 c 128,-1,229
 143 1261 143 1261 143 1320 c 0,230,231
 143 1400 143 1400 194 1511.5 c 128,-1,232
 245 1623 245 1623 352 1764 c 0,233,234
 467 1913 467 1913 535 2029.5 c 128,-1,235
 603 2146 603 2146 612 2248 c 1,236,237
 612 2275 612 2275 612.5 2294 c 128,-1,238
 613 2313 613 2313 615 2331 c 128,-1,239
 617 2349 617 2349 619.5 2367 c 128,-1,240
 622 2385 622 2385 626 2409 c 0,241,242
 631 2441 631 2441 645.5 2473.5 c 128,-1,243
 660 2506 660 2506 675 2530 c 0,244,245
 689 2550 689 2550 697 2562.5 c 128,-1,246
 705 2575 705 2575 711.5 2584.5 c 128,-1,247
 718 2594 718 2594 725 2604 c 128,-1,248
 732 2614 732 2614 743 2630 c 0,249,250
 752 2642 752 2642 759 2651 c 128,-1,251
 766 2660 766 2660 773 2668 c 128,-1,252
 780 2676 780 2676 787.5 2683.5 c 128,-1,253
 795 2691 795 2691 804 2701 c 0,254,255
 820 2720 820 2720 833 2733.5 c 128,-1,256
 846 2747 846 2747 859 2760 c 1,257,258
 807 2908 807 2908 785.5 3060 c 128,-1,259
 764 3212 764 3212 773 3362 c 1,260,261
 964 3296 964 3296 1135 3183.5 c 128,-1,262
 1306 3071 1306 3071 1441 2918 c 1,263,264
 1475 3029 1475 3029 1541.5 3122.5 c 128,-1,265
 1608 3216 1608 3216 1701 3284 c 1,266,267
 1783 3228 1783 3228 1847 3152.5 c 128,-1,268
 1911 3077 1911 3077 1955 2988 c 1,159,160
696 1399 m 1,269,270
 663 1382 663 1382 641.5 1354.5 c 128,-1,271
 620 1327 620 1327 612 1295 c 1,272,273
 614 1264 614 1264 592 1240.5 c 128,-1,274
 570 1217 570 1217 536 1214 c 0,275,276
 503 1212 503 1212 477 1231.5 c 128,-1,277
 451 1251 451 1251 449 1282 c 1,278,279
 455 1352 455 1352 492.5 1412.5 c 128,-1,280
 530 1473 530 1473 591 1513 c 0,281,282
 619 1532 619 1532 652.5 1529.5 c 128,-1,283
 686 1527 686 1527 709 1504 c 1,284,285
 730 1480 730 1480 726.5 1449 c 128,-1,286
 723 1418 723 1418 696 1399 c 1,269,270
1013 2346 m 0,287,288
 1048 2388 1048 2388 1087 2417.5 c 128,-1,289
 1126 2447 1126 2447 1163 2463 c 128,-1,290
 1200 2479 1200 2479 1232 2479 c 128,-1,291
 1264 2479 1264 2479 1286 2460 c 0,292,293
 1307 2442 1307 2442 1313 2410.5 c 128,-1,294
 1319 2379 1319 2379 1310 2339.5 c 128,-1,295
 1301 2300 1301 2300 1278.5 2256.5 c 128,-1,296
 1256 2213 1256 2213 1221 2172 c 0,297,298
 1186 2130 1186 2130 1147 2100.5 c 128,-1,299
 1108 2071 1108 2071 1071 2055 c 128,-1,300
 1034 2039 1034 2039 1002 2039 c 128,-1,301
 970 2039 970 2039 948 2057 c 0,302,303
 927 2075 927 2075 921 2107 c 128,-1,304
 915 2139 915 2139 924 2178 c 128,-1,305
 933 2217 933 2217 955.5 2260.5 c 128,-1,306
 978 2304 978 2304 1013 2346 c 0,287,288
EndSplineSet
EndChar
StartChar: O
Encoding: 79 79 38
Width: 3183
GlyphClass: 2
Flags: W
Fore
137 1504 m 1,0,1
 170 1873 170 1873 363 2170 c 0,2,3
 459 2320 459 2320 588.5 2438 c 128,-1,4
 718 2556 718 2556 878 2642 c 0,5,6
 1201 2815 1201 2815 1606 2815 c 1,7,8
 1948 2810 1948 2810 2251 2664 c 0,9,10
 2555 2516 2555 2516 2759 2238 c 0,11,12
 2861 2098 2861 2098 2927.5 1930.5 c 128,-1,13
 2994 1763 2994 1763 3023 1570 c 1,14,15
 3040 1478 3040 1478 3040 1352 c 0,16,17
 3040 1001 3040 1001 2880 670 c 0,18,19
 2800 505 2800 505 2679.5 369 c 128,-1,20
 2559 233 2559 233 2400 127 c 0,21,22
 2241 20 2241 20 2049.5 -36 c 128,-1,23
 1858 -92 1858 -92 1637 -96 c 1,24,25
 1475 -96 1475 -96 1324.5 -70 c 128,-1,26
 1174 -44 1174 -44 1035 7 c 1,27,28
 759 112 759 112 556 306 c 0,29,30
 351 502 351 502 242 766 c 0,31,32
 188 898 188 898 159 1042.5 c 128,-1,33
 130 1187 130 1187 128 1343 c 1,34,35
 133 1376 133 1376 135 1416.5 c 128,-1,36
 137 1457 137 1457 137 1504 c 1,0,1
868 1495 m 0,37,38
 868 1483 868 1483 867.5 1465.5 c 128,-1,39
 867 1448 867 1448 866 1425 c 0,40,41
 865 1401 865 1401 864.5 1383 c 128,-1,42
 864 1365 864 1365 864 1355 c 0,43,44
 864 1157 864 1157 883 982.5 c 128,-1,45
 902 808 902 808 938 659 c 1,46,47
 1013 361 1013 361 1173 194 c 0,48,49
 1253 111 1253 111 1356 67.5 c 128,-1,50
 1459 24 1459 24 1584 23 c 1,51,52
 1589 24 1589 24 1593 26.5 c 128,-1,53
 1597 29 1597 29 1601 31 c 1,54,55
 1858 34 1858 34 2014 215 c 0,56,57
 2092 305 2092 305 2148 421 c 128,-1,58
 2204 537 2204 537 2237 677 c 0,59,60
 2270 820 2270 820 2287 971.5 c 128,-1,61
 2304 1123 2304 1123 2304 1285 c 0,62,63
 2304 1310 2304 1310 2303 1344 c 128,-1,64
 2302 1378 2302 1378 2300 1420 c 0,65,66
 2299 1463 2299 1463 2297.5 1494 c 128,-1,67
 2296 1525 2296 1525 2296 1545 c 1,68,69
 2286 1686 2286 1686 2269 1809 c 128,-1,70
 2252 1932 2252 1932 2228 2036 c 0,71,72
 2204 2139 2204 2139 2171.5 2227 c 128,-1,73
 2139 2315 2139 2315 2098 2387 c 0,74,75
 2017 2531 2017 2531 1891 2607 c 0,76,77
 1766 2683 1766 2683 1593 2687 c 1,78,79
 1251 2687 1251 2687 1073 2365 c 1,80,81
 985 2203 985 2203 933.5 1985.5 c 128,-1,82
 882 1768 882 1768 868 1495 c 0,37,38
EndSplineSet
EndChar
StartChar: P
Encoding: 80 80 39
Width: 2503
GlyphClass: 2
Flags: W
Fore
1223 0 m 1,0,-1
 143 0 l 1,1,2
 105 96 105 96 84.5 201 c 128,-1,3
 64 306 64 306 64 417 c 0,4,5
 64 603 64 603 119.5 771.5 c 128,-1,6
 175 940 175 940 274.5 1081.5 c 128,-1,7
 374 1223 374 1223 511.5 1331 c 128,-1,8
 649 1439 649 1439 814 1501 c 1,9,10
 743 1534 743 1534 684 1585 c 128,-1,11
 625 1636 625 1636 583 1700.5 c 128,-1,12
 541 1765 541 1765 517 1841 c 128,-1,13
 493 1917 493 1917 493 2000 c 0,14,15
 493 2105 493 2105 530.5 2198.5 c 128,-1,16
 568 2292 568 2292 633 2364.5 c 128,-1,17
 698 2437 698 2437 786.5 2484 c 128,-1,18
 875 2531 875 2531 976 2542 c 1,19,20
 903 2598 903 2598 859.5 2682 c 128,-1,21
 816 2766 816 2766 816 2865 c 0,22,23
 816 2950 816 2950 848 3024 c 128,-1,24
 880 3098 880 3098 935 3153 c 128,-1,25
 990 3208 990 3208 1064.5 3240.5 c 128,-1,26
 1139 3273 1139 3273 1223 3273 c 128,-1,27
 1307 3273 1307 3273 1381.5 3240.5 c 128,-1,28
 1456 3208 1456 3208 1511 3153 c 128,-1,29
 1566 3098 1566 3098 1598.5 3024 c 128,-1,30
 1631 2950 1631 2950 1631 2865 c 0,31,32
 1631 2766 1631 2766 1587 2682 c 128,-1,33
 1543 2598 1543 2598 1470 2542 c 1,34,35
 1571 2531 1571 2531 1659.5 2484 c 128,-1,36
 1748 2437 1748 2437 1813 2364.5 c 128,-1,37
 1878 2292 1878 2292 1915.5 2198.5 c 128,-1,38
 1953 2105 1953 2105 1953 2000 c 0,39,40
 1953 1917 1953 1917 1929 1841 c 128,-1,41
 1905 1765 1905 1765 1863 1700.5 c 128,-1,42
 1821 1636 1821 1636 1762 1585 c 128,-1,43
 1703 1534 1703 1534 1632 1501 c 1,44,45
 1797 1439 1797 1439 1934.5 1331 c 128,-1,46
 2072 1223 2072 1223 2171.5 1081.5 c 128,-1,47
 2271 940 2271 940 2326.5 771.5 c 128,-1,48
 2382 603 2382 603 2382 417 c 0,49,50
 2382 306 2382 306 2361.5 201 c 128,-1,51
 2341 96 2341 96 2303 0 c 1,52,-1
 1223 0 l 1,0,-1
1223 134 m 1,53,-1
 2107 134 l 1,54,55
 2125 202 2125 202 2134.5 272.5 c 128,-1,56
 2144 343 2144 343 2144 417 c 0,57,58
 2144 574 2144 574 2103 718 c 128,-1,59
 2062 862 2062 862 1989 984 c 128,-1,60
 1916 1106 1916 1106 1814 1201 c 128,-1,61
 1712 1296 1712 1296 1590 1356 c 1,62,63
 1564 1359 1564 1359 1542 1371.5 c 128,-1,64
 1520 1384 1520 1384 1504 1403.5 c 128,-1,65
 1488 1423 1488 1423 1478.5 1448 c 128,-1,66
 1469 1473 1469 1473 1469 1501 c 0,67,68
 1469 1530 1469 1530 1480 1554.5 c 128,-1,69
 1491 1579 1491 1579 1508 1599 c 128,-1,70
 1525 1619 1525 1619 1546.5 1633.5 c 128,-1,71
 1568 1648 1568 1648 1590 1656 c 1,72,73
 1665 1715 1665 1715 1711 1804 c 128,-1,74
 1757 1893 1757 1893 1757 2000 c 0,75,76
 1757 2078 1757 2078 1732.5 2147.5 c 128,-1,77
 1708 2217 1708 2217 1664.5 2271.5 c 128,-1,78
 1621 2326 1621 2326 1562.5 2361 c 128,-1,79
 1504 2396 1504 2396 1438 2406 c 1,80,81
 1416 2408 1416 2408 1396 2419.5 c 128,-1,82
 1376 2431 1376 2431 1361.5 2449 c 128,-1,83
 1347 2467 1347 2467 1338.5 2490.5 c 128,-1,84
 1330 2514 1330 2514 1330 2540 c 0,85,86
 1330 2570 1330 2570 1341 2596.5 c 128,-1,87
 1352 2623 1352 2623 1370 2645 c 1,88,89
 1414 2685 1414 2685 1440.5 2742 c 128,-1,90
 1467 2799 1467 2799 1467 2865 c 0,91,92
 1467 2921 1467 2921 1448 2970.5 c 128,-1,93
 1429 3020 1429 3020 1395.5 3057 c 128,-1,94
 1362 3094 1362 3094 1317.5 3115 c 128,-1,95
 1273 3136 1273 3136 1223 3136 c 128,-1,96
 1173 3136 1173 3136 1128.5 3115 c 128,-1,97
 1084 3094 1084 3094 1050.5 3057 c 128,-1,98
 1017 3020 1017 3020 998 2970.5 c 128,-1,99
 979 2921 979 2921 979 2865 c 0,100,101
 979 2799 979 2799 1006 2742 c 128,-1,102
 1033 2685 1033 2685 1076 2645 c 1,103,104
 1094 2623 1094 2623 1105 2596.5 c 128,-1,105
 1116 2570 1116 2570 1116 2540 c 0,106,107
 1116 2514 1116 2514 1107.5 2490.5 c 128,-1,108
 1099 2467 1099 2467 1084.5 2449 c 128,-1,109
 1070 2431 1070 2431 1050.5 2419.5 c 128,-1,110
 1031 2408 1031 2408 1008 2406 c 1,111,112
 942 2396 942 2396 883.5 2361 c 128,-1,113
 825 2326 825 2326 782 2271.5 c 128,-1,114
 739 2217 739 2217 714 2147.5 c 128,-1,115
 689 2078 689 2078 689 2000 c 0,116,117
 689 1893 689 1893 735.5 1804 c 128,-1,118
 782 1715 782 1715 856 1656 c 1,119,120
 878 1648 878 1648 899.5 1633.5 c 128,-1,121
 921 1619 921 1619 938.5 1599 c 128,-1,122
 956 1579 956 1579 966.5 1554.5 c 128,-1,123
 977 1530 977 1530 977 1501 c 0,124,125
 977 1473 977 1473 967.5 1448 c 128,-1,126
 958 1423 958 1423 942 1403.5 c 128,-1,127
 926 1384 926 1384 904 1371.5 c 128,-1,128
 882 1359 882 1359 856 1356 c 1,129,130
 734 1296 734 1296 632 1201 c 128,-1,131
 530 1106 530 1106 456.5 984 c 128,-1,132
 383 862 383 862 342.5 718 c 128,-1,133
 302 574 302 574 302 417 c 0,134,135
 302 343 302 343 311.5 272.5 c 128,-1,136
 321 202 321 202 339 134 c 1,137,-1
 1223 134 l 1,53,-1
EndSplineSet
EndChar
StartChar: Q
Encoding: 81 81 40
Width: 3863
GlyphClass: 2
Flags: W
Fore
3492 2454 m 0,0,1
 3435 2454 3435 2454 3385.5 2475.5 c 128,-1,2
 3336 2497 3336 2497 3299 2534 c 128,-1,3
 3262 2571 3262 2571 3240.5 2620.5 c 128,-1,4
 3219 2670 3219 2670 3219 2726 c 128,-1,5
 3219 2782 3219 2782 3240.5 2832 c 128,-1,6
 3262 2882 3262 2882 3299 2919 c 128,-1,7
 3336 2956 3336 2956 3385.5 2977.5 c 128,-1,8
 3435 2999 3435 2999 3492 2999 c 0,9,10
 3548 2999 3548 2999 3597.5 2977.5 c 128,-1,11
 3647 2956 3647 2956 3684.5 2919 c 128,-1,12
 3722 2882 3722 2882 3743.5 2832 c 128,-1,13
 3765 2782 3765 2782 3765 2726 c 128,-1,14
 3765 2670 3765 2670 3743.5 2620.5 c 128,-1,15
 3722 2571 3722 2571 3684.5 2534 c 128,-1,16
 3647 2497 3647 2497 3597.5 2475.5 c 128,-1,17
 3548 2454 3548 2454 3492 2454 c 0,0,1
3492 2594 m 0,18,19
 3519 2594 3519 2594 3543.5 2604 c 128,-1,20
 3568 2614 3568 2614 3586 2632.5 c 128,-1,21
 3604 2651 3604 2651 3614.5 2675 c 128,-1,22
 3625 2699 3625 2699 3625 2726 c 0,23,24
 3625 2754 3625 2754 3614.5 2778 c 128,-1,25
 3604 2802 3604 2802 3586 2820 c 128,-1,26
 3568 2838 3568 2838 3543.5 2848.5 c 128,-1,27
 3519 2859 3519 2859 3492 2859 c 0,28,29
 3464 2859 3464 2859 3440 2848.5 c 128,-1,30
 3416 2838 3416 2838 3398 2820 c 128,-1,31
 3380 2802 3380 2802 3369.5 2778 c 128,-1,32
 3359 2754 3359 2754 3359 2726 c 0,33,34
 3359 2699 3359 2699 3369.5 2675 c 128,-1,35
 3380 2651 3380 2651 3398 2632.5 c 128,-1,36
 3416 2614 3416 2614 3440 2604 c 128,-1,37
 3464 2594 3464 2594 3492 2594 c 0,18,19
338 2594 m 0,38,39
 365 2594 365 2594 389 2604 c 128,-1,40
 413 2614 413 2614 431 2632.5 c 128,-1,41
 449 2651 449 2651 459.5 2675 c 128,-1,42
 470 2699 470 2699 470 2726 c 0,43,44
 470 2754 470 2754 459.5 2778 c 128,-1,45
 449 2802 449 2802 431 2820 c 128,-1,46
 413 2838 413 2838 389 2848.5 c 128,-1,47
 365 2859 365 2859 338 2859 c 0,48,49
 310 2859 310 2859 285.5 2848.5 c 128,-1,50
 261 2838 261 2838 243 2820 c 128,-1,51
 225 2802 225 2802 214.5 2778 c 128,-1,52
 204 2754 204 2754 204 2726 c 0,53,54
 204 2699 204 2699 214.5 2675 c 128,-1,55
 225 2651 225 2651 243 2632.5 c 128,-1,56
 261 2614 261 2614 285.5 2604 c 128,-1,57
 310 2594 310 2594 338 2594 c 0,38,39
338 2454 m 0,58,59
 281 2454 281 2454 231 2475.5 c 128,-1,60
 181 2497 181 2497 144 2534 c 128,-1,61
 107 2571 107 2571 85.5 2620.5 c 128,-1,62
 64 2670 64 2670 64 2726 c 128,-1,63
 64 2782 64 2782 85.5 2832 c 128,-1,64
 107 2882 107 2882 144 2919 c 128,-1,65
 181 2956 181 2956 231 2977.5 c 128,-1,66
 281 2999 281 2999 338 2999 c 0,67,68
 394 2999 394 2999 443.5 2977.5 c 128,-1,69
 493 2956 493 2956 530 2919 c 128,-1,70
 567 2882 567 2882 588.5 2832 c 128,-1,71
 610 2782 610 2782 610 2726 c 128,-1,72
 610 2670 610 2670 588.5 2620.5 c 128,-1,73
 567 2571 567 2571 530 2534 c 128,-1,74
 493 2497 493 2497 443.5 2475.5 c 128,-1,75
 394 2454 394 2454 338 2454 c 0,58,59
2754 2673 m 0,76,77
 2697 2673 2697 2673 2647.5 2694.5 c 128,-1,78
 2598 2716 2598 2716 2561 2753 c 128,-1,79
 2524 2790 2524 2790 2502.5 2839.5 c 128,-1,80
 2481 2889 2481 2889 2481 2946 c 0,81,82
 2481 3002 2481 3002 2502.5 3051.5 c 128,-1,83
 2524 3101 2524 3101 2561 3138.5 c 128,-1,84
 2598 3176 2598 3176 2647.5 3197.5 c 128,-1,85
 2697 3219 2697 3219 2754 3219 c 0,86,87
 2810 3219 2810 3219 2860 3197.5 c 128,-1,88
 2910 3176 2910 3176 2947 3138.5 c 128,-1,89
 2984 3101 2984 3101 3005.5 3051.5 c 128,-1,90
 3027 3002 3027 3002 3027 2946 c 0,91,92
 3027 2889 3027 2889 3005.5 2839.5 c 128,-1,93
 2984 2790 2984 2790 2947 2753 c 128,-1,94
 2910 2716 2910 2716 2860 2694.5 c 128,-1,95
 2810 2673 2810 2673 2754 2673 c 0,76,77
2754 2813 m 0,96,97
 2782 2813 2782 2813 2806 2823.5 c 128,-1,98
 2830 2834 2830 2834 2848 2852 c 128,-1,99
 2866 2870 2866 2870 2876.5 2894 c 128,-1,100
 2887 2918 2887 2918 2887 2946 c 0,101,102
 2887 2973 2887 2973 2876.5 2997.5 c 128,-1,103
 2866 3022 2866 3022 2848 3040 c 128,-1,104
 2830 3058 2830 3058 2806 3068.5 c 128,-1,105
 2782 3079 2782 3079 2754 3079 c 128,-1,106
 2726 3079 2726 3079 2702 3068.5 c 128,-1,107
 2678 3058 2678 3058 2660 3040 c 128,-1,108
 2642 3022 2642 3022 2631.5 2997.5 c 128,-1,109
 2621 2973 2621 2973 2621 2946 c 0,110,111
 2621 2918 2621 2918 2631.5 2894 c 128,-1,112
 2642 2870 2642 2870 2660 2852 c 128,-1,113
 2678 2834 2678 2834 2702 2823.5 c 128,-1,114
 2726 2813 2726 2813 2754 2813 c 0,96,97
1072 2813 m 0,115,116
 1100 2813 1100 2813 1124 2823.5 c 128,-1,117
 1148 2834 1148 2834 1166 2852 c 128,-1,118
 1184 2870 1184 2870 1194.5 2894 c 128,-1,119
 1205 2918 1205 2918 1205 2946 c 0,120,121
 1205 2973 1205 2973 1194.5 2997.5 c 128,-1,122
 1184 3022 1184 3022 1166 3040 c 128,-1,123
 1148 3058 1148 3058 1124 3068.5 c 128,-1,124
 1100 3079 1100 3079 1072 3079 c 0,125,126
 1045 3079 1045 3079 1021 3068.5 c 128,-1,127
 997 3058 997 3058 979 3040 c 128,-1,128
 961 3022 961 3022 950.5 2997.5 c 128,-1,129
 940 2973 940 2973 940 2946 c 0,130,131
 940 2918 940 2918 950.5 2894 c 128,-1,132
 961 2870 961 2870 979 2852 c 128,-1,133
 997 2834 997 2834 1021 2823.5 c 128,-1,134
 1045 2813 1045 2813 1072 2813 c 0,115,116
1072 2673 m 0,135,136
 1016 2673 1016 2673 966.5 2694.5 c 128,-1,137
 917 2716 917 2716 880 2753 c 128,-1,138
 843 2790 843 2790 821.5 2839.5 c 128,-1,139
 800 2889 800 2889 800 2946 c 0,140,141
 800 3002 800 3002 821.5 3051.5 c 128,-1,142
 843 3101 843 3101 880 3138.5 c 128,-1,143
 917 3176 917 3176 966.5 3197.5 c 128,-1,144
 1016 3219 1016 3219 1072 3219 c 0,145,146
 1129 3219 1129 3219 1178.5 3197.5 c 128,-1,147
 1228 3176 1228 3176 1265 3138.5 c 128,-1,148
 1302 3101 1302 3101 1323.5 3051.5 c 128,-1,149
 1345 3002 1345 3002 1345 2946 c 0,150,151
 1345 2889 1345 2889 1323.5 2839.5 c 128,-1,152
 1302 2790 1302 2790 1265 2753 c 128,-1,153
 1228 2716 1228 2716 1178.5 2694.5 c 128,-1,154
 1129 2673 1129 2673 1072 2673 c 0,135,136
2875 170 m 1,155,156
 2799 205 2799 205 2696.5 233 c 128,-1,157
 2594 261 2594 261 2471.5 281 c 128,-1,158
 2349 301 2349 301 2210 312 c 128,-1,159
 2071 323 2071 323 1921 323 c 0,160,161
 1767 323 1767 323 1624.5 311.5 c 128,-1,162
 1482 300 1482 300 1358 279.5 c 128,-1,163
 1234 259 1234 259 1131 230.5 c 128,-1,164
 1028 202 1028 202 954 166 c 1,165,166
 1024 135 1024 135 1124.5 110 c 128,-1,167
 1225 85 1225 85 1349 66.5 c 128,-1,168
 1473 48 1473 48 1616.5 38 c 128,-1,169
 1760 28 1760 28 1916 28 c 0,170,171
 2071 28 2071 28 2214.5 38 c 128,-1,172
 2358 48 2358 48 2481.5 67 c 128,-1,173
 2605 86 2605 86 2705.5 112 c 128,-1,174
 2806 138 2806 138 2875 170 c 1,155,156
3144 97 m 1,175,176
 3095 54 3095 54 2981 18 c 128,-1,177
 2867 -18 2867 -18 2705 -45 c 128,-1,178
 2543 -72 2543 -72 2342 -87.5 c 128,-1,179
 2141 -103 2141 -103 1917 -103 c 0,180,181
 1690 -103 1690 -103 1486 -87 c 128,-1,182
 1282 -71 1282 -71 1119 -43 c 128,-1,183
 956 -15 956 -15 842.5 23 c 128,-1,184
 729 61 729 61 685 106 c 1,185,-1
 811 586 l 1,186,-1
 755 901 l 1,187,-1
 580 1206 l 1,188,-1
 409 2449 l 1,189,-1
 507 2489 l 1,190,-1
 1055 1564 l 1,191,-1
 1066 2663 l 1,192,-1
 1204 2688 l 1,193,-1
 1621 1582 l 1,194,-1
 1844 2771 l 1,195,-1
 1984 2771 l 1,196,-1
 2206 1586 l 1,197,-1
 2621 2688 l 1,198,-1
 2759 2663 l 1,199,-1
 2771 1563 l 1,200,-1
 3321 2491 l 1,201,-1
 3416 2445 l 1,202,-1
 3250 1208 l 1,203,-1
 3072 903 l 1,204,-1
 3015 584 l 1,205,-1
 3144 97 l 1,175,176
2823 1366 m 1,206,207
 2870 1351 2870 1351 2921 1351 c 0,208,209
 2984 1351 2984 1351 3037 1372 c 128,-1,210
 3090 1393 3090 1393 3137 1428 c 1,211,-1
 3242 2120 l 1,212,-1
 2823 1366 l 1,206,207
997 1376 m 1,213,-1
 587 2117 l 1,214,-1
 691 1442 l 1,215,216
 739 1407 739 1407 790.5 1384.5 c 128,-1,217
 842 1362 842 1362 904 1362 c 0,218,219
 952 1362 952 1362 997 1376 c 1,213,-1
1507 1488 m 1,220,-1
 1194 2386 l 1,221,-1
 1195 1473 l 1,222,223
 1199 1478 1199 1478 1203.5 1483 c 128,-1,224
 1208 1488 1208 1488 1212 1492 c 1,225,226
 1230 1529 1230 1529 1263.5 1552 c 128,-1,227
 1297 1575 1297 1575 1338 1575 c 0,228,229
 1374 1575 1374 1575 1404.5 1557.5 c 128,-1,230
 1435 1540 1435 1540 1456 1512 c 1,231,232
 1469 1506 1469 1506 1481.5 1499.5 c 128,-1,233
 1494 1493 1494 1493 1507 1488 c 1,220,-1
2630 1459 m 1,234,-1
 2630 2386 l 1,235,-1
 2317 1479 l 1,236,237
 2334 1486 2334 1486 2350 1494.5 c 128,-1,238
 2366 1503 2366 1503 2379 1514 c 1,239,240
 2396 1537 2396 1537 2423 1551 c 128,-1,241
 2450 1565 2450 1565 2481 1565 c 0,242,243
 2519 1565 2519 1565 2551 1545 c 128,-1,244
 2583 1525 2583 1525 2602 1495 c 0,245,246
 2608 1486 2608 1486 2615.5 1477.5 c 128,-1,247
 2623 1469 2623 1469 2630 1459 c 1,234,-1
2077 1497 m 1,248,-1
 1914 2476 l 1,249,-1
 1753 1510 l 1,250,251
 1767 1519 1767 1519 1781 1530 c 1,252,253
 1800 1570 1800 1570 1835 1595.5 c 128,-1,254
 1870 1621 1870 1621 1913 1621 c 128,-1,255
 1956 1621 1956 1621 1990.5 1595.5 c 128,-1,256
 2025 1570 2025 1570 2038 1530 c 1,257,258
 2046 1522 2046 1522 2056 1513.5 c 128,-1,259
 2066 1505 2066 1505 2077 1497 c 1,248,-1
1913 2914 m 0,260,261
 1941 2914 1941 2914 1965 2924.5 c 128,-1,262
 1989 2935 1989 2935 2007 2953 c 128,-1,263
 2025 2971 2025 2971 2035.5 2995.5 c 128,-1,264
 2046 3020 2046 3020 2046 3047 c 128,-1,265
 2046 3074 2046 3074 2035.5 3098.5 c 128,-1,266
 2025 3123 2025 3123 2007 3141 c 128,-1,267
 1989 3159 1989 3159 1965 3169.5 c 128,-1,268
 1941 3180 1941 3180 1913 3180 c 128,-1,269
 1885 3180 1885 3180 1861 3169.5 c 128,-1,270
 1837 3159 1837 3159 1819 3141 c 128,-1,271
 1801 3123 1801 3123 1790.5 3098.5 c 128,-1,272
 1780 3074 1780 3074 1780 3047 c 128,-1,273
 1780 3020 1780 3020 1790.5 2995.5 c 128,-1,274
 1801 2971 1801 2971 1819 2953 c 128,-1,275
 1837 2935 1837 2935 1861 2924.5 c 128,-1,276
 1885 2914 1885 2914 1913 2914 c 0,260,261
1913 2774 m 0,277,278
 1856 2774 1856 2774 1806.5 2795.5 c 128,-1,279
 1757 2817 1757 2817 1720 2854 c 128,-1,280
 1683 2891 1683 2891 1661.5 2940.5 c 128,-1,281
 1640 2990 1640 2990 1640 3047 c 0,282,283
 1640 3103 1640 3103 1661.5 3153 c 128,-1,284
 1683 3203 1683 3203 1720 3240 c 128,-1,285
 1757 3277 1757 3277 1806.5 3298.5 c 128,-1,286
 1856 3320 1856 3320 1913 3320 c 0,287,288
 1969 3320 1969 3320 2019 3298.5 c 128,-1,289
 2069 3277 2069 3277 2106 3240 c 128,-1,290
 2143 3203 2143 3203 2164.5 3153 c 128,-1,291
 2186 3103 2186 3103 2186 3047 c 0,292,293
 2186 2990 2186 2990 2164.5 2940.5 c 128,-1,294
 2143 2891 2143 2891 2106 2854 c 128,-1,295
 2069 2817 2069 2817 2019 2795.5 c 128,-1,296
 1969 2774 1969 2774 1913 2774 c 0,277,278
1025 745 m 1,297,-1
 1047 577 l 1,298,-1
 991 353 l 1,299,300
 1068 378 1068 378 1168.5 398 c 128,-1,301
 1269 418 1269 418 1387.5 432.5 c 128,-1,302
 1506 447 1506 447 1639 455 c 128,-1,303
 1772 463 1772 463 1915 463 c 0,304,305
 2056 463 2056 463 2187.5 455.5 c 128,-1,306
 2319 448 2319 448 2436.5 433.5 c 128,-1,307
 2554 419 2554 419 2654.5 399 c 128,-1,308
 2755 379 2755 379 2832 354 c 1,309,-1
 2780 575 l 1,310,-1
 2801 747 l 1,311,312
 2721 768 2721 768 2623 785.5 c 128,-1,313
 2525 803 2525 803 2412.5 815 c 128,-1,314
 2300 827 2300 827 2175.5 833 c 128,-1,315
 2051 839 2051 839 1920 839 c 0,316,317
 1785 839 1785 839 1659 832.5 c 128,-1,318
 1533 826 1533 826 1419 814 c 128,-1,319
 1305 802 1305 802 1205.5 784.5 c 128,-1,320
 1106 767 1106 767 1025 745 c 1,297,-1
2879 912 m 1,321,-1
 3055 1247 l 1,322,323
 3009 1229 3009 1229 2961.5 1220 c 128,-1,324
 2914 1211 2914 1211 2865 1211 c 0,325,326
 2802 1211 2802 1211 2744 1225.5 c 128,-1,327
 2686 1240 2686 1240 2633.5 1267 c 128,-1,328
 2581 1294 2581 1294 2536.5 1332.5 c 128,-1,329
 2492 1371 2492 1371 2457 1418 c 1,330,331
 2406 1375 2406 1375 2341 1349 c 128,-1,332
 2276 1323 2276 1323 2203 1323 c 0,333,334
 2115 1323 2115 1323 2039.5 1361 c 128,-1,335
 1964 1399 1964 1399 1912 1466 c 1,336,337
 1860 1407 1860 1407 1784.5 1370 c 128,-1,338
 1709 1333 1709 1333 1621 1333 c 0,339,340
 1551 1333 1551 1333 1487.5 1357.5 c 128,-1,341
 1424 1382 1424 1382 1372 1426 c 1,342,343
 1336 1380 1336 1380 1290 1342 c 128,-1,344
 1244 1304 1244 1304 1192 1277.5 c 128,-1,345
 1140 1251 1140 1251 1081 1236 c 128,-1,346
 1022 1221 1022 1221 960 1221 c 0,347,348
 909 1221 909 1221 861 1230.5 c 128,-1,349
 813 1240 813 1240 768 1257 c 1,350,-1
 950 911 l 1,351,352
 1035 933 1035 933 1141.5 951 c 128,-1,353
 1248 969 1248 969 1372 981.5 c 128,-1,354
 1496 994 1496 994 1634.5 1000.5 c 128,-1,355
 1773 1007 1773 1007 1920 1007 c 0,356,357
 2065 1007 2065 1007 2201.5 1000.5 c 128,-1,358
 2338 994 2338 994 2460.5 982 c 128,-1,359
 2583 970 2583 970 2689 952 c 128,-1,360
 2795 934 2795 934 2879 912 c 1,321,-1
EndSplineSet
EndChar
StartChar: R
Encoding: 82 82 41
Width: 2781
GlyphClass: 2
Flags: W
Fore
1628 2862 m 1,0,-1
 1969 2862 l 1,1,-1
 1969 3140 l 1,2,-1
 2524 3140 l 1,3,-1
 2521 2526 l 1,4,-1
 2076 2183 l 1,5,-1
 2076 1226 l 1,6,-1
 2417 887 l 1,7,-1
 2417 477 l 1,8,-1
 2659 477 l 1,9,-1
 2659 0 l 1,10,-1
 64 0 l 1,11,-1
 64 477 l 1,12,-1
 299 477 l 1,13,-1
 299 887 l 1,14,-1
 640 1226 l 1,15,-1
 640 2183 l 1,16,-1
 199 2526 l 1,17,-1
 199 3140 l 1,18,-1
 747 3140 l 1,19,-1
 747 2862 l 1,20,-1
 1088 2862 l 1,21,-1
 1088 3140 l 1,22,-1
 1628 3140 l 1,23,-1
 1628 2862 l 1,0,-1
2401 342 m 1,24,-1
 315 342 l 1,25,-1
 315 134 l 1,26,-1
 2401 134 l 1,27,-1
 2401 342 l 1,24,-1
2186 835 m 1,28,-1
 1956 1076 l 1,29,-1
 760 1076 l 1,30,-1
 530 835 l 1,31,-1
 530 492 l 1,32,-1
 2186 492 l 1,33,-1
 2186 835 l 1,28,-1
1880 2159 m 1,34,-1
 837 2159 l 1,35,-1
 837 1250 l 1,36,-1
 1880 1250 l 1,37,-1
 1880 2159 l 1,34,-1
2325 2619 m 1,38,-1
 2325 3005 l 1,39,-1
 2147 3005 l 1,40,-1
 2147 2734 l 1,41,-1
 1486 2734 l 1,42,-1
 1486 3005 l 1,43,-1
 1230 3005 l 1,44,-1
 1230 2734 l 1,45,-1
 576 2734 l 1,46,-1
 576 3005 l 1,47,-1
 391 3005 l 1,48,-1
 391 2619 l 1,49,-1
 747 2318 l 1,50,-1
 1972 2318 l 1,51,-1
 2325 2619 l 1,38,-1
EndSplineSet
EndChar
StartChar: S
Encoding: 83 83 42
Width: 3696
GlyphClass: 2
Flags: W
Fore
905 2603 m 0,0,1
 897 2595 897 2595 892 2590 c 128,-1,2
 887 2585 887 2585 883.5 2580.5 c 128,-1,3
 880 2576 880 2576 876.5 2571 c 128,-1,4
 873 2566 873 2566 868 2558 c 0,5,6
 862 2550 862 2550 849 2528 c 128,-1,7
 836 2506 836 2506 822 2479.5 c 128,-1,8
 808 2453 808 2453 795 2425 c 128,-1,9
 782 2397 782 2397 774 2376 c 0,10,11
 765 2352 765 2352 762 2333.5 c 128,-1,12
 759 2315 759 2315 759.5 2297.5 c 128,-1,13
 760 2280 760 2280 761.5 2263.5 c 128,-1,14
 763 2247 763 2247 764 2227 c 1,15,16
 757 2168 757 2168 737.5 2114.5 c 128,-1,17
 718 2061 718 2061 689 2005.5 c 128,-1,18
 660 1950 660 1950 621 1888 c 128,-1,19
 582 1826 582 1826 536 1752 c 0,20,21
 492 1681 492 1681 458.5 1630.5 c 128,-1,22
 425 1580 425 1580 400 1537 c 128,-1,23
 375 1494 375 1494 357.5 1451 c 128,-1,24
 340 1408 340 1408 327 1352 c 0,25,26
 320 1319 320 1319 320 1275.5 c 128,-1,27
 320 1232 320 1232 329 1188 c 128,-1,28
 338 1144 338 1144 356 1103.5 c 128,-1,29
 374 1063 374 1063 401 1035 c 0,30,31
 440 995 440 995 478.5 970 c 128,-1,32
 517 945 517 945 569 949 c 0,33,34
 577 950 577 950 587.5 952 c 128,-1,35
 598 954 598 954 607 957 c 1,36,37
 624 969 624 969 642.5 972 c 128,-1,38
 661 975 661 975 678 968 c 0,39,40
 700 960 700 960 715 936.5 c 128,-1,41
 730 913 730 913 735 881 c 1,42,43
 740 867 740 867 751.5 855 c 128,-1,44
 763 843 763 843 778 837.5 c 128,-1,45
 793 832 793 832 808 833.5 c 128,-1,46
 823 835 823 835 834 845 c 0,47,48
 846 856 846 856 857 876.5 c 128,-1,49
 868 897 868 897 883 927 c 128,-1,50
 898 957 898 957 917.5 997.5 c 128,-1,51
 937 1038 937 1038 965 1088 c 0,52,53
 998 1148 998 1148 1034 1196 c 128,-1,54
 1070 1244 1070 1244 1106.5 1282 c 128,-1,55
 1143 1320 1143 1320 1177.5 1349.5 c 128,-1,56
 1212 1379 1212 1379 1241 1402 c 0,57,58
 1275 1429 1275 1429 1324 1462 c 128,-1,59
 1373 1495 1373 1495 1456 1531 c 0,60,61
 1490 1545 1490 1545 1527.5 1562.5 c 128,-1,62
 1565 1580 1565 1580 1603 1601 c 128,-1,63
 1641 1622 1641 1622 1678 1647 c 128,-1,64
 1715 1672 1715 1672 1746 1701 c 1,65,66
 1784 1727 1784 1727 1819 1735 c 128,-1,67
 1854 1743 1854 1743 1880 1727 c 0,68,69
 1899 1716 1899 1716 1909.5 1692 c 128,-1,70
 1920 1668 1920 1668 1923 1638 c 1,71,72
 1933 1591 1933 1591 1935.5 1533.5 c 128,-1,73
 1938 1476 1938 1476 1931 1420 c 0,74,75
 1923 1359 1923 1359 1905.5 1294 c 128,-1,76
 1888 1229 1888 1229 1851 1159 c 128,-1,77
 1814 1089 1814 1089 1752 1012 c 128,-1,78
 1690 935 1690 935 1593 849 c 0,79,80
 1501 768 1501 768 1430 680 c 128,-1,81
 1359 592 1359 592 1311.5 501.5 c 128,-1,82
 1264 411 1264 411 1241.5 320 c 128,-1,83
 1219 229 1219 229 1224 142 c 1,84,-1
 1248 142 l 2,85,86
 1273 142 1273 142 1316 142 c 128,-1,87
 1359 142 1359 142 1418 142 c 128,-1,88
 1477 142 1477 142 1546 142 c 128,-1,89
 1615 142 1615 142 1692 142 c 128,-1,90
 1769 142 1769 142 1847.5 142 c 128,-1,91
 1926 142 1926 142 2003 142 c 128,-1,92
 2080 142 2080 142 2151 142 c 2,93,-1
 3185 142 l 2,94,95
 3184 142 3184 142 3185.5 172 c 128,-1,96
 3187 202 3187 202 3189 250.5 c 128,-1,97
 3191 299 3191 299 3192.5 361 c 128,-1,98
 3194 423 3194 423 3195 486 c 0,99,100
 3196 611 3196 611 3197.5 740.5 c 128,-1,101
 3199 870 3199 870 3194.5 1002.5 c 128,-1,102
 3190 1135 3190 1135 3175 1269 c 128,-1,103
 3160 1403 3160 1403 3126 1536 c 0,104,105
 3095 1664 3095 1664 3059.5 1772 c 128,-1,106
 3024 1880 3024 1880 2985.5 1972 c 128,-1,107
 2947 2064 2947 2064 2904.5 2141.5 c 128,-1,108
 2862 2219 2862 2219 2816 2285 c 1,109,110
 2749 2393 2749 2393 2654 2485.5 c 128,-1,111
 2559 2578 2559 2578 2446 2651 c 128,-1,112
 2333 2724 2333 2724 2208 2774.5 c 128,-1,113
 2083 2825 2083 2825 1956 2848 c 1,114,115
 1964 2803 1964 2803 1968.5 2751 c 128,-1,116
 1973 2699 1973 2699 1972 2655 c 0,117,118
 1971 2624 1971 2624 1952 2604 c 128,-1,119
 1933 2584 1933 2584 1907 2584 c 0,120,121
 1880 2584 1880 2584 1861.5 2604 c 128,-1,122
 1843 2624 1843 2624 1845 2655 c 1,123,124
 1848 2784 1848 2784 1801.5 2901.5 c 128,-1,125
 1755 3019 1755 3019 1668 3107 c 1,126,127
 1600 3032 1600 3032 1559 2936.5 c 128,-1,128
 1518 2841 1518 2841 1512 2735 c 0,129,130
 1511 2707 1511 2707 1491 2689 c 128,-1,131
 1471 2671 1471 2671 1444 2673 c 0,132,133
 1418 2675 1418 2675 1401 2697 c 128,-1,134
 1384 2719 1384 2719 1385 2748 c 0,135,136
 1385 2751 1385 2751 1385.5 2754 c 128,-1,137
 1386 2757 1386 2757 1389 2763 c 1,138,139
 1348 2750 1348 2750 1307 2731 c 128,-1,140
 1266 2712 1266 2712 1226 2689 c 1,141,142
 1202 2671 1202 2671 1176.5 2678 c 128,-1,143
 1151 2685 1151 2685 1137 2709 c 0,144,145
 1124 2733 1124 2733 1132 2760 c 128,-1,146
 1140 2787 1140 2787 1167 2802 c 1,147,148
 1197 2821 1197 2821 1228.5 2837.5 c 128,-1,149
 1260 2854 1260 2854 1289 2869 c 1,150,151
 1207 2959 1207 2959 1114 3030 c 128,-1,152
 1021 3101 1021 3101 919 3154 c 1,153,154
 927 3060 927 3060 946.5 2967 c 128,-1,155
 966 2874 966 2874 997 2784 c 1,156,157
 1005 2746 1005 2746 980 2697.5 c 128,-1,158
 955 2649 955 2649 905 2603 c 0,0,1
1955 2988 m 1,159,160
 2113 2978 2113 2978 2259.5 2936.5 c 128,-1,161
 2406 2895 2406 2895 2538 2826.5 c 128,-1,162
 2670 2758 2670 2758 2785 2665.5 c 128,-1,163
 2900 2573 2900 2573 2994 2462 c 0,164,165
 3060 2384 3060 2384 3123.5 2289 c 128,-1,166
 3187 2194 3187 2194 3243.5 2086 c 128,-1,167
 3300 1978 3300 1978 3348 1860.5 c 128,-1,168
 3396 1743 3396 1743 3430 1620 c 0,169,170
 3470 1477 3470 1477 3494 1324.5 c 128,-1,171
 3518 1172 3518 1172 3530.5 1019 c 128,-1,172
 3543 866 3543 866 3547 717.5 c 128,-1,173
 3551 569 3551 569 3551 435 c 2,174,-1
 3551 0 l 1,175,-1
 3470 0 l 2,176,177
 3388 0 3388 0 3240.5 0 c 128,-1,178
 3093 0 3093 0 2887.5 0 c 128,-1,179
 2682 0 2682 0 2433 0 c 2,180,-1
 1092 0 l 2,181,182
 1082 0 1082 0 1078.5 28.5 c 128,-1,183
 1075 57 1075 57 1075 98 c 128,-1,184
 1075 139 1075 139 1078.5 182.5 c 128,-1,185
 1082 226 1082 226 1087 255 c 0,186,187
 1096 304 1096 304 1126.5 391.5 c 128,-1,188
 1157 479 1157 479 1224 605 c 0,189,190
 1241 637 1241 637 1281 684.5 c 128,-1,191
 1321 732 1321 732 1377.5 792 c 128,-1,192
 1434 852 1434 852 1504.5 924 c 128,-1,193
 1575 996 1575 996 1653 1077 c 0,194,195
 1699 1124 1699 1124 1735 1184.5 c 128,-1,196
 1771 1245 1771 1245 1795 1310.5 c 128,-1,197
 1819 1376 1819 1376 1830.5 1441.5 c 128,-1,198
 1842 1507 1842 1507 1837 1563 c 1,199,200
 1801 1535 1801 1535 1760 1509.5 c 128,-1,201
 1719 1484 1719 1484 1675 1465 c 1,202,203
 1466 1389 1466 1389 1311 1278 c 128,-1,204
 1156 1167 1156 1167 1060 1025 c 1,205,206
 1053 1013 1053 1013 1030 971.5 c 128,-1,207
 1007 930 1007 930 970 863 c 0,208,209
 940 809 l 128,-1,210
 925 782 925 782 903 760 c 0,211,212
 893 749 893 749 882.5 741.5 c 128,-1,213
 872 734 872 734 859.5 729 c 128,-1,214
 847 724 847 724 831.5 721 c 128,-1,215
 816 718 816 718 793 717 c 0,216,217
 737 714 737 714 695 738.5 c 128,-1,218
 653 763 653 763 619 826 c 1,219,220
 586 817 586 817 549 810.5 c 128,-1,221
 512 804 512 804 469 806 c 1,222,223
 415 827 415 827 376 846.5 c 128,-1,224
 337 866 337 866 307 896 c 0,225,226
 256 946 256 946 224 996.5 c 128,-1,227
 192 1047 192 1047 174 1099.5 c 128,-1,228
 156 1152 156 1152 149.5 1206.5 c 128,-1,229
 143 1261 143 1261 143 1320 c 0,230,231
 143 1400 143 1400 194 1511.5 c 128,-1,232
 245 1623 245 1623 352 1764 c 0,233,234
 467 1913 467 1913 535 2029.5 c 128,-1,235
 603 2146 603 2146 612 2248 c 1,236,237
 612 2275 612 2275 612.5 2294 c 128,-1,238
 613 2313 613 2313 615 2331 c 128,-1,239
 617 2349 617 2349 619.5 2367 c 128,-1,240
 622 2385 622 2385 626 2409 c 0,241,242
 631 2441 631 2441 645.5 2473.5 c 128,-1,243
 660 2506 660 2506 675 2530 c 0,244,245
 689 2550 689 2550 697 2562.5 c 128,-1,246
 705 2575 705 2575 711.5 2584.5 c 128,-1,247
 718 2594 718 2594 725 2604 c 128,-1,248
 732 2614 732 2614 743 2630 c 0,249,250
 752 2642 752 2642 759 2651 c 128,-1,251
 766 2660 766 2660 773 2668 c 128,-1,252
 780 2676 780 2676 787.5 2683.5 c 128,-1,253
 795 2691 795 2691 804 2701 c 0,254,255
 820 2720 820 2720 833 2733.5 c 128,-1,256
 846 2747 846 2747 859 2760 c 1,257,258
 807 2908 807 2908 785.5 3060 c 128,-1,259
 764 3212 764 3212 773 3362 c 1,260,261
 964 3296 964 3296 1135 3183.5 c 128,-1,262
 1306 3071 1306 3071 1441 2918 c 1,263,264
 1475 3029 1475 3029 1541.5 3122.5 c 128,-1,265
 1608 3216 1608 3216 1701 3284 c 1,266,267
 1783 3228 1783 3228 1847 3152.5 c 128,-1,268
 1911 3077 1911 3077 1955 2988 c 1,159,160
696 1399 m 1,269,270
 663 1382 663 1382 641.5 1354.5 c 128,-1,271
 620 1327 620 1327 612 1295 c 1,272,273
 614 1264 614 1264 592 1240.5 c 128,-1,274
 570 1217 570 1217 536 1214 c 0,275,276
 503 1212 503 1212 477 1231.5 c 128,-1,277
 451 1251 451 1251 449 1282 c 1,278,279
 455 1352 455 1352 492.5 1412.5 c 128,-1,280
 530 1473 530 1473 591 1513 c 0,281,282
 619 1532 619 1532 652.5 1529.5 c 128,-1,283
 686 1527 686 1527 709 1504 c 1,284,285
 730 1480 730 1480 726.5 1449 c 128,-1,286
 723 1418 723 1418 696 1399 c 1,269,270
1013 2346 m 0,287,288
 1048 2388 1048 2388 1087 2417.5 c 128,-1,289
 1126 2447 1126 2447 1163 2463 c 128,-1,290
 1200 2479 1200 2479 1232 2479 c 128,-1,291
 1264 2479 1264 2479 1286 2460 c 0,292,293
 1307 2442 1307 2442 1313 2410.5 c 128,-1,294
 1319 2379 1319 2379 1310 2339.5 c 128,-1,295
 1301 2300 1301 2300 1278.5 2256.5 c 128,-1,296
 1256 2213 1256 2213 1221 2172 c 0,297,298
 1186 2130 1186 2130 1147 2100.5 c 128,-1,299
 1108 2071 1108 2071 1071 2055 c 128,-1,300
 1034 2039 1034 2039 1002 2039 c 128,-1,301
 970 2039 970 2039 948 2057 c 0,302,303
 927 2075 927 2075 921 2107 c 128,-1,304
 915 2139 915 2139 924 2178 c 128,-1,305
 933 2217 933 2217 955.5 2260.5 c 128,-1,306
 978 2304 978 2304 1013 2346 c 0,287,288
EndSplineSet
EndChar
StartChar: T
Encoding: 84 84 43
Width: 2781
GlyphClass: 2
Flags: W
Fore
1628 2862 m 1,0,-1
 1969 2862 l 1,1,-1
 1969 3140 l 1,2,-1
 2524 3140 l 1,3,-1
 2521 2526 l 1,4,-1
 2076 2183 l 1,5,-1
 2076 1226 l 1,6,-1
 2417 887 l 1,7,-1
 2417 477 l 1,8,-1
 2659 477 l 1,9,-1
 2659 0 l 1,10,-1
 64 0 l 1,11,-1
 64 477 l 1,12,-1
 299 477 l 1,13,-1
 299 887 l 1,14,-1
 640 1226 l 1,15,-1
 640 2183 l 1,16,-1
 199 2526 l 1,17,-1
 199 3140 l 1,18,-1
 747 3140 l 1,19,-1
 747 2862 l 1,20,-1
 1088 2862 l 1,21,-1
 1088 3140 l 1,22,-1
 1628 3140 l 1,23,-1
 1628 2862 l 1,0,-1
2401 342 m 1,24,-1
 315 342 l 1,25,-1
 315 134 l 1,26,-1
 2401 134 l 1,27,-1
 2401 342 l 1,24,-1
2186 835 m 1,28,-1
 1956 1076 l 1,29,-1
 760 1076 l 1,30,-1
 530 835 l 1,31,-1
 530 492 l 1,32,-1
 2186 492 l 1,33,-1
 2186 835 l 1,28,-1
1880 2159 m 1,34,-1
 837 2159 l 1,35,-1
 837 1250 l 1,36,-1
 1880 1250 l 1,37,-1
 1880 2159 l 1,34,-1
2325 2619 m 1,38,-1
 2325 3005 l 1,39,-1
 2147 3005 l 1,40,-1
 2147 2734 l 1,41,-1
 1486 2734 l 1,42,-1
 1486 3005 l 1,43,-1
 1230 3005 l 1,44,-1
 1230 2734 l 1,45,-1
 576 2734 l 1,46,-1
 576 3005 l 1,47,-1
 391 3005 l 1,48,-1
 391 2619 l 1,49,-1
 747 2318 l 1,50,-1
 1972 2318 l 1,51,-1
 2325 2619 l 1,38,-1
EndSplineSet
EndChar
StartChar: U
Encoding: 85 85 44
Width: 2310
GlyphClass: 2
Flags: W
Fore
1200 1051 m 1,0,-1
 458 -1 l 1,1,-1
 179 194 l 1,2,-1
 992 1351 l 1,3,-1
 178 2513 l 1,4,-1
 458 2708 l 1,5,-1
 1198 1649 l 1,6,-1
 1939 2709 l 1,7,-1
 2219 2513 l 1,8,-1
 1408 1352 l 1,9,-1
 2218 193 l 1,10,-1
 1939 -1 l 1,11,-1
 1200 1051 l 1,0,-1
EndSplineSet
EndChar
StartChar: Y
Encoding: 89 89 45
Width: 4096
GlyphClass: 2
Flags: W
Fore
3197 1388 m 0,0,1
 3197 1345 3197 1345 3207 1309 c 0,2,3
 3218 1273 3218 1273 3242 1251 c 0,4,5
 3268 1227 3268 1227 3310 1227 c 0,6,7
 3312 1228 3312 1228 3315 1228 c 0,8,9
 3419 1232 3419 1232 3421 1386 c 0,10,11
 3421 1433 3421 1433 3411 1470 c 0,12,13
 3400 1507 3400 1507 3375 1527 c 0,14,15
 3350 1548 3350 1548 3310 1548 c 0,16,17
 3201 1547 3201 1547 3197 1388 c 0,0,1
3054 1381 m 0,18,19
 3054 1435 3054 1435 3066 1481 c 0,20,21
 3079 1527 3079 1527 3109 1564 c 0,22,23
 3138 1601 3138 1601 3190 1623 c 0,24,25
 3240 1645 3240 1645 3314 1645 c 0,26,27
 3363 1644 3363 1644 3407 1630 c 0,28,29
 3451 1617 3451 1617 3487 1587 c 128,-1,30
 3523 1557 3523 1557 3544 1507 c 0,31,32
 3565 1458 3565 1458 3566 1387 c 0,33,34
 3566 1337 3566 1337 3551 1292 c 0,35,36
 3538 1248 3538 1248 3507 1211 c 0,37,38
 3477 1176 3477 1176 3429 1155 c 128,-1,39
 3381 1134 3381 1134 3315 1133 c 0,40,41
 3222 1133 3222 1133 3164 1167 c 0,42,43
 3106 1202 3106 1202 3080 1258 c 0,44,45
 3054 1315 3054 1315 3054 1381 c 0,18,19
2848 1479 m 1,46,47
 2847 1512 2847 1512 2824 1530 c 0,48,49
 2802 1548 2802 1548 2766 1548 c 0,50,51
 2727 1548 2727 1548 2706 1528 c 0,52,53
 2684 1509 2684 1509 2676 1473 c 0,54,55
 2667 1436 2667 1436 2667 1384 c 0,56,57
 2667 1230 2667 1230 2758 1228 c 1,58,59
 2763 1230 2763 1230 2771 1230 c 0,60,61
 2812 1234 2812 1234 2829 1251 c 128,-1,62
 2846 1268 2846 1268 2850 1299 c 1,63,-1
 2993 1299 l 1,64,65
 2993 1254 2993 1254 2972 1217 c 0,66,67
 2950 1181 2950 1181 2902 1158 c 0,68,69
 2878 1147 2878 1147 2846 1141 c 128,-1,70
 2814 1135 2814 1135 2775 1133 c 2,71,-1
 2761 1133 l 2,72,73
 2684 1133 2684 1133 2631 1162 c 0,74,75
 2579 1191 2579 1191 2552 1246 c 0,76,77
 2526 1300 2526 1300 2523 1371 c 1,78,-1
 2523 1387 l 2,79,80
 2523 1476 2523 1476 2552 1534 c 0,81,82
 2581 1591 2581 1591 2634 1618 c 0,83,84
 2686 1643 2686 1643 2758 1645 c 1,85,86
 2834 1645 2834 1645 2887 1624 c 0,87,88
 2939 1604 2939 1604 2966 1568 c 0,89,90
 2993 1531 2993 1531 2993 1484 c 2,91,-1
 2993 1479 l 1,92,-1
 2848 1479 l 1,46,47
2307 1639 m 1,93,-1
 2446 1639 l 1,94,-1
 2446 1143 l 1,95,-1
 2307 1143 l 1,96,-1
 2307 1639 l 1,93,-1
1893 1402 m 1,97,-1
 1720 1639 l 1,98,-1
 1895 1639 l 1,99,-1
 1991 1483 l 1,100,-1
 2091 1639 l 1,101,-1
 2247 1639 l 1,102,-1
 2072 1405 l 1,103,-1
 2256 1143 l 1,104,-1
 2082 1143 l 1,105,-1
 1975 1319 l 1,106,-1
 1866 1143 l 1,107,-1
 1707 1143 l 1,108,-1
 1893 1402 l 1,97,-1
1288 1639 m 1,109,-1
 1665 1639 l 1,110,-1
 1665 1543 l 1,111,-1
 1427 1543 l 1,112,-1
 1427 1442 l 1,113,-1
 1647 1442 l 1,114,-1
 1647 1346 l 1,115,-1
 1427 1346 l 1,116,-1
 1427 1239 l 1,117,-1
 1665 1239 l 1,118,-1
 1665 1143 l 1,119,-1
 1288 1143 l 1,120,-1
 1288 1639 l 1,109,-1
600 1639 m 1,121,-1
 816 1639 l 1,122,-1
 899 1303 l 1,123,-1
 900 1303 l 1,124,-1
 979 1639 l 1,125,-1
 1192 1639 l 1,126,-1
 1192 1143 l 1,127,-1
 1075 1143 l 1,128,-1
 1075 1556 l 1,129,-1
 1074 1557 l 1,130,-1
 955 1143 l 1,131,-1
 829 1143 l 1,132,-1
 718 1560 l 1,133,-1
 717 1559 l 1,134,-1
 717 1143 l 1,135,-1
 600 1143 l 1,136,-1
 600 1639 l 1,121,-1
2966 503 m 1,137,138
 2976 484 2976 484 2993 479 c 0,139,140
 3011 474 3011 474 3033 482 c 0,141,142
 3052 488 3052 488 3061 506 c 128,-1,143
 3070 524 3070 524 3063 545 c 0,144,145
 3056 567 3056 567 3038 576 c 0,146,147
 3021 586 3021 586 2996 577 c 0,148,149
 2970 569 2970 569 2963 550 c 0,150,151
 2956 530 2956 530 2963 508 c 1,152,153
 2966 506 2966 506 2966 503 c 1,137,138
3011 345 m 0,154,155
 3020 322 3020 322 3040 315 c 128,-1,156
 3060 308 3060 308 3087 317 c 0,157,158
 3113 326 3113 326 3123 345 c 0,159,160
 3133 363 3133 363 3125 388 c 0,161,162
 3116 412 3116 412 3097 419 c 0,163,164
 3078 427 3078 427 3051 417 c 0,165,166
 3023 408 3023 408 3013 389 c 128,-1,167
 3003 370 3003 370 3011 345 c 0,154,155
2979 430 m 1,168,169
 2946 425 2946 425 2921 432 c 128,-1,170
 2896 439 2896 439 2881 454 c 0,171,172
 2865 470 2865 470 2858 489 c 1,173,174
 2852 512 2852 512 2855 533 c 0,175,176
 2858 544 2858 544 2862.5 554 c 128,-1,177
 2867 564 2867 564 2875 574 c 0,178,179
 2891 593 2891 593 2916 609 c 0,180,181
 2942 625 2942 625 2978 637 c 0,182,183
 3020 652 3020 652 3056 653 c 128,-1,184
 3092 654 3092 654 3119 641 c 0,185,186
 3145 627 3145 627 3157 596 c 0,187,188
 3166 569 3166 569 3161 546 c 0,189,190
 3156 522 3156 522 3140 502 c 0,191,192
 3126 484 3126 484 3106 473 c 1,193,-1
 3106 471 l 1,194,195
 3147 481 3147 481 3185 467 c 0,196,197
 3222 452 3222 452 3237 408 c 0,198,199
 3250 372 3250 372 3235 340 c 0,200,201
 3220 309 3220 309 3188 285 c 0,202,203
 3172 274 3172 274 3154 264.5 c 128,-1,204
 3136 255 3136 255 3115 248 c 0,205,206
 3066 231 3066 231 3023 230 c 128,-1,207
 2980 229 2980 229 2951 246 c 128,-1,208
 2922 263 2922 263 2909 296 c 0,209,210
 2909 298 l 2,211,-1
 2909 299 l 1,212,-1
 2909 299 l 1,213,214
 2902 320 2902 320 2906 343 c 0,215,216
 2909 365 2909 365 2926 387 c 0,217,218
 2945 411 2945 411 2979 428 c 1,219,-1
 2979 430 l 1,168,169
2746 425 m 0,220,221
 2739 456 2739 456 2719 467 c 0,222,223
 2698 478 2698 478 2673 473 c 0,224,225
 2642 467 2642 467 2630 448 c 0,226,227
 2619 429 2619 429 2623 401 c 0,228,229
 2626 389 2626 389 2632 379.5 c 128,-1,230
 2638 370 2638 370 2646 363 c 0,231,232
 2664 349 2664 349 2695 355 c 0,233,234
 2713 359 2713 359 2726 370 c 0,235,236
 2732 376 2732 376 2736.5 382.5 c 128,-1,237
 2741 389 2741 389 2744 396 c 0,238,239
 2748 412 2748 412 2746 425 c 0,220,221
2564 217 m 1,240,-1
 2665 239 l 1,241,242
 2669 222 2669 222 2685 216 c 0,243,244
 2693 214 2693 214 2703.5 213.5 c 128,-1,245
 2714 213 2714 213 2726 216 c 0,246,247
 2749 221 2749 221 2760 235 c 0,248,249
 2771 247 2771 247 2774 267 c 0,250,251
 2775 276 2775 276 2775 284 c 128,-1,252
 2775 292 2775 292 2774 299 c 128,-1,253
 2773 306 2773 306 2771.5 317 c 128,-1,254
 2770 328 2770 328 2767 344 c 1,255,256
 2743 298 2743 298 2680 283 c 1,257,258
 2647 277 2647 277 2614 285 c 0,259,260
 2582 292 2582 292 2556 316 c 1,261,262
 2532 341 2532 341 2524 378 c 0,263,264
 2517 414 2517 414 2525 442 c 0,265,266
 2533 471 2533 471 2553 492 c 128,-1,267
 2573 513 2573 513 2599 526 c 0,268,269
 2613 533 2613 533 2628 538.5 c 128,-1,270
 2643 544 2643 544 2659 547 c 0,271,272
 2701 556 2701 556 2737 550 c 1,273,274
 2773 542 2773 542 2799 520 c 0,275,276
 2826 499 2826 499 2845 464 c 0,277,278
 2854 446 2854 446 2861 425.5 c 128,-1,279
 2868 405 2868 405 2873 381 c 0,280,281
 2878 358 2878 358 2879.5 335.5 c 128,-1,282
 2881 313 2881 313 2879 293 c 0,283,284
 2876 273 2876 273 2871 255.5 c 128,-1,285
 2866 238 2866 238 2857 222 c 0,286,287
 2848 207 2848 207 2836.5 194 c 128,-1,288
 2825 181 2825 181 2810 171 c 0,289,290
 2796 161 2796 161 2778 154 c 128,-1,291
 2760 147 2760 147 2740 143 c 0,292,293
 2707 136 2707 136 2679 136.5 c 128,-1,294
 2651 137 2651 137 2626 146 c 0,295,296
 2577 163 2577 163 2564 217 c 1,240,-1
2397 369 m 0,297,298
 2394 400 2394 400 2375 415 c 1,299,300
 2356 428 2356 428 2329 425 c 0,301,302
 2299 421 2299 421 2286 404 c 1,303,304
 2271 388 2271 388 2273 359 c 0,305,306
 2276 334 2276 334 2292 318 c 0,307,308
 2308 303 2308 303 2339 306 c 0,309,310
 2357 307 2357 307 2372 317 c 0,311,312
 2386 328 2386 328 2392 341 c 0,313,314
 2399 356 2399 356 2397 369 c 0,297,298
2194 183 m 1,315,-1
 2297 193 l 1,316,317
 2300 176 2300 176 2315 168 c 0,318,319
 2331 161 2331 161 2356 164 c 0,320,321
 2379 167 2379 167 2392 179 c 0,322,323
 2404 190 2404 190 2408 209 c 0,324,325
 2413 227 2413 227 2412 241 c 0,326,327
 2412 249 2412 249 2411.5 260 c 128,-1,328
 2411 271 2411 271 2410 286 c 1,329,330
 2381 244 2381 244 2317 236 c 0,331,332
 2284 233 2284 233 2251 244 c 0,333,334
 2220 255 2220 255 2198 281 c 0,335,336
 2176 308 2176 308 2172 346 c 0,337,338
 2168 381 2168 381 2179 409 c 128,-1,339
 2190 437 2190 437 2212 456 c 128,-1,340
 2234 475 2234 475 2262 486 c 0,341,342
 2290 496 2290 496 2324 500 c 0,343,344
 2367 504 2367 504 2402 494 c 0,345,346
 2437 483 2437 483 2460 459 c 1,347,348
 2485 435 2485 435 2500 398 c 0,349,350
 2515 362 2515 362 2519 313 c 0,351,352
 2524 264 2524 264 2515 224 c 0,353,354
 2508 186 2508 186 2487 156 c 0,355,356
 2476 142 2476 142 2463.5 130 c 128,-1,357
 2451 118 2451 118 2434 110 c 0,358,359
 2419 102 2419 102 2400.5 96.5 c 128,-1,360
 2382 91 2382 91 2362 89 c 0,361,362
 2329 86 2329 86 2300.5 89.5 c 128,-1,363
 2272 93 2272 93 2250 104 c 0,364,365
 2202 126 2202 126 2194 183 c 1,315,-1
1877 419 m 1,366,367
 1938 437 1938 437 1990 480 c 1,368,-1
 2080 478 l 1,369,-1
 2073 85 l 1,370,-1
 1966 86 l 1,371,-1
 1971 379 l 1,372,373
 1920 346 1920 346 1876 331 c 1,374,-1
 1877 419 l 1,366,367
1462 322 m 1,375,-1
 1620 297 l 1,376,-1
 1610 231 l 1,377,-1
 1452 256 l 1,378,-1
 1462 322 l 1,375,-1
1144 475 m 1,379,380
 1149 535 1149 535 1082 559 c 1,381,382
 1037 572 1037 572 1000 544 c 0,383,384
 981 530 981 530 968.5 510 c 128,-1,385
 956 490 956 490 948 464 c 0,386,387
 943 446 943 446 941.5 429 c 128,-1,388
 940 412 940 412 942 396 c 0,389,390
 945 363 945 363 964 340 c 1,391,392
 972 328 972 328 983 320.5 c 128,-1,393
 994 313 994 313 1007 309 c 0,394,395
 1023 304 1023 304 1038 304.5 c 128,-1,396
 1053 305 1053 305 1066 309 c 0,397,398
 1094 320 1094 320 1104 347 c 1,399,-1
 1177 325 l 1,400,401
 1162 287 1162 287 1131 267 c 0,402,403
 1099 245 1099 245 1064 241 c 0,404,405
 1027 236 1027 236 994 247 c 0,406,407
 951 260 951 260 915 294 c 0,408,409
 881 327 881 327 868 377 c 128,-1,410
 855 427 855 427 874 486 c 0,411,412
 883 517 883 517 897 540.5 c 128,-1,413
 911 564 911 564 930 581 c 0,414,415
 967 616 967 616 1012 624 c 0,416,417
 1056 633 1056 633 1098 620 c 0,418,419
 1127 611 1127 611 1150.5 595.5 c 128,-1,420
 1174 580 1174 580 1190 560 c 0,421,422
 1207 538 1207 538 1214 511 c 128,-1,423
 1221 484 1221 484 1217 453 c 1,424,-1
 1144 475 l 1,379,380
711 546 m 0,425,426
 736 616 736 616 782 664 c 1,427,428
 825 713 825 713 885 741 c 0,429,430
 914 754 914 754 944.5 761.5 c 128,-1,431
 975 769 975 769 1006 771 c 0,432,433
 1072 775 1072 775 1129 758 c 1,434,435
 1192 737 1192 737 1244 696 c 1,436,437
 1269 674 1269 674 1289 649 c 128,-1,438
 1309 624 1309 624 1325 596 c 0,439,440
 1357 538 1357 538 1364 471 c 0,441,442
 1371 402 1371 402 1350 333 c 0,443,444
 1339 295 1339 295 1317.5 261 c 128,-1,445
 1296 227 1296 227 1265 197 c 1,446,447
 1205 136 1205 136 1118 111 c 0,448,449
 1075 98 1075 98 1030.5 98 c 128,-1,450
 986 98 986 98 940 110 c 1,451,452
 896 124 896 124 858 146.5 c 128,-1,453
 820 169 820 169 788 201 c 1,454,455
 726 267 726 267 701 356 c 0,456,457
 678 444 678 444 704 532 c 1,458,459
 707 535 707 535 708 538.5 c 128,-1,460
 709 542 709 542 711 546 c 0,425,426
795 515 m 0,461,462
 784 480 784 480 781.5 446.5 c 128,-1,463
 779 413 779 413 784 381 c 0,464,465
 794 318 794 318 837 269 c 1,466,467
 880 223 880 223 954 198 c 1,468,-1
 956 199 l 2,469,470
 958 199 l 1,471,-1
 958 199 l 1,472,473
 1016 182 1016 182 1066 186 c 0,474,475
 1117 191 1117 191 1158 214 c 0,476,477
 1178 226 1178 226 1196 241.5 c 128,-1,478
 1214 257 1214 257 1227 276 c 0,479,480
 1255 313 1255 313 1270 362 c 0,481,482
 1280 395 1280 395 1281.5 427.5 c 128,-1,483
 1283 460 1283 460 1277 490 c 0,484,485
 1271 521 1271 521 1257 548 c 128,-1,486
 1243 575 1243 575 1220 598 c 1,487,488
 1178 647 1178 647 1104 669 c 0,489,490
 1031 691 1031 691 969 677 c 0,491,492
 938 671 938 671 910.5 657 c 128,-1,493
 883 643 883 643 861 621 c 0,494,495
 815 576 815 576 795 515 c 0,461,462
3826 2243 m 1,496,-1
 3930 2118 l 1,497,-1
 3786 1810 l 1,498,-1
 3788 1810 l 1,499,-1
 4023 2007 l 1,500,-1
 4086 1932 l 1,501,-1
 3770 1667 l 1,502,-1
 3669 1787 l 1,503,-1
 3817 2100 l 1,504,-1
 3816 2100 l 1,505,-1
 3575 1898 l 1,506,-1
 3509 1977 l 1,507,-1
 3826 2243 l 1,496,-1
3570 2412 m 1,508,-1
 3666 2347 l 1,509,-1
 3434 2005 l 1,510,-1
 3339 2069 l 1,511,-1
 3570 2412 l 1,508,-1
3074 2648 m 1,512,-1
 3180 2602 l 1,513,-1
 3083 2374 l 2,514,515
 3066 2334 3066 2334 3075 2302 c 0,516,517
 3084 2272 3084 2272 3122 2255 c 1,518,519
 3198 2225 3198 2225 3235 2310 c 1,520,-1
 3331 2538 l 1,521,-1
 3438 2493 l 1,522,-1
 3338 2257 l 1,523,524
 3308 2188 3308 2188 3246 2166 c 0,525,526
 3186 2144 3186 2144 3090 2182 c 0,527,528
 3070 2191 3070 2191 3052 2201.5 c 128,-1,529
 3034 2212 3034 2212 3019 2224 c 0,530,531
 2990 2249 2990 2249 2975 2279 c 0,532,533
 2959 2309 2959 2309 2958 2341 c 0,534,535
 2957 2374 2957 2374 2972 2408 c 1,536,-1
 3074 2648 l 1,512,-1
2589 2544 m 0,537,538
 2578 2488 2578 2488 2591 2447 c 0,539,540
 2604 2405 2604 2405 2657 2394 c 1,541,542
 2742 2379 2742 2379 2772 2506 c 1,543,544
 2799 2635 2799 2635 2709 2655 c 2,545,-1
 2708 2655 l 2,546,547
 2617 2673 2617 2673 2589 2544 c 0,537,538
2642 2315 m 1,548,549
 2566 2331 2566 2331 2524 2369 c 0,550,551
 2483 2408 2483 2408 2472 2457 c 0,552,553
 2467 2483 2467 2483 2466 2509 c 128,-1,554
 2465 2535 2465 2535 2470 2562 c 0,555,556
 2480 2607 2480 2607 2499 2643 c 0,557,558
 2517 2679 2517 2679 2549 2704 c 128,-1,559
 2581 2729 2581 2729 2626 2737 c 128,-1,560
 2671 2745 2671 2745 2730 2732 c 0,561,562
 2784 2720 2784 2720 2826 2690 c 0,563,564
 2868 2661 2868 2661 2886 2609 c 0,565,566
 2896 2583 2896 2583 2897 2551 c 128,-1,567
 2898 2519 2898 2519 2890 2482 c 0,568,569
 2888 2474 2888 2474 2885 2465.5 c 128,-1,570
 2882 2457 2882 2457 2877 2448 c 0,571,572
 2873 2439 2873 2439 2867 2430.5 c 128,-1,573
 2861 2422 2861 2422 2855 2414 c 0,574,575
 2841 2398 2841 2398 2821 2384 c 0,576,577
 2812 2377 2812 2377 2801.5 2372 c 128,-1,578
 2791 2367 2791 2367 2780 2362 c 1,579,-1
 2780 2361 l 1,580,581
 2793 2362 2793 2362 2805 2361 c 0,582,583
 2818 2361 2818 2361 2830 2359 c 0,584,585
 2841 2358 2841 2358 2854 2355 c 0,586,587
 2866 2353 l 128,-1,588
 2872 2352 2872 2352 2877 2351 c 1,589,-1
 2862 2277 l 1,590,-1
 2719 2308 l 2,591,592
 2717 2308 2717 2308 2710 2309 c 128,-1,593
 2703 2310 2703 2310 2690 2311 c 128,-1,594
 2677 2312 2677 2312 2665 2313 c 128,-1,595
 2653 2314 2653 2314 2642 2315 c 1,548,549
2088 2584 m 0,596,597
 2087 2566 2087 2566 2088.5 2549.5 c 128,-1,598
 2090 2533 2090 2533 2093 2518 c 0,599,600
 2101 2487 2101 2487 2121 2468 c 0,601,602
 2141 2448 2141 2448 2176 2446 c 1,603,604
 2179 2447 2179 2447 2181 2447 c 0,605,606
 2268 2447 2268 2447 2274 2576 c 0,607,608
 2275 2616 2275 2616 2268 2646 c 0,609,610
 2259 2678 2259 2678 2239 2694 c 1,611,612
 2220 2713 2220 2713 2185 2714 c 0,613,614
 2095 2716 2095 2716 2088 2584 c 0,596,597
1967 2582 m 0,615,616
 1968 2604 1968 2604 1971.5 2625 c 128,-1,617
 1975 2646 1975 2646 1981 2664 c 0,618,619
 1993 2703 1993 2703 2019 2733 c 128,-1,620
 2045 2763 2045 2763 2088 2780 c 0,621,622
 2131 2796 2131 2796 2192 2794 c 0,623,624
 2234 2792 2234 2792 2270 2780 c 1,625,626
 2306 2766 2306 2766 2335 2741 c 0,627,628
 2364 2715 2364 2715 2380 2673 c 0,629,630
 2396 2630 2396 2630 2394 2572 c 0,631,632
 2393 2551 2393 2551 2389.5 2531.5 c 128,-1,633
 2386 2512 2386 2512 2380 2493 c 0,634,635
 2367 2457 2367 2457 2340 2427 c 0,636,637
 2314 2398 2314 2398 2273 2383 c 0,638,639
 2232 2367 2232 2367 2179 2369 c 0,640,641
 2140 2370 2140 2370 2108.5 2378 c 128,-1,642
 2077 2386 2077 2386 2053 2401 c 0,643,644
 2005 2432 2005 2432 1986 2479 c 0,645,646
 1966 2526 1966 2526 1967 2582 c 0,615,616
1638 2692 m 1,647,-1
 1648 2595 l 1,648,-1
 1700 2600 l 2,649,650
 1764 2607 1764 2607 1758 2659 c 1,651,652
 1753 2683 1753 2683 1736 2691 c 0,653,654
 1719 2700 1719 2700 1687 2697 c 2,655,-1
 1638 2692 l 1,647,-1
1515 2759 m 1,656,-1
 1693 2778 l 2,657,658
 1765 2786 1765 2786 1817 2769 c 0,659,660
 1867 2752 1867 2752 1875 2691 c 0,661,662
 1880 2645 1880 2645 1853 2615 c 0,663,664
 1826 2587 1826 2587 1781 2576 c 1,665,-1
 1781 2574 l 1,666,667
 1822 2577 1822 2577 1843 2564 c 0,668,669
 1864 2550 1864 2550 1871 2533 c 0,670,671
 1877 2515 1877 2515 1889 2466 c 0,672,673
 1895 2442 1895 2442 1901.5 2421.5 c 128,-1,674
 1908 2401 1908 2401 1916 2386 c 1,675,-1
 1792 2373 l 1,676,677
 1785 2386 1785 2386 1774 2435 c 0,678,679
 1769 2459 1769 2459 1766 2472.5 c 128,-1,680
 1763 2486 1763 2486 1763 2488 c 0,681,682
 1756 2514 1756 2514 1738 2518 c 0,683,684
 1721 2521 1721 2521 1683 2518 c 2,685,-1
 1656 2515 l 1,686,-1
 1673 2361 l 1,687,-1
 1558 2349 l 1,688,-1
 1515 2759 l 1,656,-1
1189 2608 m 1,689,-1
 1212 2513 l 1,690,-1
 1263 2526 l 2,691,692
 1325 2541 1325 2541 1312 2592 c 1,693,694
 1304 2616 1304 2616 1286 2621 c 1,695,696
 1277 2625 1277 2625 1264.5 2624 c 128,-1,697
 1252 2623 1252 2623 1236 2619 c 2,698,-1
 1189 2608 l 1,689,-1
1057 2658 m 1,699,-1
 1231 2701 l 2,700,701
 1302 2719 1302 2719 1355 2709 c 128,-1,702
 1408 2699 1408 2699 1424 2640 c 0,703,704
 1435 2595 1435 2595 1413 2562 c 0,705,706
 1401 2546 1401 2546 1384.5 2533.5 c 128,-1,707
 1368 2521 1368 2521 1347 2513 c 1,708,-1
 1347 2511 l 1,709,710
 1387 2520 1387 2520 1410 2510 c 0,711,712
 1432 2500 1432 2500 1441 2483 c 0,713,714
 1446 2474 1446 2474 1453 2458 c 128,-1,715
 1460 2442 1460 2442 1469 2419 c 128,-1,716
 1478 2396 1478 2396 1487.5 2377 c 128,-1,717
 1497 2358 1497 2358 1507 2344 c 1,718,-1
 1385 2314 l 1,719,720
 1377 2327 1377 2327 1360 2372 c 0,721,722
 1351 2396 1351 2396 1346 2408.5 c 128,-1,723
 1341 2421 1341 2421 1341 2423 c 0,724,725
 1330 2447 1330 2447 1312 2449 c 128,-1,726
 1294 2451 1294 2451 1258 2442 c 2,727,-1
 1232 2435 l 1,728,-1
 1270 2285 l 1,729,-1
 1158 2257 l 1,730,-1
 1057 2658 l 1,699,-1
873 2314 m 1,731,-1
 753 2447 l 1,732,-1
 751 2446 l 1,733,-1
 774 2268 l 1,734,-1
 873 2314 l 1,731,-1
659 2494 m 1,735,-1
 785 2553 l 1,736,-1
 1106 2247 l 1,737,-1
 991 2193 l 1,738,-1
 931 2253 l 1,739,-1
 781 2183 l 1,740,-1
 791 2100 l 1,741,-1
 687 2051 l 1,742,-1
 659 2494 l 1,735,-1
7 1963 m 1,743,-1
 131 2093 l 1,744,-1
 381 1948 l 1,745,-1
 382 1949 l 1,746,-1
 226 2191 l 1,747,-1
 349 2318 l 1,748,-1
 647 2032 l 1,749,-1
 579 1961 l 1,750,-1
 331 2200 l 1,751,-1
 329 2200 l 1,752,-1
 510 1889 l 1,753,-1
 437 1814 l 1,754,-1
 123 1989 l 1,755,-1
 123 1987 l 1,756,-1
 372 1747 l 1,757,-1
 304 1676 l 1,758,-1
 7 1963 l 1,743,-1
EndSplineSet
EndChar
StartChar: Z
Encoding: 90 90 46
Width: 1360
GlyphClass: 2
Flags: W
Fore
288 -608 m 1,0,-1
 288 2782 l 1,1,-1
 1247 2782 l 1,2,-1
 1247 2655 l 1,3,-1
 990 2655 l 2,4,5
 918 2655 918 2655 864 2643.5 c 128,-1,6
 810 2632 810 2632 775 2610 c 0,7,8
 704 2565 704 2565 704 2435 c 2,9,-1
 704 -270 l 2,10,11
 704 -375 704 -375 739 -427 c 0,12,13
 775 -480 775 -480 876 -480 c 2,14,-1
 1247 -480 l 1,15,-1
 1247 -608 l 1,16,-1
 288 -608 l 1,0,-1
EndSplineSet
EndChar
StartChar: backslash
Encoding: 92 92 47
Width: 1360
GlyphClass: 2
Flags: W
Fore
1088 -608 m 1,0,-1
 128 -608 l 1,1,-1
 128 -480 l 1,2,-1
 491 -480 l 2,3,4
 581 -480 581 -480 624.5 -444 c 128,-1,5
 668 -408 668 -408 672 -336 c 1,6,-1
 676 -271 l 1,7,-1
 676 2420 l 2,8,9
 676 2482 676 2482 658.5 2534 c 128,-1,10
 641 2586 641 2586 602 2609 c 0,11,12
 563 2631 563 2631 508.5 2643 c 128,-1,13
 454 2655 454 2655 385 2655 c 2,14,-1
 128 2655 l 1,15,-1
 128 2782 l 1,16,-1
 1088 2782 l 1,17,-1
 1088 -608 l 1,0,-1
EndSplineSet
EndChar
StartChar: asciicircum
Encoding: 94 94 48
Width: 2048
GlyphClass: 2
Flags: W
Fore
2048 -512 m 1,0,-1
 0 -512 l 1,1,-1
 0 -320 l 1,2,-1
 2048 -320 l 1,3,-1
 2048 -512 l 1,0,-1
EndSplineSet
EndChar
StartChar: grave
Encoding: 96 96 49
Width: 2048
GlyphClass: 2
Flags: W
Fore
1412 1871 m 0,0,1
 1499 1836 1499 1836 1564.5 1788 c 128,-1,2
 1630 1740 1630 1740 1673 1681 c 0,3,4
 1717 1621 1717 1621 1738.5 1553 c 128,-1,5
 1760 1485 1760 1485 1760 1411 c 2,6,-1
 1760 303 l 2,7,8
 1760 218 1760 218 1822 208 c 1,9,10
 1838 208 1838 208 1838 199 c 1,11,12
 1874 204 1874 204 1898 231 c 0,13,14
 1923 259 1923 259 1928 261 c 1,15,-1
 1990 172 l 1,16,17
 1965 138 1965 138 1923.5 100.5 c 128,-1,18
 1882 63 1882 63 1826 24 c 0,19,20
 1771 -14 1771 -14 1705.5 -37 c 128,-1,21
 1640 -60 1640 -60 1565 -64 c 1,22,23
 1475 -64 1475 -64 1408 -45.5 c 128,-1,24
 1341 -27 1341 -27 1300 7 c 1,25,26
 1217 81 1217 81 1192 231 c 1,27,28
 908 -64 908 -64 503 -64 c 1,29,30
 424 -58 424 -58 355 -27.5 c 128,-1,31
 286 3 286 3 230 57 c 128,-1,32
 174 111 174 111 143.5 186.5 c 128,-1,33
 113 262 113 262 110 357 c 1,34,35
 110 565 110 565 258 716 c 0,36,37
 407 868 407 868 635 963 c 1,38,39
 749 1012 749 1012 886.5 1059 c 128,-1,40
 1024 1106 1024 1106 1184 1151 c 1,41,-1
 1184 1556 l 2,42,43
 1184 1638 1184 1638 1136 1697 c 0,44,45
 1112 1728 1112 1728 1082 1751.5 c 128,-1,46
 1052 1775 1052 1775 1016 1791 c 0,47,48
 943 1823 943 1823 870 1823 c 0,49,50
 825 1823 825 1823 781 1814 c 128,-1,51
 737 1805 737 1805 694 1787 c 0,52,53
 608 1753 608 1753 608 1676 c 0,54,55
 608 1648 608 1648 628 1620 c 0,56,57
 639 1606 639 1606 650 1591 c 128,-1,58
 661 1576 661 1576 671 1561 c 0,59,60
 682 1547 682 1547 692 1531 c 128,-1,61
 702 1515 702 1515 710 1497 c 0,62,63
 728 1461 728 1461 731 1415 c 1,64,65
 731 1291 731 1291 652 1219 c 0,66,67
 612 1183 612 1183 561 1164 c 128,-1,68
 510 1145 510 1145 447 1142 c 1,69,70
 434 1150 434 1150 410 1150 c 1,71,72
 202 1178 202 1178 184 1420 c 1,73,74
 192 1446 192 1446 192 1466 c 0,75,76
 192 1636 192 1636 315 1744 c 0,77,78
 439 1853 439 1853 613 1901 c 0,79,80
 700 1926 700 1926 784 1938.5 c 128,-1,81
 868 1951 868 1951 945 1951 c 0,82,83
 1217 1951 1217 1951 1412 1871 c 0,0,1
1184 1006 m 1,84,85
 936 926 936 926 836 809 c 0,86,87
 735 691 735 691 715 544 c 1,88,89
 715 410 715 410 763 321 c 0,90,91
 811 230 811 230 901 224 c 1,92,93
 1088 278 1088 278 1184 408 c 1,94,-1
 1184 1006 l 1,84,85
EndSplineSet
EndChar
StartChar: b
Encoding: 98 98 50
Width: 2281
GlyphClass: 2
Flags: W
Fore
67 2684 m 1,0,-1
 67 2782 l 1,1,-1
 864 2782 l 1,2,-1
 864 1726 l 1,3,4
 933 1794 933 1794 997.5 1839.5 c 128,-1,5
 1062 1885 1062 1885 1121 1907 c 0,6,7
 1240 1951 1240 1951 1372 1951 c 0,8,9
 1624 1951 1624 1951 1799 1803 c 0,10,11
 1973 1656 1973 1656 2058 1427 c 0,12,13
 2101 1314 2101 1314 2122.5 1198.5 c 128,-1,14
 2144 1083 2144 1083 2144 965 c 0,15,16
 2144 778 2144 778 2087 596 c 0,17,18
 2059 505 2059 505 2017 423.5 c 128,-1,19
 1975 342 1975 342 1921 270 c 0,20,21
 1812 125 1812 125 1654 34 c 1,22,23
 1575 -9 1575 -9 1486 -34.5 c 128,-1,24
 1397 -60 1397 -60 1299 -64 c 1,25,-1
 1196 -64 l 2,26,27
 897 -64 897 -64 669 174 c 1,28,-1
 337 -64 l 1,29,-1
 288 -64 l 1,30,-1
 288 2458 l 2,31,32
 288 2561 288 2561 232 2612 c 0,33,34
 205 2638 205 2638 163 2656.5 c 128,-1,35
 121 2675 121 2675 67 2684 c 1,0,-1
864 371 m 2,36,37
 864 325 864 325 879 280 c 128,-1,38
 894 235 894 235 922 192 c 0,39,40
 951 148 951 148 983.5 121 c 128,-1,41
 1016 94 1016 94 1051 84 c 1,42,43
 1059 84 1059 84 1072.5 82.5 c 128,-1,44
 1086 81 1086 81 1103 79 c 0,45,46
 1121 78 1121 78 1133.5 76 c 128,-1,47
 1146 74 1146 74 1154 72 c 1,48,49
 1403 85 1403 85 1469 333 c 0,50,51
 1502 457 1502 457 1519 606 c 128,-1,52
 1536 755 1536 755 1536 929 c 0,53,54
 1536 1726 1536 1726 1146 1726 c 0,55,56
 960 1726 960 1726 864 1482 c 1,57,-1
 864 371 l 2,36,37
EndSplineSet
EndChar
StartChar: c
Encoding: 99 99 51
Width: 1815
GlyphClass: 2
Flags: W
Fore
244 1483 m 1,0,1
 326 1629 326 1629 458 1735 c 0,2,3
 523 1788 523 1788 593.5 1828 c 128,-1,4
 664 1868 664 1868 737 1894 c 0,5,6
 811 1919 811 1919 886.5 1933.5 c 128,-1,7
 962 1948 962 1948 1038 1951 c 1,8,9
 1120 1951 1120 1951 1200 1937.5 c 128,-1,10
 1280 1924 1280 1924 1357 1898 c 0,11,12
 1435 1872 1435 1872 1499 1832.5 c 128,-1,13
 1563 1793 1563 1793 1612 1742 c 0,14,15
 1712 1636 1712 1636 1712 1493 c 0,16,17
 1712 1373 1712 1373 1631 1303 c 0,18,19
 1550 1232 1550 1232 1441 1226 c 1,20,21
 1371 1234 1371 1234 1324 1260 c 128,-1,22
 1277 1286 1277 1286 1256 1330 c 0,23,24
 1235 1373 1235 1373 1220.5 1440 c 128,-1,25
 1206 1507 1206 1507 1198 1595 c 1,26,27
 1206 1634 1206 1634 1206 1683 c 0,28,29
 1206 1747 1206 1747 1152 1785 c 0,30,31
 1097 1823 1097 1823 1020 1823 c 0,32,33
 887 1823 887 1823 819 1701 c 0,34,35
 785 1640 785 1640 762.5 1574.5 c 128,-1,36
 740 1509 740 1509 731 1440 c 0,37,38
 721 1370 721 1370 714 1288.5 c 128,-1,39
 707 1207 707 1207 704 1116 c 1,40,41
 743 190 743 190 1289 190 c 1,42,43
 1516 199 1516 199 1697 419 c 1,44,-1
 1769 355 l 1,45,46
 1631 160 1631 160 1423 48 c 0,47,48
 1320 -7 1320 -7 1209 -35.5 c 128,-1,49
 1098 -64 1098 -64 980 -64 c 0,50,51
 854 -64 854 -64 739 -31.5 c 128,-1,52
 624 1 624 1 522 66 c 128,-1,53
 420 131 420 131 342 217 c 128,-1,54
 264 303 264 303 211 410 c 0,55,56
 161 514 161 514 131.5 636 c 128,-1,57
 102 758 102 758 96 897 c 1,58,59
 102 1060 102 1060 139.5 1207 c 128,-1,60
 177 1354 177 1354 244 1483 c 1,0,1
EndSplineSet
EndChar
StartChar: d
Encoding: 100 100 52
Width: 2281
GlyphClass: 2
Flags: W
Fore
361 1699 m 1,0,1
 412 1756 412 1756 472.5 1802.5 c 128,-1,2
 533 1849 533 1849 601 1883 c 0,3,4
 739 1951 739 1951 882 1951 c 0,5,6
 1028 1951 1028 1951 1152 1891 c 128,-1,7
 1276 1831 1276 1831 1376 1710 c 1,8,-1
 1376 2490 l 2,9,10
 1376 2590 1376 2590 1320 2630 c 0,11,12
 1291 2650 1291 2650 1259.5 2661.5 c 128,-1,13
 1228 2673 1228 2673 1192 2676 c 0,14,15
 1157 2679 1157 2679 1124 2681.5 c 128,-1,16
 1091 2684 1091 2684 1061 2686 c 1,17,-1
 1061 2782 l 1,18,-1
 1952 2782 l 1,19,-1
 1952 426 l 2,20,21
 1952 282 1952 282 1999 233 c 0,22,23
 2048 182 2048 182 2197 170 c 1,24,-1
 2197 75 l 1,25,26
 2119 71 2119 71 2015 58 c 128,-1,27
 1911 45 1911 45 1780 25 c 0,28,29
 1649 4 1649 4 1552 -18 c 128,-1,30
 1455 -40 1455 -40 1393 -64 c 1,31,-1
 1393 215 l 1,32,33
 1260 68 1260 68 1146 5 c 0,34,35
 1089 -26 1089 -26 1023 -43.5 c 128,-1,36
 957 -61 957 -61 882 -64 c 1,37,38
 626 -64 626 -64 451 75 c 1,39,40
 276 217 276 217 192 437 c 0,41,42
 150 546 150 546 125.5 662 c 128,-1,43
 101 778 101 778 96 899 c 1,44,45
 102 1137 102 1137 174 1348 c 0,46,47
 210 1455 210 1455 257 1543 c 128,-1,48
 304 1631 304 1631 361 1699 c 1,0,1
704 961 m 0,49,50
 704 673 704 673 744.5 490.5 c 128,-1,51
 785 308 785 308 865 233 c 0,52,53
 892 207 892 207 930.5 190.5 c 128,-1,54
 969 174 969 174 1019 167 c 1,55,56
 1066 171 1066 171 1110.5 188 c 128,-1,57
 1155 205 1155 205 1197 233 c 0,58,59
 1233 258 1233 258 1265 289.5 c 128,-1,60
 1297 321 1297 321 1323 358 c 0,61,62
 1376 433 1376 433 1376 449 c 2,63,-1
 1376 1473 l 1,64,65
 1323 1602 1323 1602 1237 1663 c 1,66,67
 1151 1726 1151 1726 1052 1726 c 0,68,69
 892 1726 892 1726 816 1599 c 0,70,71
 778 1535 778 1535 754 1463 c 128,-1,72
 730 1391 730 1391 722 1313 c 0,73,74
 713 1233 713 1233 708.5 1145 c 128,-1,75
 704 1057 704 1057 704 961 c 0,49,50
EndSplineSet
EndChar
StartChar: e
Encoding: 101 101 53
Width: 1815
GlyphClass: 2
Flags: W
Fore
244 1524 m 0,0,1
 312 1636 312 1636 392.5 1718 c 128,-1,2
 473 1800 473 1800 566 1850 c 0,3,4
 753 1951 753 1951 1013 1951 c 1,5,6
 1178 1942 1178 1942 1309 1876 c 0,7,8
 1375 1844 1375 1844 1431 1798 c 128,-1,9
 1487 1752 1487 1752 1533 1694 c 0,10,11
 1625 1576 1625 1576 1676 1409 c 0,12,13
 1701 1325 1701 1325 1717 1228.5 c 128,-1,14
 1733 1132 1733 1132 1737 1023 c 1,15,-1
 704 1023 l 1,16,17
 708 880 708 880 728.5 758 c 128,-1,18
 749 636 749 636 785 534 c 0,19,20
 857 331 857 331 999 270 c 1,21,22
 1098 238 1098 238 1192 222 c 1,23,24
 1317 229 1317 229 1433.5 298.5 c 128,-1,25
 1550 368 1550 368 1655 502 c 1,26,-1
 1753 451 l 1,27,28
 1594 209 1594 209 1401 72 c 0,29,30
 1208 -64 1208 -64 955 -64 c 0,31,32
 768 -64 768 -64 597 16 c 0,33,34
 423 97 423 97 306 247 c 1,35,36
 212 371 212 371 157 557 c 0,37,38
 130 650 130 650 115 748.5 c 128,-1,39
 100 847 100 847 96 949 c 1,40,41
 102 1124 102 1124 139.5 1267.5 c 128,-1,42
 177 1411 177 1411 244 1524 c 0,0,1
957 1823 m 0,43,44
 801 1823 801 1823 741 1647 c 0,45,46
 711 1560 711 1560 695.5 1435.5 c 128,-1,47
 680 1311 680 1311 680 1151 c 1,48,-1
 1231 1151 l 1,49,50
 1230 1209 1230 1209 1227.5 1270.5 c 128,-1,51
 1225 1332 1225 1332 1223 1395 c 128,-1,52
 1221 1458 1221 1458 1214.5 1513 c 128,-1,53
 1208 1568 1208 1568 1197 1615 c 0,54,55
 1177 1706 1177 1706 1120 1765 c 0,56,57
 1062 1823 1062 1823 957 1823 c 0,43,44
EndSplineSet
EndChar
StartChar: f
Encoding: 102 102 54
Width: 1360
GlyphClass: 2
Flags: W
Fore
288 313 m 2,0,-1
 288 1726 l 1,1,-1
 58 1726 l 1,2,-1
 58 1887 l 1,3,-1
 288 1887 l 1,4,-1
 288 2063 l 2,5,6
 288 2286 288 2286 377 2497 c 0,7,8
 466 2707 466 2707 713 2782 c 1,9,10
 783 2798 783 2798 859.5 2806.5 c 128,-1,11
 936 2815 936 2815 1018 2815 c 0,12,13
 1086 2815 1086 2815 1153.5 2803.5 c 128,-1,14
 1221 2792 1221 2792 1287 2771 c 1,15,16
 1422 2725 1422 2725 1511 2634 c 1,17,18
 1600 2540 1600 2540 1600 2410 c 0,19,20
 1600 2218 1600 2218 1357 2157 c 1,21,22
 1260 2164 1260 2164 1190 2231 c 0,23,24
 1120 2299 1120 2299 1120 2408 c 0,25,26
 1120 2438 1120 2438 1161 2517 c 0,27,28
 1203 2595 1203 2595 1203 2619 c 0,29,30
 1203 2687 1203 2687 1085 2687 c 0,31,32
 976 2687 976 2687 920 2616 c 0,33,34
 864 2543 864 2543 864 2437 c 2,35,-1
 864 1887 l 1,36,-1
 1235 1887 l 1,37,-1
 1235 1726 l 1,38,-1
 864 1726 l 1,39,-1
 864 371 l 2,40,41
 864 216 864 216 933 160 c 1,42,43
 963 134 963 134 1035 117 c 128,-1,44
 1107 100 1107 100 1219 93 c 1,45,-1
 1219 0 l 1,46,-1
 58 0 l 1,47,-1
 58 93 l 1,48,49
 288 107 288 107 288 313 c 2,0,-1
EndSplineSet
EndChar
StartChar: g
Encoding: 103 103 55
Width: 2048
GlyphClass: 2
Flags: W
Fore
602 -224 m 1,0,1
 475 -301 475 -301 459 -438 c 1,2,3
 480 -603 480 -603 643 -653 c 0,4,5
 724 -679 724 -679 820.5 -691.5 c 128,-1,6
 917 -704 917 -704 1028 -704 c 0,7,8
 1550 -704 1550 -704 1634 -478 c 1,9,10
 1634 -475 1634 -475 1635.5 -467.5 c 128,-1,11
 1637 -460 1637 -460 1638 -449 c 0,12,13
 1640 -438 1640 -438 1641 -428 c 128,-1,14
 1642 -418 1642 -418 1642 -411 c 0,15,16
 1642 -331 1642 -331 1582 -278 c 0,17,18
 1522 -224 1522 -224 1396 -224 c 2,19,-1
 602 -224 l 1,0,1
974 1812 m 2,20,21
 845 1812 845 1812 775 1708 c 0,22,23
 704 1604 704 1604 704 1291 c 0,24,25
 704 1153 704 1153 716.5 1048.5 c 128,-1,26
 729 944 729 944 753 874 c 0,27,28
 803 734 803 734 974 734 c 1,29,30
 1163 741 1163 741 1199 876 c 0,31,32
 1218 943 1218 943 1230.5 1045.5 c 128,-1,33
 1243 1148 1243 1148 1248 1284 c 1,34,35
 1248 1812 1248 1812 982 1812 c 2,36,-1
 974 1812 l 2,20,21
1788 1239 m 1,37,38
 1791 1176 1791 1176 1779.5 1116.5 c 128,-1,39
 1768 1057 1768 1057 1745 999 c 0,40,41
 1697 885 1697 885 1597 797 c 0,42,43
 1547 754 1547 754 1485.5 721 c 128,-1,44
 1424 688 1424 688 1350 666 c 1,45,46
 1321 661 1321 661 1287.5 656.5 c 128,-1,47
 1254 652 1254 652 1217 650 c 128,-1,48
 1180 648 1180 648 1133.5 645.5 c 128,-1,49
 1087 643 1087 643 1031 643 c 0,50,51
 975 642 975 642 928.5 640.5 c 128,-1,52
 882 639 882 639 847 639 c 0,53,54
 680 639 680 639 613 406 c 1,55,56
 619 327 619 327 677 290 c 0,57,58
 734 255 734 255 886 255 c 0,59,60
 958 254 958 254 1048 252 c 128,-1,61
 1138 250 1138 250 1246 247 c 0,62,63
 1464 242 1464 242 1615 203 c 0,64,65
 1767 163 1767 163 1863 59 c 0,66,67
 1911 8 1911 8 1935.5 -65.5 c 128,-1,68
 1960 -139 1960 -139 1960 -234 c 0,69,70
 1960 -543 1960 -543 1697 -687 c 0,71,72
 1566 -759 1566 -759 1362 -795.5 c 128,-1,73
 1158 -832 1158 -832 882 -832 c 0,74,75
 150 -832 150 -832 96 -457 c 1,76,77
 102 -344 102 -344 208 -263 c 0,78,79
 314 -181 314 -181 475 -169 c 1,80,81
 277 -103 277 -103 219 -18 c 0,82,83
 161 65 161 65 161 222 c 1,84,85
 167 360 167 360 305 478 c 0,86,87
 444 597 444 597 637 652 c 1,88,-1
 637 659 l 1,89,90
 393 749 393 749 265 904 c 128,-1,91
 137 1059 137 1059 128 1280 c 1,92,93
 136 1382 136 1382 171 1471.5 c 128,-1,94
 206 1561 206 1561 266 1637 c 1,95,96
 390 1789 390 1789 578 1867 c 0,97,98
 673 1905 673 1905 773.5 1924.5 c 128,-1,99
 874 1944 874 1944 979 1944 c 0,100,101
 1001 1944 1001 1944 1024 1943 c 128,-1,102
 1047 1942 1047 1942 1072 1939 c 0,103,104
 1083 1937 1083 1937 1103.5 1937 c 128,-1,105
 1124 1937 1124 1937 1152 1934 c 128,-1,106
 1180 1931 1180 1931 1215 1922.5 c 128,-1,107
 1250 1914 1250 1914 1291 1894 c 1,108,109
 1293 1924 1293 1924 1297.5 1945.5 c 128,-1,110
 1302 1967 1302 1967 1309 1987 c 128,-1,111
 1316 2007 1316 2007 1327 2028.5 c 128,-1,112
 1338 2050 1338 2050 1355 2080 c 0,113,114
 1389 2142 1389 2142 1432 2191.5 c 128,-1,115
 1475 2241 1475 2241 1526 2279 c 1,116,117
 1577 2315 1577 2315 1632.5 2332 c 128,-1,118
 1688 2349 1688 2349 1744 2344 c 0,119,120
 1853 2334 1853 2334 1903.5 2277.5 c 128,-1,121
 1954 2221 1954 2221 1945 2120 c 0,122,123
 1937 2035 1937 2035 1878 1995 c 1,124,125
 1819 1953 1819 1953 1730 1960 c 0,126,127
 1711 1962 1711 1962 1687.5 1967 c 128,-1,128
 1664 1972 1664 1972 1635 1980 c 0,129,130
 1607 1989 1607 1989 1578.5 1995 c 128,-1,131
 1550 2001 1550 2001 1522 2003 c 1,132,133
 1492 2002 1492 2002 1468 1995.5 c 128,-1,134
 1444 1989 1444 1989 1425.5 1972.5 c 128,-1,135
 1407 1956 1407 1956 1394 1928.5 c 128,-1,136
 1381 1901 1381 1901 1373 1859 c 1,137,138
 1404 1849 1404 1849 1433.5 1832 c 128,-1,139
 1463 1815 1463 1815 1490.5 1794 c 128,-1,140
 1518 1773 1518 1773 1544 1749 c 128,-1,141
 1570 1725 1570 1725 1594 1703 c 0,142,143
 1691 1611 1691 1611 1743 1488 c 0,144,145
 1768 1426 1768 1426 1779 1364 c 128,-1,146
 1790 1302 1790 1302 1788 1239 c 1,37,38
EndSplineSet
EndChar
StartChar: h
Encoding: 104 104 56
Width: 2281
GlyphClass: 2
Flags: W
Fore
288 2485 m 2,0,1
 288 2651 288 2651 75 2684 c 1,2,-1
 75 2782 l 1,3,-1
 864 2782 l 1,4,-1
 864 1649 l 1,5,6
 1124 1951 1124 1951 1450 1951 c 0,7,8
 1682 1951 1682 1951 1832 1799 c 1,9,10
 1908 1724 1908 1724 1946 1622 c 128,-1,11
 1984 1520 1984 1520 1984 1393 c 2,12,-1
 1984 296 l 2,13,14
 1984 123 1984 123 2184 93 c 1,15,-1
 2184 0 l 1,16,-1
 1222 0 l 1,17,-1
 1222 95 l 1,18,19
 1408 106 1408 106 1408 315 c 2,20,-1
 1408 1386 l 2,21,22
 1408 1695 1408 1695 1190 1695 c 0,23,24
 1100 1695 1100 1695 1012 1629 c 0,25,26
 925 1562 925 1562 864 1468 c 1,27,-1
 864 425 l 2,28,29
 864 359 864 359 856 315 c 1,30,31
 874 212 874 212 917 160 c 0,32,33
 938 134 938 134 974 117 c 128,-1,34
 1010 100 1010 100 1059 95 c 1,35,-1
 1059 0 l 1,36,-1
 75 0 l 1,37,-1
 75 93 l 1,38,39
 132 106 132 106 173 125 c 128,-1,40
 214 144 214 144 238 167 c 0,41,42
 288 212 288 212 288 319 c 2,43,-1
 288 369 l 1,44,-1
 288 2485 l 2,0,1
EndSplineSet
EndChar
StartChar: i
Encoding: 105 105 57
Width: 2961
GlyphClass: 2
Flags: W
Fore
448 2397 m 1,0,1
 388 2468 388 2468 339.5 2521 c 128,-1,2
 291 2574 291 2574 255 2609 c 1,3,4
 179 2687 179 2687 104 2687 c 1,5,-1
 104 2782 l 1,6,-1
 948 2782 l 1,7,-1
 2400 1006 l 1,8,-1
 2400 2292 l 2,9,10
 2400 2474 2400 2474 2300 2580 c 0,11,12
 2199 2687 2199 2687 2015 2687 c 1,13,-1
 2015 2782 l 1,14,-1
 2879 2782 l 1,15,-1
 2879 2687 l 1,16,17
 2864 2685 2864 2685 2833 2679 c 128,-1,18
 2802 2673 2802 2673 2757 2666 c 0,19,20
 2712 2658 2712 2658 2677 2641 c 128,-1,21
 2642 2624 2642 2624 2617 2600 c 1,22,23
 2560 2533 2560 2533 2560 2381 c 2,24,-1
 2560 -64 l 1,25,-1
 2459 -64 l 1,26,-1
 616 2149 l 1,27,-1
 608 2149 l 1,28,-1
 608 444 l 2,29,30
 608 267 608 267 708 192 c 1,31,32
 787 122 787 122 1001 101 c 1,33,-1
 1001 0 l 1,34,-1
 88 0 l 1,35,-1
 88 102 l 1,36,37
 105 103 105 103 123 105 c 128,-1,38
 141 107 141 107 160 109 c 0,39,40
 179 110 179 110 197.5 113 c 128,-1,41
 216 116 216 116 234 118 c 1,42,43
 271 127 271 127 303 142 c 0,44,45
 337 157 337 157 366 185 c 1,46,47
 395 207 395 207 412 235 c 128,-1,48
 429 263 429 263 435 296 c 0,49,50
 441 328 441 328 444.5 383 c 128,-1,51
 448 438 448 438 448 516 c 2,52,-1
 448 2397 l 1,0,1
EndSplineSet
EndChar
StartChar: o
Encoding: 111 111 58
Width: 2048
GlyphClass: 2
Flags: W
Fore
704 1226 m 2,0,-1
 704 625 l 2,1,2
 704 394 704 394 779 229 c 0,3,4
 854 63 854 63 1032 63 c 1,5,6
 1158 66 1158 66 1221 147 c 1,7,8
 1253 186 1253 186 1274.5 231 c 128,-1,9
 1296 276 1296 276 1305 324 c 0,10,11
 1315 372 1315 372 1325 442 c 128,-1,12
 1335 512 1335 512 1344 600 c 1,13,-1
 1344 981 l 1,14,-1
 1344 1234 l 2,15,16
 1344 1823 1344 1823 1024 1823 c 1,17,18
 825 1818 825 1818 765 1613 c 0,19,20
 735 1511 735 1511 719.5 1414 c 128,-1,21
 704 1317 704 1317 704 1226 c 2,0,-1
104 1039 m 1,22,23
 115 1166 115 1166 151 1282.5 c 128,-1,24
 187 1399 187 1399 248 1502 c 0,25,26
 371 1711 371 1711 576 1831 c 0,27,28
 782 1951 782 1951 1040 1951 c 0,29,30
 1253 1951 1253 1951 1445 1849 c 0,31,32
 1541 1798 1541 1798 1623 1723 c 128,-1,33
 1705 1648 1705 1648 1771 1550 c 0,34,35
 1905 1352 1905 1352 1944 1085 c 1,36,37
 1948 1040 1948 1040 1950 1005.5 c 128,-1,38
 1952 971 1952 971 1952 949 c 0,39,40
 1952 827 1952 827 1927 708 c 128,-1,41
 1902 589 1902 589 1852 473 c 0,42,43
 1751 242 1751 242 1547 92 c 0,44,45
 1342 -58 1342 -58 1057 -64 c 1,46,47
 921 -64 921 -64 798 -32.5 c 128,-1,48
 675 -1 675 -1 567 59 c 1,49,50
 349 184 349 184 225 410 c 0,51,52
 163 522 163 522 130.5 650 c 128,-1,53
 98 778 98 778 96 920 c 1,54,55
 100 942 100 942 102 972.5 c 128,-1,56
 104 1003 104 1003 104 1039 c 1,22,23
EndSplineSet
EndChar
StartChar: p
Encoding: 112 112 59
Width: 2281
GlyphClass: 2
Flags: W
Fore
896 192 m 1,0,-1
 896 -448 l 2,1,2
 896 -599 896 -599 977 -683 c 0,3,4
 1059 -768 1059 -768 1204 -768 c 1,5,-1
 1204 -832 l 1,6,-1
 99 -832 l 1,7,-1
 99 -759 l 1,8,9
 143 -751 143 -751 177 -739.5 c 128,-1,10
 211 -728 211 -728 233 -714 c 0,11,12
 281 -685 281 -685 300 -634 c 0,13,14
 320 -582 320 -582 320 -498 c 2,15,-1
 320 1585 l 2,16,17
 320 1697 320 1697 269 1744 c 1,18,19
 244 1769 244 1769 202.5 1786 c 128,-1,20
 161 1803 161 1803 103 1812 c 1,21,-1
 103 1887 l 1,22,-1
 887 1887 l 1,23,-1
 887 1640 l 1,24,-1
 896 1640 l 1,25,26
 967 1791 967 1791 1085 1868.5 c 128,-1,27
 1203 1946 1203 1946 1366 1951 c 1,28,29
 1613 1951 1613 1951 1789 1808 c 1,30,31
 1965 1667 1965 1667 2054 1445 c 0,32,33
 2099 1334 2099 1334 2121.5 1218.5 c 128,-1,34
 2144 1103 2144 1103 2144 985 c 0,35,36
 2144 860 2144 860 2122.5 735.5 c 128,-1,37
 2101 611 2101 611 2058 489 c 0,38,39
 1971 247 1971 247 1795 91 c 0,40,41
 1619 -64 1619 -64 1367 -64 c 0,42,43
 1084 -64 1084 -64 896 192 c 1,0,-1
1536 940 m 0,44,45
 1536 1506 1536 1506 1381 1669 c 1,46,47
 1349 1697 1349 1697 1310.5 1711.5 c 128,-1,48
 1272 1726 1272 1726 1228 1726 c 0,49,50
 1170 1726 1170 1726 1092 1685 c 0,51,52
 1011 1642 1011 1642 954 1577 c 0,53,54
 896 1511 896 1511 896 1452 c 2,55,-1
 896 428 l 1,56,57
 943 305 943 305 1025 240 c 0,58,59
 1109 172 1109 172 1196 167 c 1,60,61
 1352 181 1352 181 1426 306 c 1,62,63
 1502 429 1502 429 1518 582 c 0,64,65
 1527 659 1527 659 1531.5 748.5 c 128,-1,66
 1536 838 1536 838 1536 940 c 0,44,45
EndSplineSet
EndChar
StartChar: q
Encoding: 113 113 60
Width: 2961
GlyphClass: 2
Flags: W
Fore
449 484 m 2,0,-1
 449 2320 l 2,1,2
 449 2384 449 2384 443 2433.5 c 128,-1,3
 437 2483 437 2483 425 2521 c 0,4,5
 402 2596 402 2596 328 2639 c 0,6,7
 254 2681 254 2681 104 2689 c 1,8,-1
 104 2782 l 1,9,-1
 1459 2782 l 2,10,11
 1688 2782 1688 2782 1865 2752.5 c 128,-1,12
 2042 2723 2042 2723 2168 2662 c 1,13,14
 2294 2603 2294 2603 2379 2530.5 c 128,-1,15
 2464 2458 2464 2458 2506 2376 c 0,16,17
 2592 2208 2592 2208 2592 2032 c 0,18,19
 2592 1985 2592 1985 2581 1928 c 128,-1,20
 2570 1871 2570 1871 2549 1808 c 0,21,22
 2507 1679 2507 1679 2362 1549 c 0,23,24
 2290 1484 2290 1484 2186 1436 c 128,-1,25
 2082 1388 2082 1388 1945 1357 c 1,26,-1
 2702 279 l 1,27,28
 2742 219 2742 219 2772 182 c 128,-1,29
 2802 145 2802 145 2821 131 c 0,30,31
 2860 101 2860 101 2936 101 c 1,32,-1
 2936 0 l 1,33,-1
 2096 0 l 1,34,-1
 1236 1280 l 1,35,-1
 1120 1280 l 1,36,-1
 1120 428 l 2,37,38
 1120 291 1120 291 1159 228 c 0,39,40
 1179 195 1179 195 1205.5 173.5 c 128,-1,41
 1232 152 1232 152 1267 143 c 1,42,43
 1302 132 1302 132 1359.5 121.5 c 128,-1,44
 1417 111 1417 111 1496 101 c 1,45,-1
 1496 0 l 1,46,-1
 104 0 l 1,47,-1
 104 102 l 1,48,49
 177 107 177 107 231.5 119 c 128,-1,50
 286 131 286 131 322 145 c 0,51,52
 395 176 395 176 425 255 c 0,53,54
 440 294 440 294 444.5 350 c 128,-1,55
 449 406 449 406 449 484 c 2,0,-1
1120 2492 m 2,56,-1
 1120 1416 l 1,57,58
 1561 1416 1561 1416 1708 1529 c 1,59,60
 1888 1658 1888 1658 1888 2016 c 0,61,62
 1888 2228 1888 2228 1834 2381 c 128,-1,63
 1780 2534 1780 2534 1625 2612 c 0,64,65
 1538 2655 1538 2655 1324 2655 c 0,66,67
 1263 2655 1263 2655 1221.5 2640.5 c 128,-1,68
 1180 2626 1180 2626 1161 2600 c 0,69,70
 1120 2545 1120 2545 1120 2492 c 2,56,-1
EndSplineSet
EndChar
StartChar: s
Encoding: 115 115 61
Width: 2048
GlyphClass: 2
Flags: W
Fore
189 1837 m 1,0,-1
 432 2080 l 1,1,-1
 1060 1452 l 1,2,-1
 1686 2078 l 1,3,-1
 1927 1837 l 1,4,-1
 1301 1211 l 1,5,-1
 1930 582 l 1,6,-1
 1687 339 l 1,7,-1
 1058 968 l 1,8,-1
 433 342 l 1,9,-1
 191 583 l 1,10,-1
 817 1209 l 1,11,-1
 189 1837 l 1,0,-1
EndSplineSet
EndChar
StartChar: y
Encoding: 121 121 62
Width: 1618
GlyphClass: 2
Flags: W
Fore
95 1072 m 1,0,1
 130 1081 130 1081 171.5 1092.5 c 128,-1,2
 213 1104 213 1104 259 1117 c 0,3,4
 306 1129 306 1129 344.5 1147 c 128,-1,5
 383 1165 383 1165 413 1187 c 0,6,7
 474 1232 474 1232 508 1321 c 0,8,9
 544 1412 544 1412 544 1560 c 2,10,-1
 544 2297 l 2,11,12
 544 2748 544 2748 960 2829 c 1,13,14
 1189 2861 1189 2861 1405 2861 c 1,15,-1
 1405 2809 l 1,16,17
 1303 2797 1303 2797 1221.5 2759 c 128,-1,18
 1140 2721 1140 2721 1080 2657 c 0,19,20
 960 2530 960 2530 960 2326 c 2,21,-1
 960 1608 l 2,22,23
 960 1449 960 1449 925 1345 c 0,24,25
 890 1240 890 1240 791 1174 c 0,26,27
 742 1140 742 1140 669.5 1114 c 128,-1,28
 597 1088 597 1088 503 1072 c 1,29,-1
 503 1064 l 1,30,31
 748 1023 748 1023 854 910 c 0,32,33
 960 796 960 796 960 584 c 2,34,-1
 960 -176 l 2,35,36
 960 -611 960 -611 1405 -664 c 1,37,-1
 1405 -721 l 1,38,39
 1253 -721 1253 -721 1118 -706.5 c 128,-1,40
 983 -692 983 -692 869 -664 c 1,41,42
 707 -608 707 -608 625.5 -480 c 128,-1,43
 544 -352 544 -352 544 -152 c 2,44,-1
 544 485 l 2,45,46
 544 580 544 580 538.5 652 c 128,-1,47
 533 724 533 724 522 774 c 0,48,49
 501 873 501 873 404 949 c 0,50,51
 356 986 356 986 278.5 1017 c 128,-1,52
 201 1048 201 1048 95 1072 c 1,0,1
EndSplineSet
EndChar
StartChar: bar
Encoding: 124 124 63
Width: 905
GlyphClass: 2
Flags: W
Fore
288 -96 m 1,0,-1
 288 2815 l 1,1,-1
 640 2815 l 1,2,-1
 640 -96 l 1,3,-1
 288 -96 l 1,0,-1
EndSplineSet
EndChar
StartChar: braceright
Encoding: 125 125 64
Width: 1618
GlyphClass: 2
Flags: W
Fore
1533 1072 m 1,0,1
 1428 1048 1428 1048 1351.5 1017 c 128,-1,2
 1275 986 1275 986 1227 949 c 0,3,4
 1130 873 1130 873 1109 774 c 0,5,6
 1088 674 1088 674 1088 485 c 2,7,-1
 1088 -152 l 2,8,9
 1088 -356 1088 -356 1004 -484.5 c 128,-1,10
 920 -613 920 -613 753 -664 c 0,11,12
 572 -721 572 -721 227 -721 c 1,13,-1
 227 -664 l 1,14,15
 449 -639 449 -639 560.5 -516 c 128,-1,16
 672 -393 672 -393 672 -176 c 2,17,-1
 672 584 l 2,18,19
 672 792 672 792 773 904 c 0,20,21
 874 1015 874 1015 1116 1064 c 1,22,-1
 1116 1072 l 1,23,24
 1026 1088 1026 1088 956 1114 c 128,-1,25
 886 1140 886 1140 838 1173 c 0,26,27
 742 1240 742 1240 707 1341 c 0,28,29
 672 1443 672 1443 672 1601 c 2,30,-1
 672 2326 l 2,31,32
 672 2458 672 2458 616 2560 c 1,33,34
 589 2612 589 2612 549.5 2654 c 128,-1,35
 510 2696 510 2696 458 2728 c 0,36,37
 408 2760 408 2760 350 2780.5 c 128,-1,38
 292 2801 292 2801 227 2809 c 1,39,-1
 227 2861 l 1,40,41
 331 2861 331 2861 436 2853 c 128,-1,42
 541 2845 541 2845 647 2829 c 1,43,44
 1088 2749 1088 2749 1088 2297 c 2,45,-1
 1088 1560 l 2,46,47
 1088 1486 1088 1486 1097 1427 c 128,-1,48
 1106 1368 1106 1368 1122 1323 c 1,49,50
 1140 1278 1140 1278 1163.5 1244 c 128,-1,51
 1187 1210 1187 1210 1216 1187 c 0,52,53
 1275 1142 1275 1142 1367 1117 c 0,54,55
 1413 1104 1413 1104 1455 1092.5 c 128,-1,56
 1497 1081 1497 1081 1533 1072 c 1,0,1
EndSplineSet
EndChar
StartChar: asciitilde
Encoding: 126 126 65
Width: 2048
GlyphClass: 2
Flags: W
Fore
1021 1056 m 1,0,-1
 1151 1056 l 1,1,-1
 1151 899 l 2,2,3
 1151 838 1151 838 1141.5 781 c 128,-1,4
 1132 724 1132 724 1114 673 c 0,5,6
 1096 621 1096 621 1067 556 c 128,-1,7
 1038 491 1038 491 1000 412 c 0,8,9
 962 335 962 335 934.5 270 c 128,-1,10
 907 205 907 205 891 154 c 1,11,12
 873 86 873 86 860.5 0.5 c 128,-1,13
 848 -85 848 -85 840 -188 c 1,14,15
 850 -234 850 -234 860.5 -280.5 c 128,-1,16
 871 -327 871 -327 881 -374 c 0,17,18
 892 -421 892 -421 906.5 -463 c 128,-1,19
 921 -505 921 -505 937 -541 c 0,20,21
 971 -613 971 -613 1037 -659 c 0,22,23
 1103 -704 1103 -704 1209 -704 c 0,24,25
 1253 -704 1253 -704 1295 -694.5 c 128,-1,26
 1337 -685 1337 -685 1377 -665 c 0,27,28
 1457 -626 1457 -626 1457 -551 c 0,29,30
 1457 -491 1457 -491 1415 -456 c 1,31,32
 1400 -436 1400 -436 1385.5 -418 c 128,-1,33
 1371 -400 1371 -400 1359 -384 c 0,34,35
 1334 -350 1334 -350 1318 -308 c 0,36,37
 1311 -287 1311 -287 1306.5 -259.5 c 128,-1,38
 1302 -232 1302 -232 1302 -200 c 0,39,40
 1302 -133 1302 -133 1321.5 -80 c 128,-1,41
 1341 -27 1341 -27 1378 7 c 1,42,43
 1454 81 1454 81 1549 81 c 0,44,45
 1808 81 1808 81 1838 -198 c 1,46,47
 1838 -413 1838 -413 1719 -556 c 0,48,49
 1599 -699 1599 -699 1417 -766 c 0,50,51
 1235 -832 1235 -832 1043 -832 c 0,52,53
 935 -832 935 -832 833 -812.5 c 128,-1,54
 731 -793 731 -793 638 -756 c 0,55,56
 450 -679 450 -679 338 -522 c 0,57,58
 225 -364 225 -364 225 -138 c 0,59,60
 225 137 225 137 483 369 c 1,61,62
 512 393 512 393 560 425 c 128,-1,63
 608 457 608 457 673 496 c 0,64,65
 739 535 739 535 790 569 c 128,-1,66
 841 603 841 603 876 630 c 0,67,68
 949 684 949 684 980 750 c 0,69,70
 1021 842 1021 842 1021 997 c 2,71,-1
 1021 1056 l 1,0,-1
1088 2047 m 0,72,73
 1236 2047 1236 2047 1338 1942 c 128,-1,74
 1440 1837 1440 1837 1440 1690 c 0,75,76
 1440 1549 1440 1549 1338 1447 c 0,77,78
 1236 1343 1236 1343 1088 1343 c 0,79,80
 942 1343 942 1343 839 1445 c 1,81,82
 788 1497 788 1497 762 1558.5 c 128,-1,83
 736 1620 736 1620 736 1690 c 0,84,85
 736 1837 736 1837 838 1942 c 128,-1,86
 940 2047 940 2047 1088 2047 c 0,72,73
EndSplineSet
EndChar
StartChar: exclamdown
Encoding: 161 161 66
Width: 1360
GlyphClass: 2
Flags: W
Fore
668 1343 m 0,0,1
 523 1343 523 1343 422 1445 c 0,2,3
 320 1550 320 1550 320 1690 c 0,4,5
 320 1836 320 1836 421 1942 c 0,6,7
 523 2047 523 2047 668 2047 c 128,-1,8
 813 2047 813 2047 918 1942 c 0,9,10
 1024 1835 1024 1835 1024 1690 c 0,11,12
 1024 1550 1024 1550 918 1447 c 0,13,14
 813 1343 813 1343 668 1343 c 0,0,1
733 1039 m 1,15,16
 749 872 749 872 769 729.5 c 128,-1,17
 789 587 789 587 812 469 c 1,18,19
 821 413 821 413 842 333 c 128,-1,20
 863 253 863 253 896 147 c 0,21,22
 929 43 929 43 953.5 -39.5 c 128,-1,23
 978 -122 978 -122 993 -181 c 128,-1,24
 1008 -240 1008 -240 1016 -302 c 128,-1,25
 1024 -364 1024 -364 1024 -427 c 0,26,27
 1024 -532 1024 -532 999 -609 c 128,-1,28
 974 -686 974 -686 924 -734 c 0,29,30
 823 -832 823 -832 660 -832 c 0,31,32
 328 -832 328 -832 328 -370 c 1,33,34
 332 -312 332 -312 354 -218.5 c 128,-1,35
 376 -125 376 -125 415 0 c 0,36,37
 455 127 455 127 484 238 c 128,-1,38
 513 349 513 349 531 444 c 0,39,40
 547 529 547 529 567 678 c 128,-1,41
 587 827 587 827 610 1039 c 1,42,-1
 733 1039 l 1,15,16
EndSplineSet
EndChar
StartChar: sterling
Encoding: 163 163 67
Width: 2961
GlyphClass: 2
Flags: W
Fore
477 2455 m 1,0,-1
 477 342 l 1,1,-1
 2595 342 l 1,2,-1
 2595 2455 l 1,3,-1
 477 2455 l 1,0,-1
136 2798 m 1,4,-1
 2936 2798 l 1,5,-1
 2936 0 l 1,6,-1
 136 0 l 1,7,-1
 136 2798 l 1,4,-1
1536 1981 m 0,8,9
 1656 1981 1656 1981 1762.5 1935 c 128,-1,10
 1869 1889 1869 1889 1948 1810 c 128,-1,11
 2027 1731 2027 1731 2073 1625 c 128,-1,12
 2119 1519 2119 1519 2119 1398 c 0,13,14
 2119 1278 2119 1278 2073 1172 c 128,-1,15
 2027 1066 2027 1066 1948 986.5 c 128,-1,16
 1869 907 1869 907 1762.5 861.5 c 128,-1,17
 1656 816 1656 816 1536 816 c 128,-1,18
 1416 816 1416 816 1309.5 861.5 c 128,-1,19
 1203 907 1203 907 1124 986.5 c 128,-1,20
 1045 1066 1045 1066 999 1172 c 128,-1,21
 953 1278 953 1278 953 1398 c 0,22,23
 953 1519 953 1519 999 1625 c 128,-1,24
 1045 1731 1045 1731 1124 1810 c 128,-1,25
 1203 1889 1203 1889 1309.5 1935 c 128,-1,26
 1416 1981 1416 1981 1536 1981 c 0,8,9
EndSplineSet
EndChar
StartChar: currency
Encoding: 164 164 68
Width: 2310
GlyphClass: 2
Flags: W
Fore
988 1162 m 1,0,-1
 988 1848 l 1,1,-1
 136 1848 l 1,2,-1
 136 2191 l 1,3,-1
 988 2191 l 1,4,-1
 988 2869 l 1,5,-1
 1330 2869 l 1,6,-1
 1330 2191 l 1,7,-1
 2183 2191 l 1,8,-1
 2183 1848 l 1,9,-1
 1330 1848 l 1,10,-1
 1330 1162 l 1,11,-1
 988 1162 l 1,0,-1
136 1027 m 1,12,-1
 2183 1027 l 1,13,-1
 2183 684 l 1,14,-1
 136 684 l 1,15,-1
 136 1027 l 1,12,-1
136 342 m 1,16,-1
 2183 342 l 1,17,-1
 2183 0 l 1,18,-1
 136 0 l 1,19,-1
 136 342 l 1,16,-1
EndSplineSet
EndChar
StartChar: yen
Encoding: 165 165 69
Width: 3641
GlyphClass: 2
Flags: W
Fore
684 598 m 1,0,-1
 619 971 l 1,1,2
 618 972 618 972 616 974 c 128,-1,3
 614 976 614 976 612 979 c 0,4,5
 607 987 607 987 592.5 996 c 128,-1,6
 578 1005 578 1005 556 1018 c 128,-1,7
 534 1031 534 1031 506 1050 c 128,-1,8
 478 1069 478 1069 446 1096 c 0,9,10
 403 1133 403 1133 370 1162 c 128,-1,11
 337 1191 337 1191 310.5 1216.5 c 128,-1,12
 284 1242 284 1242 262.5 1265.5 c 128,-1,13
 241 1289 241 1289 221 1316 c 0,14,15
 192 1357 192 1357 168.5 1400.5 c 128,-1,16
 145 1444 145 1444 127.5 1493.5 c 128,-1,17
 110 1543 110 1543 99 1599.5 c 128,-1,18
 88 1656 88 1656 84 1723 c 0,19,20
 79 1789 79 1789 90.5 1849.5 c 128,-1,21
 102 1910 102 1910 126.5 1966 c 128,-1,22
 151 2022 151 2022 187.5 2075 c 128,-1,23
 224 2128 224 2128 271 2180 c 0,24,25
 321 2236 321 2236 384 2278 c 128,-1,26
 447 2320 447 2320 519 2347 c 128,-1,27
 591 2374 591 2374 670.5 2386 c 128,-1,28
 750 2398 750 2398 832 2395 c 0,29,30
 897 2392 897 2392 971.5 2376.5 c 128,-1,31
 1046 2361 1046 2361 1142 2329 c 0,32,33
 1201 2308 1201 2308 1263 2284 c 128,-1,34
 1325 2260 1325 2260 1383 2235 c 0,35,36
 1395 2230 1395 2230 1410 2221.5 c 128,-1,37
 1425 2213 1425 2213 1439 2204 c 1,38,39
 1434 2224 1434 2224 1431.5 2245 c 128,-1,40
 1429 2266 1429 2266 1429 2288 c 0,41,42
 1429 2365 1429 2365 1458.5 2434 c 128,-1,43
 1488 2503 1488 2503 1539.5 2554 c 128,-1,44
 1591 2605 1591 2605 1659.5 2635 c 128,-1,45
 1728 2665 1728 2665 1806 2665 c 0,46,47
 1884 2666 1884 2666 1952.5 2636.5 c 128,-1,48
 2021 2607 2021 2607 2072 2555.5 c 128,-1,49
 2123 2504 2123 2504 2153 2435.5 c 128,-1,50
 2183 2367 2183 2367 2183 2289 c 0,51,52
 2183 2268 2183 2268 2180.5 2246.5 c 128,-1,53
 2178 2225 2178 2225 2173 2205 c 1,54,55
 2188 2215 2188 2215 2202.5 2223.5 c 128,-1,56
 2217 2232 2217 2232 2229 2237 c 0,57,58
 2287 2261 2287 2261 2349 2285 c 128,-1,59
 2411 2309 2411 2309 2469 2331 c 1,60,61
 2566 2363 2566 2363 2640.5 2378 c 128,-1,62
 2715 2393 2715 2393 2780 2396 c 0,63,64
 2863 2400 2863 2400 2942 2388 c 128,-1,65
 3021 2376 3021 2376 3093 2349 c 128,-1,66
 3165 2322 3165 2322 3228 2280 c 128,-1,67
 3291 2238 3291 2238 3341 2182 c 0,68,69
 3388 2130 3388 2130 3424.5 2076.5 c 128,-1,70
 3461 2023 3461 2023 3485.5 1967 c 128,-1,71
 3510 1911 3510 1911 3521.5 1850.5 c 128,-1,72
 3533 1790 3533 1790 3528 1724 c 0,73,74
 3524 1658 3524 1658 3513 1601.5 c 128,-1,75
 3502 1545 3502 1545 3484.5 1495.5 c 128,-1,76
 3467 1446 3467 1446 3443.5 1402.5 c 128,-1,77
 3420 1359 3420 1359 3391 1318 c 0,78,79
 3371 1291 3371 1291 3349.5 1267.5 c 128,-1,80
 3328 1244 3328 1244 3301.5 1218.5 c 128,-1,81
 3275 1193 3275 1193 3242 1164 c 128,-1,82
 3209 1135 3209 1135 3166 1098 c 0,83,84
 3134 1070 3134 1070 3106 1051.5 c 128,-1,85
 3078 1033 3078 1033 3055.5 1019.5 c 128,-1,86
 3033 1006 3033 1006 3018.5 997.5 c 128,-1,87
 3004 989 3004 989 3000 981 c 0,88,89
 2999 979 2999 979 2997 977 c 128,-1,90
 2995 975 2995 975 2995 973 c 1,91,-1
 2929 597 l 1,92,-1
 3062 102 l 1,93,94
 3013 58 3013 58 2896.5 21 c 128,-1,95
 2780 -16 2780 -16 2614.5 -43.5 c 128,-1,96
 2449 -71 2449 -71 2243.5 -87 c 128,-1,97
 2038 -103 2038 -103 1810 -103 c 0,98,99
 1579 -103 1579 -103 1370.5 -87 c 128,-1,100
 1162 -71 1162 -71 995.5 -42 c 128,-1,101
 829 -13 829 -13 713.5 25.5 c 128,-1,102
 598 64 598 64 553 110 c 1,103,-1
 684 598 l 1,0,-1
2788 175 m 1,104,105
 2710 211 2710 211 2605.5 240 c 128,-1,106
 2501 269 2501 269 2376 289 c 128,-1,107
 2251 309 2251 309 2108.5 320 c 128,-1,108
 1966 331 1966 331 1814 331 c 0,109,110
 1658 331 1658 331 1512.5 319.5 c 128,-1,111
 1367 308 1367 308 1240 287.5 c 128,-1,112
 1113 267 1113 267 1008 237.5 c 128,-1,113
 903 208 903 208 827 172 c 1,114,115
 898 140 898 140 1001 114 c 128,-1,116
 1104 88 1104 88 1231 70 c 128,-1,117
 1358 52 1358 52 1504.5 41.5 c 128,-1,118
 1651 31 1651 31 1809 31 c 128,-1,119
 1967 31 1967 31 2113.5 41.5 c 128,-1,120
 2260 52 2260 52 2386 70.5 c 128,-1,121
 2512 89 2512 89 2615 116 c 128,-1,122
 2718 143 2718 143 2788 175 c 1,104,105
1807 1591 m 1,123,124
 1812 1608 1812 1608 1817 1627.5 c 128,-1,125
 1822 1647 1822 1647 1831 1670 c 1,126,127
 1840 1704 1840 1704 1851 1736.5 c 128,-1,128
 1862 1769 1862 1769 1876 1802 c 128,-1,129
 1890 1835 1890 1835 1912.5 1880.5 c 128,-1,130
 1935 1926 1935 1926 1961 1982 c 0,131,132
 1977 2017 1977 2017 1995 2067 c 128,-1,133
 2013 2117 2013 2117 2030 2164 c 0,134,135
 2037 2182 2037 2182 2041.5 2204 c 128,-1,136
 2046 2226 2046 2226 2046 2249 c 0,137,138
 2046 2298 2046 2298 2027.5 2341.5 c 128,-1,139
 2009 2385 2009 2385 1976.5 2417 c 128,-1,140
 1944 2449 1944 2449 1900.5 2467.5 c 128,-1,141
 1857 2486 1857 2486 1807 2486 c 0,142,143
 1758 2485 1758 2485 1714 2466 c 128,-1,144
 1670 2447 1670 2447 1637.5 2415 c 128,-1,145
 1605 2383 1605 2383 1586.5 2339.5 c 128,-1,146
 1568 2296 1568 2296 1568 2247 c 0,147,148
 1568 2224 1568 2224 1572.5 2202 c 128,-1,149
 1577 2180 1577 2180 1584 2162 c 0,150,151
 1601 2115 1601 2115 1619 2065 c 128,-1,152
 1637 2015 1637 2015 1653 1980 c 0,153,154
 1679 1924 1679 1924 1701.5 1878.5 c 128,-1,155
 1724 1833 1724 1833 1738 1800 c 0,156,157
 1753 1767 1753 1767 1763.5 1734.5 c 128,-1,158
 1774 1702 1774 1702 1783 1668 c 1,159,160
 1792 1645 1792 1645 1797 1625.5 c 128,-1,161
 1802 1606 1802 1606 1807 1591 c 1,123,124
1884 2669 m 1,162,-1
 1728 2669 l 1,163,-1
 1728 2920 l 1,164,-1
 1544 2920 l 2,165,166
 1513 2920 1513 2920 1491.5 2940.5 c 128,-1,167
 1470 2961 1470 2961 1470 2990 c 2,168,-1
 1470 2991 l 2,169,170
 1470 3020 1470 3020 1491.5 3041 c 128,-1,171
 1513 3062 1513 3062 1544 3062 c 2,172,-1
 1728 3062 l 1,173,-1
 1728 3240 l 2,174,175
 1728 3271 1728 3271 1750.5 3292.5 c 128,-1,176
 1773 3314 1773 3314 1806 3314 c 1,177,-1
 1806 3314 l 1,178,179
 1839 3314 1839 3314 1861.5 3292 c 128,-1,180
 1884 3270 1884 3270 1884 3240 c 2,181,-1
 1884 3062 l 1,182,-1
 2071 3062 l 2,183,184
 2101 3062 2101 3062 2123 3041 c 128,-1,185
 2145 3020 2145 3020 2145 2991 c 2,186,-1
 2145 2990 l 2,187,188
 2145 2961 2145 2961 2123.5 2940.5 c 128,-1,189
 2102 2920 2102 2920 2071 2920 c 2,190,-1
 1886 2918 l 1,191,-1
 1884 2669 l 1,162,-1
925 596 m 1,192,-1
 868 378 l 1,193,194
 947 402 947 402 1049 421.5 c 128,-1,195
 1151 441 1151 441 1271.5 455 c 128,-1,196
 1392 469 1392 469 1527.5 476.5 c 128,-1,197
 1663 484 1663 484 1808 484 c 0,198,199
 1952 484 1952 484 2086 476.5 c 128,-1,200
 2220 469 2220 469 2339.5 455.5 c 128,-1,201
 2459 442 2459 442 2561 422.5 c 128,-1,202
 2663 403 2663 403 2742 379 c 1,203,-1
 2689 598 l 1,204,-1
 2739 874 l 1,205,206
 2657 897 2657 897 2554.5 915 c 128,-1,207
 2452 933 2452 933 2334 946 c 128,-1,208
 2216 959 2216 959 2083 965.5 c 128,-1,209
 1950 972 1950 972 1806 972 c 0,210,211
 1663 972 1663 972 1530.5 965.5 c 128,-1,212
 1398 959 1398 959 1279.5 947 c 128,-1,213
 1161 935 1161 935 1058.5 916.5 c 128,-1,214
 956 898 956 898 872 874 c 1,215,-1
 925 596 l 1,192,-1
1661 1131 m 1,216,217
 1661 1171 1661 1171 1660.5 1229.5 c 128,-1,218
 1660 1288 1660 1288 1657 1352 c 128,-1,219
 1654 1416 1654 1416 1647.5 1478 c 128,-1,220
 1641 1540 1641 1540 1629 1586 c 0,221,222
 1593 1719 1593 1719 1536.5 1827.5 c 128,-1,223
 1480 1936 1480 1936 1406 2018 c 0,224,225
 1367 2061 1367 2061 1307 2100.5 c 128,-1,226
 1247 2140 1247 2140 1168 2173 c 1,227,228
 991 2253 991 2253 822 2253 c 0,229,230
 538 2253 538 2253 399 2028 c 1,231,232
 322 1908 322 1908 322 1729 c 0,233,234
 322 1631 322 1631 344 1549.5 c 128,-1,235
 366 1468 366 1468 409 1405 c 0,236,237
 432 1371 432 1371 479.5 1325 c 128,-1,238
 527 1279 527 1279 583 1229 c 128,-1,239
 639 1179 639 1179 696.5 1127.5 c 128,-1,240
 754 1076 754 1076 797 1031 c 1,241,242
 877 1051 877 1051 963.5 1068.5 c 128,-1,243
 1050 1086 1050 1086 1153 1099 c 128,-1,244
 1256 1112 1256 1112 1381 1120.5 c 128,-1,245
 1506 1129 1506 1129 1661 1131 c 1,216,217
1953 1127 m 1,246,247
 2108 1125 2108 1125 2232.5 1117 c 128,-1,248
 2357 1109 2357 1109 2460.5 1095.5 c 128,-1,249
 2564 1082 2564 1082 2650.5 1064.5 c 128,-1,250
 2737 1047 2737 1047 2816 1027 c 1,251,252
 2866 1082 2866 1082 2924.5 1134.5 c 128,-1,253
 2983 1187 2983 1187 3037.5 1234.5 c 128,-1,254
 3092 1282 3092 1282 3136.5 1324.5 c 128,-1,255
 3181 1367 3181 1367 3205 1402 c 0,256,257
 3247 1465 3247 1465 3269.5 1546 c 128,-1,258
 3292 1627 3292 1627 3292 1725 c 0,259,260
 3292 1905 3292 1905 3214 2024 c 1,261,262
 3075 2250 3075 2250 2792 2250 c 0,263,264
 2622 2250 2622 2250 2445 2170 c 0,265,266
 2367 2136 2367 2136 2307 2096.5 c 128,-1,267
 2247 2057 2247 2057 2208 2014 c 0,268,269
 2133 1932 2133 1932 2077 1823.5 c 128,-1,270
 2021 1715 2021 1715 1985 1582 c 0,271,272
 1973 1536 1973 1536 1966.5 1474 c 128,-1,273
 1960 1412 1960 1412 1957 1348.5 c 128,-1,274
 1954 1285 1954 1285 1954 1226 c 128,-1,275
 1954 1167 1954 1167 1953 1127 c 1,246,247
EndSplineSet
EndChar
StartChar: section
Encoding: 167 167 70
Width: 2736
GlyphClass: 2
Flags: W
Fore
548 342 m 1,0,-1
 2460 342 l 1,1,-1
 2460 0 l 1,2,-1
 206 0 l 1,3,-1
 206 2798 l 1,4,-1
 548 2798 l 1,5,-1
 548 342 l 1,0,-1
EndSplineSet
EndChar
StartChar: dieresis
Encoding: 168 168 71
Width: 2503
GlyphClass: 2
Flags: W
Fore
1223 0 m 1,0,-1
 143 0 l 1,1,2
 105 96 105 96 84.5 201 c 128,-1,3
 64 306 64 306 64 417 c 0,4,5
 64 603 64 603 119.5 771.5 c 128,-1,6
 175 940 175 940 274.5 1081.5 c 128,-1,7
 374 1223 374 1223 511.5 1331 c 128,-1,8
 649 1439 649 1439 814 1501 c 1,9,10
 743 1534 743 1534 684 1585 c 128,-1,11
 625 1636 625 1636 583 1700.5 c 128,-1,12
 541 1765 541 1765 517 1841 c 128,-1,13
 493 1917 493 1917 493 2000 c 0,14,15
 493 2105 493 2105 530.5 2198.5 c 128,-1,16
 568 2292 568 2292 633 2364.5 c 128,-1,17
 698 2437 698 2437 786.5 2484 c 128,-1,18
 875 2531 875 2531 976 2542 c 1,19,20
 903 2598 903 2598 859.5 2682 c 128,-1,21
 816 2766 816 2766 816 2865 c 0,22,23
 816 2950 816 2950 848 3024 c 128,-1,24
 880 3098 880 3098 935 3153 c 128,-1,25
 990 3208 990 3208 1064.5 3240.5 c 128,-1,26
 1139 3273 1139 3273 1223 3273 c 128,-1,27
 1307 3273 1307 3273 1381.5 3240.5 c 128,-1,28
 1456 3208 1456 3208 1511 3153 c 128,-1,29
 1566 3098 1566 3098 1598.5 3024 c 128,-1,30
 1631 2950 1631 2950 1631 2865 c 0,31,32
 1631 2766 1631 2766 1587 2682 c 128,-1,33
 1543 2598 1543 2598 1470 2542 c 1,34,35
 1571 2531 1571 2531 1659.5 2484 c 128,-1,36
 1748 2437 1748 2437 1813 2364.5 c 128,-1,37
 1878 2292 1878 2292 1915.5 2198.5 c 128,-1,38
 1953 2105 1953 2105 1953 2000 c 0,39,40
 1953 1917 1953 1917 1929 1841 c 128,-1,41
 1905 1765 1905 1765 1863 1700.5 c 128,-1,42
 1821 1636 1821 1636 1762 1585 c 128,-1,43
 1703 1534 1703 1534 1632 1501 c 1,44,45
 1797 1439 1797 1439 1934.5 1331 c 128,-1,46
 2072 1223 2072 1223 2171.5 1081.5 c 128,-1,47
 2271 940 2271 940 2326.5 771.5 c 128,-1,48
 2382 603 2382 603 2382 417 c 0,49,50
 2382 306 2382 306 2361.5 201 c 128,-1,51
 2341 96 2341 96 2303 0 c 1,52,-1
 1223 0 l 1,0,-1
1223 134 m 1,53,-1
 2107 134 l 1,54,55
 2125 202 2125 202 2134.5 272.5 c 128,-1,56
 2144 343 2144 343 2144 417 c 0,57,58
 2144 574 2144 574 2103 718 c 128,-1,59
 2062 862 2062 862 1989 984 c 128,-1,60
 1916 1106 1916 1106 1814 1201 c 128,-1,61
 1712 1296 1712 1296 1590 1356 c 1,62,63
 1564 1359 1564 1359 1542 1371.5 c 128,-1,64
 1520 1384 1520 1384 1504 1403.5 c 128,-1,65
 1488 1423 1488 1423 1478.5 1448 c 128,-1,66
 1469 1473 1469 1473 1469 1501 c 0,67,68
 1469 1530 1469 1530 1480 1554.5 c 128,-1,69
 1491 1579 1491 1579 1508 1599 c 128,-1,70
 1525 1619 1525 1619 1546.5 1633.5 c 128,-1,71
 1568 1648 1568 1648 1590 1656 c 1,72,73
 1665 1715 1665 1715 1711 1804 c 128,-1,74
 1757 1893 1757 1893 1757 2000 c 0,75,76
 1757 2078 1757 2078 1732.5 2147.5 c 128,-1,77
 1708 2217 1708 2217 1664.5 2271.5 c 128,-1,78
 1621 2326 1621 2326 1562.5 2361 c 128,-1,79
 1504 2396 1504 2396 1438 2406 c 1,80,81
 1416 2408 1416 2408 1396 2419.5 c 128,-1,82
 1376 2431 1376 2431 1361.5 2449 c 128,-1,83
 1347 2467 1347 2467 1338.5 2490.5 c 128,-1,84
 1330 2514 1330 2514 1330 2540 c 0,85,86
 1330 2570 1330 2570 1341 2596.5 c 128,-1,87
 1352 2623 1352 2623 1370 2645 c 1,88,89
 1414 2685 1414 2685 1440.5 2742 c 128,-1,90
 1467 2799 1467 2799 1467 2865 c 0,91,92
 1467 2921 1467 2921 1448 2970.5 c 128,-1,93
 1429 3020 1429 3020 1395.5 3057 c 128,-1,94
 1362 3094 1362 3094 1317.5 3115 c 128,-1,95
 1273 3136 1273 3136 1223 3136 c 128,-1,96
 1173 3136 1173 3136 1128.5 3115 c 128,-1,97
 1084 3094 1084 3094 1050.5 3057 c 128,-1,98
 1017 3020 1017 3020 998 2970.5 c 128,-1,99
 979 2921 979 2921 979 2865 c 0,100,101
 979 2799 979 2799 1006 2742 c 128,-1,102
 1033 2685 1033 2685 1076 2645 c 1,103,104
 1094 2623 1094 2623 1105 2596.5 c 128,-1,105
 1116 2570 1116 2570 1116 2540 c 0,106,107
 1116 2514 1116 2514 1107.5 2490.5 c 128,-1,108
 1099 2467 1099 2467 1084.5 2449 c 128,-1,109
 1070 2431 1070 2431 1050.5 2419.5 c 128,-1,110
 1031 2408 1031 2408 1008 2406 c 1,111,112
 942 2396 942 2396 883.5 2361 c 128,-1,113
 825 2326 825 2326 782 2271.5 c 128,-1,114
 739 2217 739 2217 714 2147.5 c 128,-1,115
 689 2078 689 2078 689 2000 c 0,116,117
 689 1893 689 1893 735.5 1804 c 128,-1,118
 782 1715 782 1715 856 1656 c 1,119,120
 878 1648 878 1648 899.5 1633.5 c 128,-1,121
 921 1619 921 1619 938.5 1599 c 128,-1,122
 956 1579 956 1579 966.5 1554.5 c 128,-1,123
 977 1530 977 1530 977 1501 c 0,124,125
 977 1473 977 1473 967.5 1448 c 128,-1,126
 958 1423 958 1423 942 1403.5 c 128,-1,127
 926 1384 926 1384 904 1371.5 c 128,-1,128
 882 1359 882 1359 856 1356 c 1,129,130
 734 1296 734 1296 632 1201 c 128,-1,131
 530 1106 530 1106 456.5 984 c 128,-1,132
 383 862 383 862 342.5 718 c 128,-1,133
 302 574 302 574 302 417 c 0,134,135
 302 343 302 343 311.5 272.5 c 128,-1,136
 321 202 321 202 339 134 c 1,137,-1
 1223 134 l 1,53,-1
EndSplineSet
EndChar
StartChar: copyright
Encoding: 169 169 72
Width: 2961
GlyphClass: 2
Flags: W
Fore
3000 613 m 1,0,-1
 3000 0 l 1,1,-1
 136 0 l 1,2,-1
 136 613 l 2,3,4
 136 761 136 761 165 901.5 c 128,-1,5
 194 1042 194 1042 248.5 1171 c 128,-1,6
 303 1300 303 1300 381 1415 c 128,-1,7
 459 1530 459 1530 557 1627.5 c 128,-1,8
 655 1725 655 1725 770 1803 c 128,-1,9
 885 1881 885 1881 1013.5 1935.5 c 128,-1,10
 1142 1990 1142 1990 1282.5 2019.5 c 128,-1,11
 1423 2049 1423 2049 1572 2049 c 0,12,13
 1720 2049 1720 2049 1860.5 2019.5 c 128,-1,14
 2001 1990 2001 1990 2129.5 1935.5 c 128,-1,15
 2258 1881 2258 1881 2372.5 1803 c 128,-1,16
 2487 1725 2487 1725 2584 1627.5 c 128,-1,17
 2681 1530 2681 1530 2758.5 1415 c 128,-1,18
 2836 1300 2836 1300 2890 1171 c 128,-1,19
 2944 1042 2944 1042 2972.5 901.5 c 128,-1,20
 3001 761 3001 761 3000 613 c 1,0,-1
2659 613 m 2,21,22
 2659 726 2659 726 2637 833 c 128,-1,23
 2615 940 2615 940 2574 1038.5 c 128,-1,24
 2533 1137 2533 1137 2474 1224.5 c 128,-1,25
 2415 1312 2415 1312 2341.5 1386.5 c 128,-1,26
 2268 1461 2268 1461 2181 1520.5 c 128,-1,27
 2094 1580 2094 1580 1996 1621.5 c 128,-1,28
 1898 1663 1898 1663 1791.5 1685.5 c 128,-1,29
 1685 1708 1685 1708 1572 1708 c 128,-1,30
 1459 1708 1459 1708 1351.5 1685.5 c 128,-1,31
 1244 1663 1244 1663 1146 1621.5 c 128,-1,32
 1048 1580 1048 1580 960 1520.5 c 128,-1,33
 872 1461 872 1461 798 1386.5 c 128,-1,34
 724 1312 724 1312 664.5 1224.5 c 128,-1,35
 605 1137 605 1137 563 1038.5 c 128,-1,36
 521 940 521 940 499 833 c 128,-1,37
 477 726 477 726 477 613 c 2,38,-1
 477 342 l 1,39,-1
 2659 342 l 1,40,-1
 2659 613 l 2,21,22
EndSplineSet
EndChar
StartChar: ordfeminine
Encoding: 170 170 73
Width: 2961
GlyphClass: 2
Flags: W
Fore
648 2286 m 1,0,1
 795 2191 795 2191 939 2142 c 128,-1,2
 1083 2093 1083 2093 1224 2093 c 128,-1,3
 1365 2093 1365 2093 1510.5 2142 c 128,-1,4
 1656 2191 1656 2191 1804 2286 c 1,5,6
 1781 2247 1781 2247 1725.5 2181 c 128,-1,7
 1670 2115 1670 2115 1586 2025 c 1,8,-1
 1422 1844 l 2,9,10
 1368 1785 1368 1785 1334 1743 c 128,-1,11
 1300 1701 1300 1701 1288 1679 c 0,12,13
 1276 1655 1276 1655 1266 1610.5 c 128,-1,14
 1256 1566 1256 1566 1250 1501 c 0,15,16
 1248 1482 1248 1482 1243 1451 c 128,-1,17
 1238 1420 1238 1420 1232 1382 c 1,18,19
 1226 1420 1226 1420 1221 1451 c 128,-1,20
 1216 1482 1216 1482 1214 1501 c 0,21,22
 1205 1566 1205 1566 1194.5 1610 c 128,-1,23
 1184 1654 1184 1654 1172 1677 c 0,24,25
 1160 1701 1160 1701 1126 1743 c 128,-1,26
 1092 1785 1092 1785 1036 1844 c 1,27,-1
 868 2025 l 1,28,29
 783 2115 783 2115 728 2181 c 128,-1,30
 673 2247 673 2247 648 2286 c 1,0,1
601 428 m 1,31,32
 615 487 615 487 670 543.5 c 128,-1,33
 725 600 725 600 819 655 c 1,34,-1
 981 744 l 2,35,36
 1057 786 1057 786 1102.5 815.5 c 128,-1,37
 1148 845 1148 845 1161 859 c 0,38,39
 1176 874 1176 874 1194 908 c 128,-1,40
 1212 942 1212 942 1231 992 c 1,41,42
 1251 942 1251 942 1268 908 c 128,-1,43
 1285 874 1285 874 1298 861 c 0,44,45
 1312 845 1312 845 1356.5 815.5 c 128,-1,46
 1401 786 1401 786 1474 744 c 2,47,-1
 1633 655 l 1,48,49
 1724 600 1724 600 1778 543.5 c 128,-1,50
 1832 487 1832 487 1845 428 c 1,51,52
 1731 359 1731 359 1575.5 323.5 c 128,-1,53
 1420 288 1420 288 1224 288 c 0,54,55
 1027 288 1027 288 871 323.5 c 128,-1,56
 715 359 715 359 601 428 c 1,31,32
2111 198 m 1,57,-1
 2154 198 l 2,58,59
 2175 198 2175 198 2193 190.5 c 128,-1,60
 2211 183 2211 183 2224.5 169.5 c 128,-1,61
 2238 156 2238 156 2246 137.5 c 128,-1,62
 2254 119 2254 119 2254 99 c 2,63,-1
 2254 98 l 2,64,65
 2254 78 2254 78 2246 59.5 c 128,-1,66
 2238 41 2238 41 2224.5 27.5 c 128,-1,67
 2211 14 2211 14 2193 7 c 128,-1,68
 2175 0 2175 0 2154 0 c 2,69,-1
 306 0 l 2,70,71
 285 0 285 0 267 7 c 128,-1,72
 249 14 249 14 235.5 27.5 c 128,-1,73
 222 41 222 41 214 59.5 c 128,-1,74
 206 78 206 78 206 98 c 2,75,-1
 206 99 l 2,76,77
 206 119 206 119 214 137.5 c 128,-1,78
 222 156 222 156 235.5 169.5 c 128,-1,79
 249 183 249 183 267 190.5 c 128,-1,80
 285 198 285 198 306 198 c 2,81,-1
 349 198 l 1,82,-1
 349 467 l 2,83,84
 349 561 349 561 362.5 637.5 c 128,-1,85
 376 714 376 714 400 770 c 0,86,87
 424 827 424 827 475 897 c 128,-1,88
 526 967 526 967 602 1047 c 2,89,-1
 866 1325 l 2,90,91
 929 1391 929 1391 960.5 1435.5 c 128,-1,92
 992 1480 992 1480 992 1500 c 128,-1,93
 992 1520 992 1520 953.5 1570.5 c 128,-1,94
 915 1621 915 1621 838 1697 c 1,95,-1
 574 1969 l 2,96,97
 508 2037 508 2037 462.5 2101 c 128,-1,98
 417 2165 417 2165 396 2222 c 0,99,100
 386 2250 386 2250 377 2303 c 128,-1,101
 368 2356 368 2356 361.5 2419 c 128,-1,102
 355 2482 355 2482 352 2546.5 c 128,-1,103
 349 2611 349 2611 349 2662 c 1,104,-1
 306 2662 l 2,105,106
 286 2662 286 2662 267.5 2670 c 128,-1,107
 249 2678 249 2678 235.5 2691.5 c 128,-1,108
 222 2705 222 2705 214 2723 c 128,-1,109
 206 2741 206 2741 206 2762 c 128,-1,110
 206 2783 206 2783 214 2801 c 128,-1,111
 222 2819 222 2819 235.5 2832.5 c 128,-1,112
 249 2846 249 2846 267 2854 c 128,-1,113
 285 2862 285 2862 306 2862 c 2,114,-1
 2154 2862 l 2,115,116
 2175 2862 2175 2862 2193 2854 c 128,-1,117
 2211 2846 2211 2846 2224.5 2832.5 c 128,-1,118
 2238 2819 2238 2819 2246 2801 c 128,-1,119
 2254 2783 2254 2783 2254 2762 c 128,-1,120
 2254 2741 2254 2741 2246 2723 c 128,-1,121
 2238 2705 2238 2705 2224.5 2691.5 c 128,-1,122
 2211 2678 2211 2678 2193 2670 c 128,-1,123
 2175 2662 2175 2662 2154 2662 c 2,124,-1
 2111 2662 l 1,125,126
 2111 2611 2111 2611 2108.5 2546.5 c 128,-1,127
 2106 2482 2106 2482 2100.5 2419 c 128,-1,128
 2095 2356 2095 2356 2087 2303 c 128,-1,129
 2079 2250 2079 2250 2068 2222 c 0,130,131
 2046 2165 2046 2165 2000 2101 c 128,-1,132
 1954 2037 1954 2037 1888 1969 c 2,133,-1
 1624 1697 l 2,134,135
 1549 1621 1549 1621 1510.5 1570.5 c 128,-1,136
 1472 1520 1472 1520 1472 1500 c 128,-1,137
 1472 1480 1472 1480 1503.5 1435.5 c 128,-1,138
 1535 1391 1535 1391 1596 1325 c 1,139,-1
 1860 1047 l 2,140,141
 1937 967 1937 967 1988 897 c 128,-1,142
 2039 827 2039 827 2062 772 c 0,143,144
 2087 715 2087 715 2099 637.5 c 128,-1,145
 2111 560 2111 560 2111 464 c 2,146,-1
 2111 198 l 1,57,-1
1941 199 m 2,147,148
 1942 199 1942 199 1942 216 c 128,-1,149
 1942 233 1942 233 1941.5 258 c 128,-1,150
 1941 283 1941 283 1941 311.5 c 128,-1,151
 1941 340 1941 340 1941 363 c 2,152,-1
 1941 513 l 2,153,154
 1941 589 1941 589 1931 642.5 c 128,-1,155
 1921 696 1921 696 1905 733 c 0,156,157
 1889 772 1889 772 1845.5 830 c 128,-1,158
 1802 888 1802 888 1735 965 c 2,159,-1
 1501 1230 l 2,160,161
 1432 1309 1432 1309 1391.5 1368.5 c 128,-1,162
 1351 1428 1351 1428 1351 1470 c 0,163,164
 1351 1485 1351 1485 1358.5 1511.5 c 128,-1,165
 1366 1538 1366 1538 1383 1571.5 c 128,-1,166
 1400 1605 1400 1605 1427 1645 c 128,-1,167
 1454 1685 1454 1685 1493 1727 c 2,168,-1
 1707 1955 l 2,169,170
 1783 2037 1783 2037 1834 2095.5 c 128,-1,171
 1885 2154 1885 2154 1902 2190 c 0,172,173
 1919 2225 1919 2225 1928 2277 c 128,-1,174
 1937 2329 1937 2329 1937 2393 c 1,175,-1
 1941 2662 l 1,176,-1
 527 2662 l 1,177,-1
 527 2392 l 2,178,179
 527 2327 527 2327 537.5 2275.5 c 128,-1,180
 548 2224 548 2224 563 2190 c 0,181,182
 584 2143 584 2143 634.5 2086.5 c 128,-1,183
 685 2030 685 2030 761 1948 c 2,184,-1
 967 1727 l 2,185,186
 1046 1643 1046 1643 1081.5 1575 c 128,-1,187
 1117 1507 1117 1507 1117 1470 c 128,-1,188
 1117 1433 1117 1433 1075 1371.5 c 128,-1,189
 1033 1310 1033 1310 963 1230 c 2,190,-1
 729 965 l 2,191,192
 661 888 661 888 619.5 830 c 128,-1,193
 578 772 578 772 561 735 c 0,194,195
 545 696 545 696 535.5 642.5 c 128,-1,196
 526 589 526 589 526 513 c 1,197,-1
 527 362 l 1,198,199
 527 332 527 332 527 302.5 c 128,-1,200
 527 273 527 273 527 250 c 128,-1,201
 527 227 527 227 526 213 c 0,202,203
 526 200 526 200 526 199 c 1,204,-1
 1941 199 l 2,147,148
EndSplineSet
EndChar
StartChar: logicalnot
Encoding: 172 172 74
Width: 2781
GlyphClass: 2
Flags: W
Fore
1628 2862 m 1,0,-1
 1969 2862 l 1,1,-1
 1969 3140 l 1,2,-1
 2524 3140 l 1,3,-1
 2521 2526 l 1,4,-1
 2076 2183 l 1,5,-1
 2076 1226 l 1,6,-1
 2417 887 l 1,7,-1
 2417 477 l 1,8,-1
 2659 477 l 1,9,-1
 2659 0 l 1,10,-1
 64 0 l 1,11,-1
 64 477 l 1,12,-1
 299 477 l 1,13,-1
 299 887 l 1,14,-1
 640 1226 l 1,15,-1
 640 2183 l 1,16,-1
 199 2526 l 1,17,-1
 199 3140 l 1,18,-1
 747 3140 l 1,19,-1
 747 2862 l 1,20,-1
 1088 2862 l 1,21,-1
 1088 3140 l 1,22,-1
 1628 3140 l 1,23,-1
 1628 2862 l 1,0,-1
2401 342 m 1,24,-1
 315 342 l 1,25,-1
 315 134 l 1,26,-1
 2401 134 l 1,27,-1
 2401 342 l 1,24,-1
2186 835 m 1,28,-1
 1956 1076 l 1,29,-1
 760 1076 l 1,30,-1
 530 835 l 1,31,-1
 530 492 l 1,32,-1
 2186 492 l 1,33,-1
 2186 835 l 1,28,-1
1880 2159 m 1,34,-1
 837 2159 l 1,35,-1
 837 1250 l 1,36,-1
 1880 1250 l 1,37,-1
 1880 2159 l 1,34,-1
2325 2619 m 1,38,-1
 2325 3005 l 1,39,-1
 2147 3005 l 1,40,-1
 2147 2734 l 1,41,-1
 1486 2734 l 1,42,-1
 1486 3005 l 1,43,-1
 1230 3005 l 1,44,-1
 1230 2734 l 1,45,-1
 576 2734 l 1,46,-1
 576 3005 l 1,47,-1
 391 3005 l 1,48,-1
 391 2619 l 1,49,-1
 747 2318 l 1,50,-1
 1972 2318 l 1,51,-1
 2325 2619 l 1,38,-1
EndSplineSet
EndChar
StartChar: registered
Encoding: 174 174 75
Width: 2961
GlyphClass: 2
Flags: W
Fore
953 1977 m 1,0,-1
 953 2798 l 1,1,-1
 2936 2798 l 1,2,-1
 2936 820 l 1,3,-1
 2119 820 l 1,4,-1
 2119 0 l 1,5,-1
 136 0 l 1,6,-1
 136 1977 l 1,7,-1
 953 1977 l 1,0,-1
EndSplineSet
EndChar
StartChar: plusminus
Encoding: 177 177 76
Width: 2310
GlyphClass: 2
Flags: W
Fore
1854 15 m 1,0,1
 1840 14 1840 14 1823 11.5 c 128,-1,2
 1806 9 1806 9 1787 7 c 0,3,4
 1769 5 1769 5 1754 3 c 128,-1,5
 1739 1 1739 1 1729 0 c 1,6,7
 1531 4 1531 4 1378 115 c 0,8,9
 1224 226 1224 226 1180 409 c 1,10,11
 936 48 936 48 567 36 c 1,12,13
 546 38 546 38 501.5 43.5 c 128,-1,14
 457 49 457 49 391 58 c 1,15,16
 345 68 345 68 303.5 88 c 128,-1,17
 262 108 262 108 227 135 c 0,18,19
 154 189 154 189 104 270 c 0,20,21
 79 310 79 310 59.5 354.5 c 128,-1,22
 40 399 40 399 27 445 c 0,23,24
 14 493 14 493 7 540.5 c 128,-1,25
 0 588 0 588 0 635 c 0,26,27
 0 700 0 700 11.5 761 c 128,-1,28
 23 822 23 822 46 880 c 0,29,30
 69 939 69 939 103.5 986.5 c 128,-1,31
 138 1034 138 1034 183 1072 c 0,32,33
 273 1146 273 1146 405 1160 c 0,34,35
 427 1162 427 1162 444.5 1163.5 c 128,-1,36
 462 1165 462 1165 472 1165 c 0,37,38
 653 1165 653 1165 754 1061 c 0,39,40
 856 957 856 957 922 799 c 1,41,42
 1038 974 1038 974 1224 1085 c 1,43,44
 1317 1142 1317 1142 1419 1170 c 128,-1,45
 1521 1198 1521 1198 1631 1198 c 0,46,47
 1828 1198 1828 1198 1971 1108 c 1,48,49
 2115 1020 2115 1020 2188 877 c 0,50,51
 2261 733 2261 733 2261 572 c 0,52,53
 2261 448 2261 448 2219 331 c 0,54,55
 2198 273 2198 273 2164 222.5 c 128,-1,56
 2130 172 2130 172 2084 130 c 0,57,58
 1991 46 1991 46 1854 15 c 1,0,1
1770 330 m 1,59,60
 1944 339 1944 339 2051 404 c 0,61,62
 2159 468 2159 468 2161 573 c 1,63,64
 2161 811 2161 811 1842 826 c 1,65,66
 1777 826 1777 826 1720.5 818 c 128,-1,67
 1664 810 1664 810 1618 795 c 0,68,69
 1572 779 1572 779 1527 752 c 128,-1,70
 1482 725 1482 725 1440 688 c 0,71,72
 1354 612 1354 612 1241 467 c 1,73,74
 1359 394 1359 394 1476 362 c 0,75,76
 1594 330 1594 330 1770 330 c 1,59,60
537 415 m 0,77,78
 575 428 575 428 618 458 c 128,-1,79
 661 488 661 488 708 534 c 0,80,81
 756 580 756 580 794.5 629.5 c 128,-1,82
 833 679 833 679 863 731 c 1,83,84
 729 836 729 836 491 836 c 0,85,86
 343 836 343 836 233 787 c 0,87,88
 123 737 123 737 101 648 c 1,89,90
 101 528 101 528 169 455 c 0,91,92
 238 381 238 381 366 378 c 1,93,94
 408 382 408 382 451 391.5 c 128,-1,95
 494 401 494 401 537 415 c 0,77,78
64 1477 m 1,96,-1
 64 1819 l 1,97,-1
 2183 1819 l 1,98,-1
 2183 1477 l 1,99,-1
 64 1477 l 1,96,-1
64 2162 m 1,100,-1
 64 2505 l 1,101,-1
 2183 2505 l 1,102,-1
 2183 2162 l 1,103,-1
 64 2162 l 1,100,-1
EndSplineSet
EndChar
StartChar: acute
Encoding: 180 180 77
Width: 2310
GlyphClass: 2
Flags: W
Fore
988 1706 m 1,0,-1
 1330 1706 l 1,1,-1
 1330 1020 l 1,2,-1
 2183 1020 l 1,3,-1
 2183 677 l 1,4,-1
 1330 677 l 1,5,-1
 1330 0 l 1,6,-1
 988 0 l 1,7,-1
 988 677 l 1,8,-1
 136 677 l 1,9,-1
 136 1020 l 1,10,-1
 988 1020 l 1,11,-1
 988 1706 l 1,0,-1
136 1841 m 1,12,-1
 136 2184 l 1,13,-1
 2183 2184 l 1,14,-1
 2183 1841 l 1,15,-1
 136 1841 l 1,12,-1
136 2526 m 1,16,-1
 136 2869 l 1,17,-1
 2183 2869 l 1,18,-1
 2183 2526 l 1,19,-1
 136 2526 l 1,16,-1
EndSplineSet
EndChar
